<svg width="641" height="452" viewBox="0 0 641 452" fill="none" xmlns="http://www.w3.org/2000/svg">
<path d="M321 9C423.725 9 507 92.275 507 195C507 205.213 506.174 215.234 504.591 225H494.45C496.125 215.25 497 205.227 497 195C497 97.7979 418.202 19 321 19C223.798 19 145 97.7979 145 195C145 205.227 145.875 215.25 147.55 225H137.409C135.826 215.234 135 205.213 135 195C135 92.275 218.275 9 321 9Z" fill="white"/>
<path d="M321 0C428.696 0 516 87.3045 516 195C516 205.202 515.216 215.221 513.706 225H509.656C511.198 215.227 512 205.207 512 195C512 89.5136 426.486 4 321 4C215.514 4 130 89.5136 130 195C130 205.207 130.802 215.227 132.344 225H128.294C126.784 215.221 126 205.202 126 195C126 87.3045 213.304 0 321 0Z" fill="white"/>
<path d="M321 9C423.725 9 507 92.275 507 195C507 205.213 506.174 215.234 504.591 225H494.45C496.125 215.25 497 205.227 497 195C497 97.7979 418.202 19 321 19C223.798 19 145 97.7979 145 195C145 205.227 145.875 215.25 147.55 225H137.409C135.826 215.234 135 205.213 135 195C135 92.275 218.275 9 321 9Z" fill="white"/>
<rect x="70" y="232" width="501" height="95" rx="47.5" fill="white"/>
<rect x="64" y="227" width="513" height="105" rx="52.5" stroke="white" stroke-width="4"/>
<rect x="2" y="332" width="637" height="70" rx="10" stroke="white" stroke-width="4"/>
<path d="M113.304 255.688C114.371 255.731 115.736 255.773 117.4 255.816C119.064 255.859 120.728 255.88 122.392 255.88C124.483 255.88 126.467 255.859 128.344 255.816C130.221 255.773 131.544 255.752 132.312 255.752C136.152 255.752 139.309 256.221 141.784 257.16C144.301 258.056 146.179 259.336 147.416 261C148.653 262.664 149.272 264.627 149.272 266.888C149.272 268.296 148.995 269.747 148.44 271.24C147.885 272.691 146.925 274.035 145.56 275.272C144.195 276.509 142.317 277.533 139.928 278.344C137.581 279.112 134.573 279.496 130.904 279.496H124.76V278.216H130.264C132.952 278.216 135 277.747 136.408 276.808C137.859 275.827 138.819 274.547 139.288 272.968C139.8 271.347 140.056 269.555 140.056 267.592C140.056 264.221 139.395 261.619 138.072 259.784C136.749 257.907 134.467 256.968 131.224 256.968C129.475 256.968 128.323 257.331 127.768 258.056C127.256 258.781 127 260.253 127 262.472V294.216C127 295.752 127.128 296.904 127.384 297.672C127.64 298.44 128.109 298.952 128.792 299.208C129.517 299.464 130.563 299.635 131.928 299.72V301C130.861 300.915 129.496 300.872 127.832 300.872C126.168 300.829 124.483 300.808 122.776 300.808C120.856 300.808 119.064 300.829 117.4 300.872C115.736 300.872 114.371 300.915 113.304 301V299.72C114.712 299.635 115.757 299.464 116.44 299.208C117.165 298.952 117.635 298.44 117.848 297.672C118.104 296.904 118.232 295.752 118.232 294.216V262.472C118.232 260.893 118.104 259.741 117.848 259.016C117.635 258.248 117.165 257.736 116.44 257.48C115.757 257.181 114.712 257.011 113.304 256.968V255.688ZM124.76 278.408C126.765 278.493 128.429 278.6 129.752 278.728C131.117 278.813 132.269 278.899 133.208 278.984C134.189 279.069 135.064 279.176 135.832 279.304C139.373 279.645 141.976 280.477 143.64 281.8C145.347 283.08 146.477 285.043 147.032 287.688L148.504 294.28C148.888 296.029 149.293 297.288 149.72 298.056C150.189 298.781 150.851 299.123 151.704 299.08C152.301 299.08 152.813 298.931 153.24 298.632C153.667 298.291 154.093 297.843 154.52 297.288L155.416 298.056C154.349 299.379 153.219 300.36 152.024 301C150.829 301.597 149.315 301.896 147.48 301.896C145.432 301.896 143.704 301.427 142.296 300.488C140.888 299.507 139.928 297.672 139.416 294.984L138.2 288.584C137.859 286.792 137.453 285.213 136.984 283.848C136.557 282.483 135.96 281.416 135.192 280.648C134.424 279.88 133.293 279.496 131.8 279.496H124.888L124.76 278.408ZM189.705 255.496L205.257 295.624C205.896 297.16 206.579 298.227 207.305 298.824C208.073 299.379 208.777 299.677 209.417 299.72V301C208.307 300.915 206.963 300.872 205.385 300.872C203.849 300.829 202.27 300.808 200.649 300.808C198.771 300.808 197.022 300.829 195.401 300.872C193.779 300.872 192.457 300.915 191.433 301V299.72C193.609 299.635 194.995 299.272 195.593 298.632C196.19 297.949 196.062 296.52 195.208 294.344L183.944 263.944L185.097 262.536L174.856 289.096C174.046 291.229 173.555 292.979 173.384 294.344C173.214 295.709 173.32 296.776 173.704 297.544C174.088 298.312 174.728 298.867 175.624 299.208C176.52 299.507 177.63 299.677 178.952 299.72V301C177.587 300.915 176.264 300.872 174.984 300.872C173.704 300.829 172.424 300.808 171.144 300.808C170.206 300.808 169.31 300.829 168.456 300.872C167.646 300.872 166.92 300.915 166.28 301V299.72C167.219 299.507 168.136 298.952 169.032 298.056C169.971 297.16 170.867 295.603 171.72 293.384L186.377 255.496C186.889 255.539 187.443 255.56 188.041 255.56C188.638 255.56 189.193 255.539 189.705 255.496ZM195.273 282.568V283.848H176.2L176.84 282.568H195.273ZM220.442 313.032V311.752C222.191 311.667 223.685 311.197 224.922 310.344C226.202 309.491 227.162 308.04 227.802 305.992C228.442 303.944 228.762 301.149 228.762 297.608V262.472C228.762 260.893 228.634 259.741 228.378 259.016C228.165 258.248 227.695 257.736 226.97 257.48C226.245 257.181 225.199 257.011 223.834 256.968V255.688C224.815 255.731 226.117 255.773 227.738 255.816C229.402 255.859 231.13 255.88 232.922 255.88C234.714 255.88 236.463 255.859 238.17 255.816C239.919 255.773 241.349 255.731 242.458 255.688V256.968C241.05 257.011 239.983 257.181 239.258 257.48C238.575 257.736 238.106 258.248 237.85 259.016C237.637 259.741 237.53 260.893 237.53 262.472V285.896C237.53 287.645 237.509 289.544 237.466 291.592C237.466 293.64 237.381 295.624 237.21 297.544C237.082 299.464 236.826 301.149 236.442 302.6C235.631 305.587 233.882 308.061 231.194 310.024C228.506 312.029 224.922 313.032 220.442 313.032ZM299.71 255.688V256.968C298.302 257.224 296.873 257.757 295.422 258.568C293.971 259.379 292.478 260.701 290.942 262.536L278.846 277.384L281.726 272.776L297.022 295.816C297.705 296.797 298.409 297.587 299.134 298.184C299.859 298.781 300.798 299.293 301.95 299.72V301C300.627 300.915 299.113 300.872 297.406 300.872C295.699 300.829 294.142 300.808 292.734 300.808C291.923 300.808 290.899 300.829 289.662 300.872C288.467 300.872 286.953 300.915 285.118 301V299.72C286.825 299.635 287.849 299.4 288.19 299.016C288.531 298.589 288.382 297.864 287.742 296.84L278.398 282.12C277.715 281.011 277.097 280.179 276.542 279.624C276.03 279.069 275.497 278.707 274.942 278.536C274.387 278.323 273.705 278.195 272.894 278.152V276.872C274.686 276.787 276.286 276.317 277.694 275.464C279.102 274.611 280.51 273.352 281.918 271.688L286.462 265.992C288.041 264.115 289.001 262.515 289.342 261.192C289.683 259.869 289.491 258.845 288.766 258.12C288.041 257.395 286.825 257.011 285.118 256.968V255.688C286.057 255.731 286.995 255.773 287.934 255.816C288.873 255.816 289.811 255.837 290.75 255.88C291.731 255.88 292.755 255.88 293.822 255.88C295.059 255.88 296.169 255.859 297.15 255.816C298.131 255.773 298.985 255.731 299.71 255.688ZM278.078 255.688V256.968C276.713 257.011 275.667 257.181 274.942 257.48C274.259 257.736 273.79 258.248 273.534 259.016C273.278 259.741 273.15 260.893 273.15 262.472V294.216C273.15 295.752 273.278 296.904 273.534 297.672C273.79 298.44 274.259 298.952 274.942 299.208C275.667 299.464 276.713 299.635 278.078 299.72V301C277.011 300.915 275.646 300.872 273.982 300.872C272.318 300.829 270.633 300.808 268.926 300.808C267.006 300.808 265.214 300.829 263.55 300.872C261.886 300.872 260.521 300.915 259.454 301V299.72C260.862 299.635 261.907 299.464 262.59 299.208C263.315 298.952 263.785 298.44 263.998 297.672C264.254 296.904 264.382 295.752 264.382 294.216V262.472C264.382 260.893 264.254 259.741 263.998 259.016C263.785 258.248 263.315 257.736 262.59 257.48C261.907 257.181 260.862 257.011 259.454 256.968V255.688C260.521 255.731 261.886 255.773 263.55 255.816C265.214 255.859 267.006 255.88 268.926 255.88C270.633 255.88 272.318 255.859 273.982 255.816C275.646 255.773 277.011 255.731 278.078 255.688ZM337.042 255.496L352.594 295.624C353.234 297.16 353.917 298.227 354.642 298.824C355.41 299.379 356.114 299.677 356.754 299.72V301C355.645 300.915 354.301 300.872 352.722 300.872C351.186 300.829 349.607 300.808 347.986 300.808C346.109 300.808 344.359 300.829 342.738 300.872C341.117 300.872 339.794 300.915 338.77 301V299.72C340.946 299.635 342.333 299.272 342.93 298.632C343.527 297.949 343.399 296.52 342.546 294.344L331.282 263.944L332.434 262.536L322.194 289.096C321.383 291.229 320.893 292.979 320.722 294.344C320.551 295.709 320.658 296.776 321.042 297.544C321.426 298.312 322.066 298.867 322.962 299.208C323.858 299.507 324.967 299.677 326.29 299.72V301C324.925 300.915 323.602 300.872 322.322 300.872C321.042 300.829 319.762 300.808 318.482 300.808C317.543 300.808 316.647 300.829 315.794 300.872C314.983 300.872 314.258 300.915 313.618 301V299.72C314.557 299.507 315.474 298.952 316.37 298.056C317.309 297.16 318.205 295.603 319.058 293.384L333.714 255.496C334.226 255.539 334.781 255.56 335.378 255.56C335.975 255.56 336.53 255.539 337.042 255.496ZM342.61 282.568V283.848H323.538L324.178 282.568H342.61ZM423.746 255.688V256.968C422.38 257.011 421.335 257.181 420.61 257.48C419.884 257.736 419.394 258.248 419.138 259.016C418.924 259.741 418.818 260.893 418.818 262.472V294.216C418.818 295.752 418.946 296.904 419.202 297.672C419.458 298.44 419.927 298.952 420.61 299.208C421.335 299.464 422.38 299.635 423.746 299.72V301C422.636 300.915 421.228 300.872 419.522 300.872C417.815 300.829 416.087 300.808 414.338 300.808C412.418 300.808 410.604 300.829 408.898 300.872C407.234 300.872 405.89 300.915 404.866 301V299.72C406.316 299.635 407.404 299.464 408.13 299.208C408.898 298.952 409.41 298.44 409.666 297.672C409.922 296.904 410.05 295.752 410.05 294.216V259.4L410.498 259.464L394.626 301.192H393.602L376.706 259.784V291.528C376.706 293.576 376.834 295.176 377.09 296.328C377.346 297.437 377.9 298.248 378.754 298.76C379.65 299.229 380.994 299.549 382.786 299.72V301C381.975 300.915 380.93 300.872 379.65 300.872C378.37 300.829 377.154 300.808 376.002 300.808C374.978 300.808 373.932 300.829 372.866 300.872C371.842 300.872 370.988 300.915 370.306 301V299.72C371.714 299.549 372.759 299.229 373.442 298.76C374.167 298.291 374.636 297.523 374.85 296.456C375.106 295.389 375.234 293.917 375.234 292.04V262.472C375.234 260.893 375.106 259.741 374.85 259.016C374.636 258.248 374.167 257.736 373.442 257.48C372.759 257.181 371.714 257.011 370.306 256.968V255.688C370.988 255.731 371.842 255.773 372.866 255.816C373.932 255.859 374.978 255.88 376.002 255.88C377.58 255.88 379.116 255.859 380.61 255.816C382.103 255.773 383.426 255.731 384.578 255.688L398.338 290.056L396.93 291.208L410.306 255.88C410.946 255.88 411.607 255.88 412.29 255.88C413.015 255.88 413.698 255.88 414.338 255.88C416.087 255.88 417.815 255.859 419.522 255.816C421.228 255.773 422.636 255.731 423.746 255.688ZM461.517 255.496L477.069 295.624C477.709 297.16 478.392 298.227 479.117 298.824C479.885 299.379 480.589 299.677 481.229 299.72V301C480.12 300.915 478.776 300.872 477.197 300.872C475.661 300.829 474.082 300.808 472.461 300.808C470.584 300.808 468.834 300.829 467.213 300.872C465.592 300.872 464.269 300.915 463.245 301V299.72C465.421 299.635 466.808 299.272 467.405 298.632C468.002 297.949 467.874 296.52 467.021 294.344L455.757 263.944L456.909 262.536L446.669 289.096C445.858 291.229 445.368 292.979 445.197 294.344C445.026 295.709 445.133 296.776 445.517 297.544C445.901 298.312 446.541 298.867 447.437 299.208C448.333 299.507 449.442 299.677 450.765 299.72V301C449.4 300.915 448.077 300.872 446.797 300.872C445.517 300.829 444.237 300.808 442.957 300.808C442.018 300.808 441.122 300.829 440.269 300.872C439.458 300.872 438.733 300.915 438.093 301V299.72C439.032 299.507 439.949 298.952 440.845 298.056C441.784 297.16 442.68 295.603 443.533 293.384L458.189 255.496C458.701 255.539 459.256 255.56 459.853 255.56C460.45 255.56 461.005 255.539 461.517 255.496ZM467.085 282.568V283.848H448.013L448.653 282.568H467.085ZM513.597 255.688V256.968C512.146 257.011 511.037 257.181 510.269 257.48C509.543 257.736 509.053 258.248 508.797 259.016C508.541 259.741 508.413 260.893 508.413 262.472V294.728C508.413 296.093 508.519 297.139 508.733 297.864C508.989 298.547 509.437 298.995 510.077 299.208C510.717 299.421 511.634 299.528 512.829 299.528H516.477C518.141 299.528 519.591 299.229 520.829 298.632C522.109 298.035 523.218 297.16 524.157 296.008C525.095 294.856 525.863 293.448 526.461 291.784C527.058 290.077 527.485 288.157 527.741 286.024H529.213C529.085 287.432 529.021 289.267 529.021 291.528C529.021 292.467 529.042 293.811 529.085 295.56C529.17 297.309 529.298 299.123 529.469 301C527.293 300.915 524.839 300.872 522.109 300.872C519.378 300.829 516.946 300.808 514.813 300.808C513.789 300.808 512.487 300.808 510.909 300.808C509.33 300.808 507.602 300.829 505.725 300.872C503.89 300.872 502.013 300.893 500.093 300.936C498.215 300.936 496.423 300.957 494.717 301V299.72C496.125 299.635 497.17 299.464 497.853 299.208C498.578 298.952 499.047 298.44 499.261 297.672C499.517 296.904 499.645 295.752 499.645 294.216V262.472C499.645 260.893 499.517 259.741 499.261 259.016C499.047 258.248 498.578 257.736 497.853 257.48C497.17 257.181 496.125 257.011 494.717 256.968V255.688C495.783 255.731 497.149 255.773 498.813 255.816C500.477 255.859 502.269 255.88 504.189 255.88C505.938 255.88 507.666 255.859 509.373 255.816C511.079 255.773 512.487 255.731 513.597 255.688Z" fill="#A47551"/>
<path d="M87.64 354.68C87.5333 355.693 87.4533 356.68 87.4 357.64C87.3733 358.573 87.36 359.293 87.36 359.8C87.36 360.44 87.3733 361.04 87.4 361.6C87.4267 362.16 87.4533 362.653 87.48 363.08H86.56C86.3733 361.213 86.12 359.747 85.8 358.68C85.48 357.587 84.92 356.8 84.12 356.32C83.32 355.84 82.08 355.6 80.4 355.6H77.88C76.9733 355.6 76.28 355.68 75.8 355.84C75.3467 355.973 75.04 356.28 74.88 356.76C74.72 357.213 74.64 357.933 74.64 358.92V378.76C74.64 379.72 74.7333 380.44 74.92 380.92C75.1333 381.4 75.5333 381.72 76.12 381.88C76.7067 382.04 77.56 382.147 78.68 382.2V383C77.9867 382.947 77.1067 382.92 76.04 382.92C74.9733 382.893 73.8933 382.88 72.8 382.88C71.76 382.88 70.7867 382.893 69.88 382.92C68.9733 382.92 68.24 382.947 67.68 383V382.2C68.5867 382.147 69.2667 382.04 69.72 381.88C70.2 381.72 70.52 381.4 70.68 380.92C70.84 380.44 70.92 379.72 70.92 378.76V358.92C70.92 357.933 70.84 357.213 70.68 356.76C70.52 356.28 70.2 355.96 69.72 355.8C69.2667 355.613 68.5867 355.507 67.68 355.48V354.68C68.6667 354.707 69.7067 354.733 70.8 354.76C71.8933 354.76 72.9733 354.773 74.04 354.8C75.1067 354.8 76.0933 354.8 77 354.8C77.9333 354.8 78.6933 354.8 79.28 354.8C80.5067 354.8 81.8933 354.8 83.44 354.8C85.0133 354.773 86.4133 354.733 87.64 354.68ZM81.44 368.76C81.44 368.76 81.44 368.893 81.44 369.16C81.44 369.427 81.44 369.56 81.44 369.56H73.44C73.44 369.56 73.44 369.427 73.44 369.16C73.44 368.893 73.44 368.76 73.44 368.76H81.44ZM82.2 363.48C82.0933 365 82.04 366.16 82.04 366.96C82.0667 367.76 82.08 368.493 82.08 369.16C82.08 369.827 82.0933 370.56 82.12 371.36C82.1467 372.16 82.2133 373.32 82.32 374.84H81.4C81.2933 373.987 81.16 373.16 81 372.36C80.8667 371.533 80.5467 370.867 80.04 370.36C79.56 369.827 78.7333 369.56 77.56 369.56V368.76C78.44 368.76 79.1067 368.587 79.56 368.24C80.04 367.867 80.3867 367.4 80.6 366.84C80.8133 366.28 80.96 365.707 81.04 365.12C81.12 364.507 81.2 363.96 81.28 363.48H82.2ZM150.973 354.68V355.48C150.067 355.507 149.373 355.64 148.893 355.88C148.44 356.12 148.133 356.507 147.973 357.04C147.813 357.573 147.733 358.333 147.733 359.32V371.36C147.733 373.227 147.613 374.853 147.373 376.24C147.133 377.627 146.707 378.827 146.093 379.84C145.427 380.96 144.453 381.867 143.173 382.56C141.893 383.227 140.427 383.56 138.773 383.56C137.493 383.56 136.267 383.4 135.093 383.08C133.947 382.787 132.933 382.227 132.053 381.4C131.28 380.653 130.667 379.867 130.213 379.04C129.787 378.213 129.493 377.2 129.333 376C129.173 374.8 129.093 373.293 129.093 371.48V358.92C129.093 357.933 129.013 357.213 128.853 356.76C128.693 356.28 128.373 355.96 127.893 355.8C127.44 355.613 126.76 355.507 125.853 355.48V354.68C126.413 354.707 127.147 354.733 128.053 354.76C128.96 354.787 129.933 354.8 130.973 354.8C131.907 354.8 132.827 354.787 133.733 354.76C134.667 354.733 135.44 354.707 136.053 354.68V355.48C135.147 355.507 134.453 355.613 133.973 355.8C133.52 355.96 133.213 356.28 133.053 356.76C132.893 357.213 132.813 357.933 132.813 358.92V372.16C132.813 373.52 132.88 374.813 133.013 376.04C133.147 377.24 133.413 378.307 133.813 379.24C134.24 380.147 134.88 380.867 135.733 381.4C136.587 381.907 137.72 382.16 139.133 382.16C141.16 382.16 142.72 381.72 143.813 380.84C144.933 379.933 145.707 378.693 146.133 377.12C146.587 375.547 146.813 373.773 146.813 371.8V359.32C146.813 358.333 146.693 357.573 146.453 357.04C146.24 356.507 145.867 356.12 145.333 355.88C144.8 355.64 144.08 355.507 143.173 355.48V354.68C143.653 354.707 144.28 354.733 145.053 354.76C145.853 354.787 146.587 354.8 147.253 354.8C147.947 354.8 148.627 354.787 149.293 354.76C149.987 354.733 150.547 354.707 150.973 354.68ZM189.719 354.68C190.279 354.707 191.012 354.733 191.919 354.76C192.826 354.787 193.719 354.8 194.599 354.8C195.852 354.8 197.052 354.787 198.199 354.76C199.346 354.733 200.159 354.72 200.639 354.72C202.799 354.72 204.586 355.027 205.999 355.64C207.439 356.253 208.506 357.093 209.199 358.16C209.919 359.2 210.279 360.373 210.279 361.68C210.279 362.48 210.119 363.333 209.799 364.24C209.479 365.147 208.919 366 208.119 366.8C207.346 367.6 206.279 368.267 204.919 368.8C203.559 369.307 201.839 369.56 199.759 369.56H195.919V368.76H199.359C201.252 368.76 202.692 368.467 203.679 367.88C204.692 367.267 205.372 366.467 205.719 365.48C206.092 364.467 206.279 363.347 206.279 362.12C206.279 360.013 205.772 358.387 204.759 357.24C203.772 356.067 202.066 355.48 199.639 355.48C198.412 355.48 197.612 355.707 197.239 356.16C196.866 356.613 196.679 357.533 196.679 358.92V378.76C196.679 379.72 196.759 380.44 196.919 380.92C197.079 381.4 197.386 381.72 197.839 381.88C198.319 382.04 199.012 382.147 199.919 382.2V383C199.306 382.947 198.532 382.92 197.599 382.92C196.692 382.893 195.772 382.88 194.839 382.88C193.799 382.88 192.826 382.893 191.919 382.92C191.012 382.92 190.279 382.947 189.719 383V382.2C190.626 382.147 191.306 382.04 191.759 381.88C192.239 381.72 192.559 381.4 192.719 380.92C192.879 380.44 192.959 379.72 192.959 378.76V358.92C192.959 357.933 192.879 357.213 192.719 356.76C192.559 356.28 192.239 355.96 191.759 355.8C191.306 355.613 190.626 355.507 189.719 355.48V354.68ZM196.079 368.88C197.519 368.933 198.652 369 199.479 369.08C200.306 369.133 200.972 369.187 201.479 369.24C202.012 369.293 202.519 369.36 202.999 369.44C204.786 369.733 206.066 370.28 206.839 371.08C207.639 371.853 208.226 373.067 208.599 374.72L209.599 378.8C209.866 379.973 210.132 380.827 210.399 381.36C210.692 381.867 211.132 382.107 211.719 382.08C212.172 382.053 212.546 381.907 212.839 381.64C213.159 381.373 213.492 381.013 213.839 380.56L214.439 381C213.879 381.827 213.292 382.467 212.679 382.92C212.092 383.347 211.252 383.56 210.159 383.56C209.172 383.56 208.306 383.267 207.559 382.68C206.812 382.093 206.252 380.947 205.879 379.24L204.999 375.24C204.759 374.093 204.479 373.107 204.159 372.28C203.866 371.427 203.439 370.76 202.879 370.28C202.346 369.8 201.546 369.56 200.479 369.56H196.159L196.079 368.88ZM276.777 354.68V355.48C275.87 355.507 275.177 355.64 274.697 355.88C274.243 356.12 273.937 356.507 273.777 357.04C273.617 357.573 273.537 358.333 273.537 359.32V383.2C273.377 383.2 273.217 383.2 273.057 383.2C272.923 383.2 272.777 383.2 272.617 383.2L255.817 357.24V378.36C255.817 379.32 255.897 380.08 256.057 380.64C256.243 381.173 256.59 381.56 257.097 381.8C257.63 382.013 258.417 382.147 259.457 382.2V383C258.977 382.947 258.35 382.92 257.577 382.92C256.803 382.893 256.07 382.88 255.377 382.88C254.71 382.88 254.03 382.893 253.337 382.92C252.67 382.92 252.11 382.947 251.657 383V382.2C252.563 382.147 253.243 382.013 253.697 381.8C254.177 381.56 254.497 381.173 254.657 380.64C254.817 380.08 254.897 379.32 254.897 378.36V358.92C254.897 357.933 254.817 357.213 254.657 356.76C254.497 356.28 254.177 355.96 253.697 355.8C253.243 355.613 252.563 355.507 251.657 355.48V354.68C252.11 354.707 252.67 354.733 253.337 354.76C254.03 354.787 254.71 354.8 255.377 354.8C255.963 354.8 256.523 354.787 257.057 354.76C257.59 354.733 258.07 354.707 258.497 354.68L272.617 376.44V359.32C272.617 358.333 272.523 357.573 272.337 357.04C272.177 356.507 271.83 356.12 271.297 355.88C270.79 355.64 270.017 355.507 268.977 355.48V354.68C269.457 354.707 270.083 354.733 270.857 354.76C271.657 354.787 272.39 354.8 273.057 354.8C273.75 354.8 274.43 354.787 275.097 354.76C275.79 354.733 276.35 354.707 276.777 354.68ZM326.099 354.68V355.48C325.192 355.507 324.499 355.613 324.019 355.8C323.565 355.96 323.259 356.28 323.099 356.76C322.939 357.213 322.859 357.933 322.859 358.92V378.76C322.859 379.72 322.939 380.44 323.099 380.92C323.259 381.4 323.565 381.72 324.019 381.88C324.499 382.04 325.192 382.147 326.099 382.2V383C325.485 382.947 324.712 382.92 323.779 382.92C322.872 382.893 321.952 382.88 321.019 382.88C319.979 382.88 319.005 382.893 318.099 382.92C317.192 382.92 316.459 382.947 315.899 383V382.2C316.805 382.147 317.485 382.04 317.939 381.88C318.419 381.72 318.739 381.4 318.899 380.92C319.059 380.44 319.139 379.72 319.139 378.76V358.92C319.139 357.933 319.059 357.213 318.899 356.76C318.739 356.28 318.419 355.96 317.939 355.8C317.485 355.613 316.805 355.507 315.899 355.48V354.68C316.459 354.707 317.192 354.733 318.099 354.76C319.005 354.787 319.979 354.8 321.019 354.8C321.952 354.8 322.872 354.787 323.779 354.76C324.712 354.733 325.485 354.707 326.099 354.68ZM387.453 354.68C387.347 355.693 387.267 356.68 387.213 357.64C387.187 358.573 387.173 359.293 387.173 359.8C387.173 360.44 387.187 361.04 387.213 361.6C387.24 362.16 387.267 362.653 387.293 363.08H386.373C386.187 361.213 385.933 359.747 385.613 358.68C385.293 357.587 384.733 356.8 383.933 356.32C383.133 355.84 381.893 355.6 380.213 355.6H378.053V378.36C378.053 379.427 378.147 380.227 378.333 380.76C378.547 381.293 378.947 381.653 379.533 381.84C380.12 382.027 380.973 382.147 382.093 382.2V383C381.4 382.947 380.52 382.92 379.453 382.92C378.387 382.893 377.307 382.88 376.213 382.88C375.013 382.88 373.88 382.893 372.813 382.92C371.773 382.92 370.933 382.947 370.293 383V382.2C371.413 382.147 372.267 382.027 372.853 381.84C373.44 381.653 373.827 381.293 374.013 380.76C374.227 380.227 374.333 379.427 374.333 378.36V355.6H372.173C370.52 355.6 369.28 355.84 368.453 356.32C367.653 356.8 367.093 357.587 366.773 358.68C366.453 359.747 366.2 361.213 366.013 363.08H365.093C365.147 362.653 365.173 362.16 365.173 361.6C365.2 361.04 365.213 360.44 365.213 359.8C365.213 359.293 365.187 358.573 365.133 357.64C365.107 356.68 365.04 355.693 364.933 354.68C366.053 354.707 367.267 354.733 368.573 354.76C369.907 354.787 371.24 354.8 372.573 354.8C373.907 354.8 375.12 354.8 376.213 354.8C377.307 354.8 378.507 354.8 379.813 354.8C381.147 354.8 382.48 354.787 383.813 354.76C385.147 354.733 386.36 354.707 387.453 354.68ZM450.817 354.68V355.48C449.911 355.507 449.217 355.64 448.737 355.88C448.284 356.12 447.977 356.507 447.817 357.04C447.657 357.573 447.577 358.333 447.577 359.32V371.36C447.577 373.227 447.457 374.853 447.217 376.24C446.977 377.627 446.551 378.827 445.937 379.84C445.271 380.96 444.297 381.867 443.017 382.56C441.737 383.227 440.271 383.56 438.617 383.56C437.337 383.56 436.111 383.4 434.937 383.08C433.791 382.787 432.777 382.227 431.897 381.4C431.124 380.653 430.511 379.867 430.057 379.04C429.631 378.213 429.337 377.2 429.177 376C429.017 374.8 428.937 373.293 428.937 371.48V358.92C428.937 357.933 428.857 357.213 428.697 356.76C428.537 356.28 428.217 355.96 427.737 355.8C427.284 355.613 426.604 355.507 425.697 355.48V354.68C426.257 354.707 426.991 354.733 427.897 354.76C428.804 354.787 429.777 354.8 430.817 354.8C431.751 354.8 432.671 354.787 433.577 354.76C434.511 354.733 435.284 354.707 435.897 354.68V355.48C434.991 355.507 434.297 355.613 433.817 355.8C433.364 355.96 433.057 356.28 432.897 356.76C432.737 357.213 432.657 357.933 432.657 358.92V372.16C432.657 373.52 432.724 374.813 432.857 376.04C432.991 377.24 433.257 378.307 433.657 379.24C434.084 380.147 434.724 380.867 435.577 381.4C436.431 381.907 437.564 382.16 438.977 382.16C441.004 382.16 442.564 381.72 443.657 380.84C444.777 379.933 445.551 378.693 445.977 377.12C446.431 375.547 446.657 373.773 446.657 371.8V359.32C446.657 358.333 446.537 357.573 446.297 357.04C446.084 356.507 445.711 356.12 445.177 355.88C444.644 355.64 443.924 355.507 443.017 355.48V354.68C443.497 354.707 444.124 354.733 444.897 354.76C445.697 354.787 446.431 354.8 447.097 354.8C447.791 354.8 448.471 354.787 449.137 354.76C449.831 354.733 450.391 354.707 450.817 354.68ZM489.563 354.68C490.123 354.707 490.856 354.733 491.763 354.76C492.669 354.787 493.563 354.8 494.443 354.8C495.696 354.8 496.896 354.787 498.043 354.76C499.189 354.733 500.003 354.72 500.483 354.72C502.643 354.72 504.429 355.027 505.843 355.64C507.283 356.253 508.349 357.093 509.043 358.16C509.763 359.2 510.123 360.373 510.123 361.68C510.123 362.48 509.963 363.333 509.643 364.24C509.323 365.147 508.763 366 507.963 366.8C507.189 367.6 506.123 368.267 504.763 368.8C503.403 369.307 501.683 369.56 499.603 369.56H495.763V368.76H499.203C501.096 368.76 502.536 368.467 503.523 367.88C504.536 367.267 505.216 366.467 505.563 365.48C505.936 364.467 506.123 363.347 506.123 362.12C506.123 360.013 505.616 358.387 504.603 357.24C503.616 356.067 501.909 355.48 499.483 355.48C498.256 355.48 497.456 355.707 497.083 356.16C496.709 356.613 496.523 357.533 496.523 358.92V378.76C496.523 379.72 496.603 380.44 496.763 380.92C496.923 381.4 497.229 381.72 497.683 381.88C498.163 382.04 498.856 382.147 499.763 382.2V383C499.149 382.947 498.376 382.92 497.443 382.92C496.536 382.893 495.616 382.88 494.683 382.88C493.643 382.88 492.669 382.893 491.763 382.92C490.856 382.92 490.123 382.947 489.563 383V382.2C490.469 382.147 491.149 382.04 491.603 381.88C492.083 381.72 492.403 381.4 492.563 380.92C492.723 380.44 492.803 379.72 492.803 378.76V358.92C492.803 357.933 492.723 357.213 492.563 356.76C492.403 356.28 492.083 355.96 491.603 355.8C491.149 355.613 490.469 355.507 489.563 355.48V354.68ZM495.923 368.88C497.363 368.933 498.496 369 499.323 369.08C500.149 369.133 500.816 369.187 501.323 369.24C501.856 369.293 502.363 369.36 502.843 369.44C504.629 369.733 505.909 370.28 506.683 371.08C507.483 371.853 508.069 373.067 508.443 374.72L509.443 378.8C509.709 379.973 509.976 380.827 510.243 381.36C510.536 381.867 510.976 382.107 511.563 382.08C512.016 382.053 512.389 381.907 512.683 381.64C513.003 381.373 513.336 381.013 513.683 380.56L514.283 381C513.723 381.827 513.136 382.467 512.523 382.92C511.936 383.347 511.096 383.56 510.003 383.56C509.016 383.56 508.149 383.267 507.403 382.68C506.656 382.093 506.096 380.947 505.723 379.24L504.843 375.24C504.603 374.093 504.323 373.107 504.003 372.28C503.709 371.427 503.283 370.76 502.723 370.28C502.189 369.8 501.389 369.56 500.323 369.56H496.003L495.923 368.88ZM571.46 354.68C571.354 355.613 571.274 356.52 571.22 357.4C571.194 358.28 571.18 358.947 571.18 359.4C571.18 359.88 571.194 360.347 571.22 360.8C571.247 361.227 571.274 361.587 571.3 361.88H570.38C570.22 360.307 569.994 359.067 569.7 358.16C569.407 357.227 568.9 356.573 568.18 356.2C567.487 355.8 566.434 355.6 565.02 355.6H561.7C560.794 355.6 560.1 355.68 559.62 355.84C559.167 355.973 558.86 356.28 558.7 356.76C558.54 357.213 558.46 357.933 558.46 358.92V378.76C558.46 379.72 558.54 380.44 558.7 380.92C558.86 381.4 559.167 381.72 559.62 381.88C560.1 382.013 560.794 382.08 561.7 382.08H564.62C566.3 382.08 567.567 381.853 568.42 381.4C569.3 380.947 569.927 380.213 570.3 379.2C570.7 378.16 570.994 376.76 571.18 375H572.1C572.02 375.72 571.98 376.68 571.98 377.88C571.98 378.387 571.994 379.12 572.02 380.08C572.074 381.013 572.154 381.987 572.26 383C570.9 382.947 569.367 382.92 567.66 382.92C565.954 382.893 564.434 382.88 563.1 382.88C562.514 382.88 561.754 382.88 560.82 382.88C559.914 382.88 558.927 382.893 557.86 382.92C556.794 382.92 555.714 382.933 554.62 382.96C553.527 382.96 552.487 382.973 551.5 383V382.2C552.407 382.147 553.087 382.04 553.54 381.88C554.02 381.72 554.34 381.4 554.5 380.92C554.66 380.44 554.74 379.72 554.74 378.76V358.92C554.74 357.933 554.66 357.213 554.5 356.76C554.34 356.28 554.02 355.96 553.54 355.8C553.087 355.613 552.407 355.507 551.5 355.48V354.68C552.487 354.707 553.527 354.733 554.62 354.76C555.714 354.76 556.794 354.773 557.86 354.8C558.927 354.8 559.914 354.8 560.82 354.8C561.754 354.8 562.514 354.8 563.1 354.8C564.327 354.8 565.714 354.8 567.26 354.8C568.834 354.773 570.234 354.733 571.46 354.68ZM564.58 368.36C564.58 368.36 564.58 368.493 564.58 368.76C564.58 369.027 564.58 369.16 564.58 369.16H557.26C557.26 369.16 557.26 369.027 557.26 368.76C557.26 368.493 557.26 368.36 557.26 368.36H564.58ZM565.74 363.08C565.634 364.6 565.58 365.76 565.58 366.56C565.607 367.36 565.62 368.093 565.62 368.76C565.62 369.427 565.634 370.16 565.66 370.96C565.687 371.76 565.754 372.92 565.86 374.44H564.94C564.834 373.587 564.7 372.76 564.54 371.96C564.407 371.133 564.087 370.467 563.58 369.96C563.1 369.427 562.274 369.16 561.1 369.16V368.36C561.98 368.36 562.647 368.187 563.1 367.84C563.58 367.467 563.927 367 564.14 366.44C564.354 365.88 564.5 365.307 564.58 364.72C564.66 364.107 564.74 363.56 564.82 363.08H565.74Z" fill="white"/>
<path d="M227.672 439.784C229.144 439.784 230.275 439.411 231.064 438.664C231.875 437.917 232.28 437.011 232.28 435.944C232.28 434.877 231.885 433.971 231.096 433.224C230.328 432.456 229.379 431.795 228.248 431.24C227.139 430.685 226.019 430.109 224.888 429.512C223.779 428.915 222.829 428.125 222.04 427.144C221.272 426.141 220.888 424.979 220.888 423.656C220.888 421.757 221.571 420.328 222.936 419.368C224.301 418.387 225.923 417.896 227.8 417.896C230.211 417.896 232.28 418.301 234.008 419.112C234.157 419.432 234.232 420.275 234.232 421.64C234.232 422.984 234.189 423.997 234.104 424.68L233.112 424.616C233.027 423.123 232.504 421.885 231.544 420.904C230.605 419.901 229.325 419.4 227.704 419.4C226.552 419.4 225.603 419.699 224.856 420.296C224.131 420.872 223.768 421.683 223.768 422.728C223.768 423.965 224.525 425.043 226.04 425.96C226.701 426.365 227.437 426.771 228.248 427.176C229.059 427.581 229.869 428.019 230.68 428.488C231.491 428.936 232.227 429.437 232.888 429.992C234.403 431.229 235.16 432.808 235.16 434.728C235.16 436.627 234.499 438.216 233.176 439.496C231.853 440.755 230.104 441.384 227.928 441.384C225.752 441.384 223.491 440.947 221.144 440.072C221.037 439.752 220.888 438.963 220.696 437.704C220.504 436.424 220.365 435.347 220.28 434.472L221.752 434.248C222.605 437.939 224.579 439.784 227.672 439.784ZM245.427 441L241.971 441.096L241.715 439.816C242.739 439.731 243.347 439.645 243.539 439.56C243.752 439.453 243.859 439.176 243.859 438.728V430.6C243.859 429.533 243.325 429 242.259 429C242.003 429 241.8 429.011 241.651 429.032L241.363 428.104C242.749 427.763 243.635 427.517 244.019 427.368L245.971 426.6C246.248 426.6 246.419 426.632 246.483 426.696C246.547 426.739 246.579 426.877 246.579 427.112V438.728C246.579 439.112 246.675 439.379 246.867 439.528C247.059 439.656 247.528 439.752 248.275 439.816L248.563 441.096L245.427 441ZM245.235 422.824C244.701 422.824 244.253 422.664 243.891 422.344C243.549 422.003 243.379 421.565 243.379 421.032C243.379 420.499 243.56 420.04 243.923 419.656C244.285 419.272 244.733 419.08 245.267 419.08C245.821 419.08 246.269 419.24 246.611 419.56C246.973 419.88 247.155 420.317 247.155 420.872C247.155 421.405 246.963 421.864 246.579 422.248C246.216 422.632 245.768 422.824 245.235 422.824ZM255.314 429.192L254.834 429.224L254.546 428.296C256.039 427.933 257.138 427.571 257.842 427.208C258.546 426.845 258.94 426.643 259.026 426.6C259.303 426.6 259.463 426.621 259.506 426.664C259.591 426.749 259.655 427.432 259.698 428.712C260.722 428.093 261.618 427.635 262.386 427.336C263.175 427.016 264.028 426.856 264.946 426.856C267.911 426.856 269.394 428.445 269.394 431.624V438.728C269.394 439.112 269.49 439.379 269.682 439.528C269.874 439.656 270.343 439.752 271.09 439.816L271.378 441.096L268.242 441L264.786 441.096L264.53 439.816C265.554 439.731 266.162 439.645 266.354 439.56C266.567 439.453 266.674 439.176 266.674 438.728V432.712C266.674 431.347 266.407 430.397 265.874 429.864C265.34 429.331 264.498 429.064 263.346 429.064C262.194 429.064 260.999 429.363 259.762 429.96V438.728C259.762 439.112 259.858 439.379 260.05 439.528C260.242 439.656 260.711 439.752 261.458 439.816L261.746 441.096L258.61 441L255.154 441.096L254.898 439.816C255.922 439.731 256.53 439.645 256.722 439.56C256.935 439.453 257.042 439.176 257.042 438.728V431.24C257.042 430.472 256.903 429.939 256.626 429.64C256.348 429.341 255.911 429.192 255.314 429.192ZM287.126 429.832C286.764 429.469 286.262 429.107 285.622 428.744C284.982 428.381 284.246 428.2 283.414 428.2C282.582 428.2 281.814 428.659 281.11 429.576C280.406 430.472 280.054 431.741 280.054 433.384C280.054 435.027 280.481 436.445 281.334 437.64C282.188 438.813 283.457 439.4 285.142 439.4C286.486 439.4 287.596 438.963 288.47 438.088C288.513 438.045 288.566 438.024 288.63 438.024C288.694 438.024 288.748 438.045 288.79 438.088L289.43 438.824C287.852 440.531 286.017 441.384 283.926 441.384C281.857 441.384 280.204 440.723 278.966 439.4C277.75 438.077 277.142 436.413 277.142 434.408C277.142 431.933 277.825 430.056 279.19 428.776C280.577 427.496 282.305 426.856 284.374 426.856C285.27 426.856 286.177 426.984 287.094 427.24C288.033 427.496 288.737 427.816 289.206 428.2C289.228 428.243 289.238 428.285 289.238 428.328C289.238 428.627 288.908 429.256 288.246 430.216C288.161 430.301 288.044 430.344 287.894 430.344C287.766 430.344 287.51 430.173 287.126 429.832ZM307.331 433.224H298.051V433.64C298.051 435.197 298.488 436.552 299.363 437.704C300.237 438.835 301.4 439.4 302.851 439.4C304.301 439.4 305.496 438.931 306.435 437.992C306.499 437.928 306.552 437.896 306.595 437.896C306.637 437.896 306.691 437.928 306.755 437.992L307.459 438.792C305.859 440.52 304.003 441.384 301.891 441.384C299.8 441.384 298.147 440.723 296.931 439.4C295.736 438.077 295.139 436.317 295.139 434.12C295.139 431.901 295.821 430.141 297.187 428.84C298.552 427.517 300.109 426.856 301.859 426.856C303.608 426.856 304.984 427.389 305.987 428.456C306.989 429.501 307.491 430.973 307.491 432.872C307.491 433.107 307.437 433.224 307.331 433.224ZM304.291 431.72C304.291 429.373 303.384 428.2 301.571 428.2C300.611 428.2 299.832 428.541 299.235 429.224C298.637 429.885 298.275 430.717 298.147 431.72H304.291ZM332.554 441.096L328.49 441C328.404 441 326.954 441.032 324.138 441.096L323.882 439.688C325.226 439.56 326.047 439.443 326.346 439.336C326.644 439.208 326.794 438.909 326.794 438.44V422.824C326.794 422.248 326.634 421.843 326.314 421.608C326.015 421.352 325.588 421.224 325.034 421.224C324.479 421.224 324.127 421.235 323.978 421.256L323.69 420.328C324.564 420.328 325.674 420.083 327.018 419.592L329.162 418.824C329.439 418.824 329.61 418.856 329.674 418.92C329.759 418.963 329.802 419.101 329.802 419.336L329.834 438.44C329.834 438.888 329.983 439.187 330.282 439.336C330.58 439.485 331.242 439.603 332.266 439.688L332.554 441.096ZM344.805 432.232C343.247 432.232 341.829 431.645 340.549 430.472C339.269 429.277 338.629 427.752 338.629 425.896C338.629 424.04 339.247 422.408 340.485 421C341.743 419.571 343.482 418.856 345.701 418.856C347.919 418.856 349.658 419.539 350.917 420.904C352.175 422.248 352.805 424.136 352.805 426.568C352.805 429 351.962 431.624 350.277 434.44C348.591 437.235 346.405 439.56 343.717 441.416C343.567 441.373 343.397 441.235 343.205 441C343.034 440.765 343.002 440.595 343.109 440.488C344.687 439.037 345.989 437.437 347.013 435.688C348.037 433.939 348.613 432.381 348.741 431.016C348.442 431.315 347.919 431.592 347.173 431.848C346.426 432.104 345.637 432.232 344.805 432.232ZM349.093 429.288C349.541 428.691 349.765 427.56 349.765 425.896C349.765 424.211 349.359 422.856 348.549 421.832C347.738 420.787 346.703 420.264 345.445 420.264C344.186 420.264 343.237 420.755 342.597 421.736C341.978 422.717 341.669 423.944 341.669 425.416C341.669 426.867 342.042 428.104 342.789 429.128C343.535 430.131 344.538 430.632 345.797 430.632C346.458 430.632 347.098 430.515 347.717 430.28C348.335 430.024 348.794 429.693 349.093 429.288ZM366.871 428.008C368.429 428.008 369.847 428.605 371.127 429.8C372.407 430.973 373.047 432.488 373.047 434.344C373.047 436.2 372.418 437.843 371.159 439.272C369.922 440.68 368.194 441.384 365.975 441.384C363.757 441.384 362.018 440.712 360.759 439.368C359.501 438.003 358.871 436.115 358.871 433.704C358.871 431.293 359.842 428.659 361.783 425.8C363.746 422.92 366.125 420.595 368.919 418.824C369.111 418.888 369.335 419.037 369.591 419.272C369.869 419.485 369.954 419.645 369.847 419.752C368.055 421.352 366.477 423.027 365.111 424.776C363.746 426.525 362.978 428.008 362.807 429.224C363.085 428.947 363.618 428.68 364.407 428.424C365.218 428.147 366.039 428.008 366.871 428.008ZM362.583 430.952C362.135 431.549 361.911 432.691 361.911 434.376C361.911 436.04 362.306 437.363 363.095 438.344C363.885 439.304 364.919 439.784 366.199 439.784C367.501 439.784 368.461 439.325 369.079 438.408C369.698 437.469 370.007 436.275 370.007 434.824C370.007 433.373 369.634 432.115 368.887 431.048C368.141 429.96 367.138 429.416 365.879 429.416C365.261 429.416 364.631 429.565 363.991 429.864C363.351 430.163 362.882 430.525 362.583 430.952ZM379.274 430.28C379.274 428.339 379.594 426.515 380.234 424.808C380.874 423.08 381.834 421.651 383.114 420.52C384.415 419.389 385.898 418.824 387.562 418.824C390.036 418.824 392.063 419.891 393.642 422.024C395.22 424.136 396.01 426.771 396.01 429.928C396.01 433.064 395.242 435.763 393.706 438.024C392.17 440.264 390.154 441.384 387.658 441.384C385.162 441.384 383.135 440.36 381.578 438.312C380.042 436.243 379.274 433.565 379.274 430.28ZM388.234 439.784C389.023 439.784 389.706 439.539 390.282 439.048C390.879 438.557 391.338 437.885 391.658 437.032C392.319 435.325 392.65 433.288 392.65 430.92C392.65 428.253 392.298 425.896 391.594 423.848C391.231 422.76 390.676 421.907 389.93 421.288C389.183 420.648 388.298 420.328 387.274 420.328C386.25 420.328 385.386 420.776 384.682 421.672C383.316 423.379 382.634 425.843 382.634 429.064C382.634 436.211 384.5 439.784 388.234 439.784ZM406.178 418.504C405.986 419.251 405.741 420.061 405.442 420.936C405.144 421.811 404.813 422.685 404.45 423.56C404.109 424.413 403.768 425.224 403.426 425.992H401.346C401.496 425.395 401.645 424.755 401.794 424.072C401.965 423.389 402.114 422.707 402.242 422.024C402.392 421.32 402.52 420.637 402.626 419.976C402.754 419.315 402.861 418.707 402.946 418.152H405.954L406.178 418.504ZM416.668 439.944C418.418 439.944 419.292 439.24 419.292 437.832C419.292 437.235 419.026 436.744 418.492 436.36C417.98 435.955 417.351 435.624 416.604 435.368C415.879 435.091 415.143 434.792 414.396 434.472C413.65 434.152 413.01 433.672 412.476 433.032C411.964 432.392 411.708 431.539 411.708 430.472C411.708 429.384 412.178 428.509 413.116 427.848C414.076 427.165 415.218 426.824 416.54 426.824C417.863 426.824 419.303 427.069 420.86 427.56C421.074 427.688 421.18 428.157 421.18 428.968C421.18 429.779 421.116 430.504 420.988 431.144L419.708 431.016C419.602 430.163 419.271 429.48 418.716 428.968C418.162 428.435 417.479 428.168 416.668 428.168C415.879 428.168 415.25 428.339 414.78 428.68C414.332 429.021 414.108 429.469 414.108 430.024C414.108 430.579 414.364 431.048 414.876 431.432C415.41 431.816 416.05 432.136 416.796 432.392C417.543 432.627 418.29 432.893 419.036 433.192C419.804 433.469 420.444 433.939 420.956 434.6C421.49 435.261 421.756 436.157 421.756 437.288C421.756 438.419 421.287 439.389 420.348 440.2C419.431 440.989 418.247 441.384 416.796 441.384C415.346 441.384 413.756 441.064 412.028 440.424C411.922 440.36 411.826 439.869 411.74 438.952C411.655 438.035 411.612 437.288 411.612 436.712V436.552L413.116 436.424C413.458 438.771 414.642 439.944 416.668 439.944Z" fill="white"/>
<line x1="206.5" y1="432.5" x2="1.5" y2="432.5" stroke="white" stroke-width="3" stroke-linecap="round"/>
<line x1="639.5" y1="432.5" x2="434.5" y2="432.5" stroke="white" stroke-width="3" stroke-linecap="round"/>
<path d="M372.28 119.44C369.72 119.52 367.8 119.84 366.52 120.4C365.24 120.88 364.36 121.84 363.88 123.28C363.48 124.64 363.28 126.8 363.28 129.76V189.28C363.28 192.16 363.48 194.32 363.88 195.76C364.36 197.2 365.24 198.16 366.52 198.64C367.8 199.12 369.72 199.44 372.28 199.6V202C370.04 201.84 367.2 201.76 363.76 201.76C360.4 201.68 356.96 201.64 353.44 201.64C349.6 201.64 346 201.68 342.64 201.76C339.28 201.76 336.559 201.84 334.479 202V199.6C337.199 199.44 339.24 199.12 340.6 198.64C342.04 198.16 342.999 197.2 343.479 195.76C343.959 194.32 344.2 192.16 344.2 189.28V126.555L315.28 202.12H313.36L280.96 124.84V182.32C280.96 186.72 281.2 190.121 281.68 192.521C282.16 194.84 283.2 196.52 284.8 197.56C286.48 198.52 289.08 199.2 292.6 199.6V202C291.08 201.84 289.079 201.76 286.6 201.76C284.12 201.68 281.8 201.64 279.64 201.64C277.8 201.64 275.92 201.68 274 201.76C272.08 201.76 270.48 201.84 269.2 202V199.6C271.76 199.2 273.68 198.52 274.96 197.56C276.24 196.6 277.08 195.04 277.479 192.88C277.959 190.64 278.2 187.6 278.2 183.76V129.76C278.2 126.8 277.959 124.64 277.479 123.28C277.079 121.84 276.2 120.88 274.84 120.4C273.56 119.84 271.68 119.52 269.2 119.44V117.04C270.48 117.12 272.08 117.2 274 117.28C275.92 117.36 277.8 117.4 279.64 117.4C283.08 117.4 286.44 117.36 289.72 117.28C293.08 117.2 296.04 117.12 298.6 117.04L322.785 175.432L344.92 117.4H353.44C356.96 117.4 360.4 117.36 363.76 117.28C367.2 117.2 370.04 117.12 372.28 117.04V119.44ZM347 119V200H350V119H347ZM314 197L315.5 193L286 124H283L314 197Z" fill="white"/>
<path d="M320.8 40.9995C322.346 40.9995 323.6 42.254 323.6 43.8003C323.599 44.9181 322.942 45.8789 321.995 46.3276H322.012V46.3286C322.012 46.3294 322.012 46.3309 322.013 46.3325C322.014 46.3368 322.015 46.3445 322.017 46.354C322.021 46.3738 322.028 46.405 322.036 46.4458C322.053 46.5281 322.078 46.6523 322.113 46.812C322.184 47.1321 322.292 47.5961 322.439 48.1636C322.735 49.3021 323.185 50.8439 323.804 52.4653C324.424 54.0921 325.2 55.7624 326.138 57.1802C327.075 58.5982 328.135 59.7061 329.322 60.313C331.8 61.5791 334.335 60.9858 336.36 59.937C337.2 59.5022 337.92 59.0011 338.475 58.5698C338.475 58.5565 338.476 58.5451 338.477 58.5356C338.477 58.5265 338.478 58.5187 338.479 58.5132C338.479 58.5104 338.478 58.5071 338.479 58.5054L338.479 58.5034L338.479 58.5024L338.562 58.5015C338.566 58.4983 338.569 58.4948 338.573 58.4917C338.215 58.0215 338 57.4368 338 56.8003C338 55.2541 339.254 54.0006 340.8 54.0005C342.346 54.0005 343.6 55.254 343.6 56.8003C343.599 58.3465 342.346 59.6001 340.8 59.6001C340.762 59.6001 340.725 59.5957 340.688 59.5942C340.638 59.6403 340.582 59.6898 340.522 59.7437C340.553 60.5051 340.644 61.5308 340.877 62.6177C341.361 64.8725 342.402 67.1341 344.496 68.1187C346.643 69.128 349.227 68.7592 351.417 68.0347C352.238 67.763 352.975 67.449 353.574 67.1655C353.463 66.8643 353.4 66.5395 353.4 66.1997C353.401 64.6536 354.654 63.4 356.2 63.3999C357.746 63.4001 359 64.6536 359 66.1997C359 67.746 357.746 68.9993 356.2 68.9995C355.772 68.9995 355.368 68.8998 355.005 68.728L343.398 86.9429L343.345 86.9165C341.236 89.474 332.034 91.3999 321 91.3999L319.827 91.3921C309.318 91.2613 300.687 89.3828 298.654 86.9165L298.602 86.9429L287.078 68.8599C287.021 68.8289 286.965 68.7991 286.91 68.769C286.57 68.9164 286.195 68.9995 285.8 68.9995C284.253 68.9994 283 67.746 283 66.1997C283 64.6536 284.254 63.4 285.8 63.3999C287.346 63.3999 288.599 64.6535 288.6 66.1997C288.6 66.5645 288.527 66.9123 288.4 67.2319L288.545 67.4585C289.097 67.7382 289.737 68.0368 290.431 68.3032C292.662 69.1606 295.128 69.5973 296.968 68.6362C298.826 67.6653 299.882 65.2832 300.438 62.855C300.707 61.6804 300.842 60.5704 300.91 59.7524C300.915 59.6981 300.917 59.6449 300.921 59.5933C300.881 59.595 300.84 59.6001 300.8 59.6001C299.254 59.6 298 58.3464 298 56.8003C298 55.2541 299.254 54.0006 300.8 54.0005C302.346 54.0005 303.6 55.254 303.6 56.8003C303.6 57.2077 303.51 57.5937 303.354 57.9429C303.37 57.9568 303.387 57.9716 303.404 57.9858C303.986 58.4625 304.817 59.067 305.812 59.5825C307.838 60.6312 310.372 61.2244 312.85 59.9585C314.037 59.3517 315.096 58.2436 316.034 56.8257C316.972 55.4078 317.748 53.7377 318.369 52.1108C318.988 50.4894 319.438 48.9476 319.733 47.8091C319.875 47.2633 319.979 46.813 320.05 46.4946C318.868 46.1665 318 45.0863 318 43.8003C318 42.2541 319.254 40.9996 320.8 40.9995ZM321 82.1997C314.817 82.1997 309.284 82.8169 305.355 83.7817C303.376 84.268 301.914 84.8162 300.996 85.3491C300.672 85.5373 300.473 85.6908 300.351 85.7993C300.473 85.9078 300.672 86.061 300.996 86.2495C301.914 86.7825 303.375 87.3306 305.355 87.8169C309.284 88.7818 314.816 89.3999 321 89.3999C327.184 89.3999 332.717 88.7819 336.646 87.8169C338.625 87.3306 340.086 86.7824 341.004 86.2495C341.328 86.0614 341.526 85.9078 341.648 85.7993C341.526 85.6909 341.328 85.5371 341.004 85.3491C340.086 84.8162 338.625 84.268 336.646 83.7817C332.717 82.8168 327.184 82.1997 321 82.1997ZM321.033 49.6177C320.76 50.5353 320.425 51.5704 320.017 52.6421C319.352 54.3847 318.487 56.2664 317.393 57.9214C316.298 59.5764 314.934 61.0649 313.273 61.9136C310.055 63.5581 306.975 62.7084 304.811 61.5874C304.086 61.2124 303.446 60.796 302.911 60.4077C302.83 61.2359 302.69 62.2785 302.438 63.3813C301.869 65.8652 300.674 68.9837 298.032 70.3638C295.594 71.6377 292.662 71.1218 290.375 70.3296L299.19 84.1626C302.042 81.8688 310.728 80.1997 321 80.1997C331.272 80.1997 339.957 81.8689 342.809 84.1626L351.896 69.9028C349.52 70.6768 346.324 71.2081 343.504 69.8823C340.598 68.5159 339.388 65.5269 338.872 63.1196C338.729 62.4548 338.636 61.8143 338.574 61.2339C338.203 61.4743 337.798 61.7161 337.362 61.9419C335.198 63.0629 332.118 63.9125 328.899 62.2681C327.239 61.4194 325.875 59.9309 324.78 58.2759C323.686 56.6209 322.821 54.7392 322.156 52.9966C321.694 51.7842 321.323 50.6197 321.033 49.6177ZM356.2 65.3999C355.759 65.4 355.401 65.7582 355.4 66.1997C355.4 66.6415 355.758 66.9994 356.2 66.9995C356.642 66.9993 357 66.6414 357 66.1997C357 65.7582 356.642 65.4001 356.2 65.3999ZM285.8 65.3999C285.358 65.4 285 65.7582 285 66.1997C285 66.6415 285.358 66.9994 285.8 66.9995C286.242 66.9995 286.6 66.6415 286.6 66.1997C286.599 65.7581 286.241 65.3999 285.8 65.3999ZM300.8 56.0005C300.358 56.0006 300 56.3586 300 56.8003C300 57.2418 300.358 57.6 300.8 57.6001C301.241 57.6001 301.599 57.2419 301.6 56.8003C301.6 56.3586 301.242 56.0005 300.8 56.0005ZM340.8 56.0005C340.358 56.0006 340 56.3586 340 56.8003C340 57.2418 340.358 57.6 340.8 57.6001C341.241 57.6001 341.599 57.2419 341.6 56.8003C341.6 56.3586 341.242 56.0005 340.8 56.0005ZM320.8 43.0005C320.358 43.0006 320 43.3586 320 43.8003C320 44.2418 320.358 44.6 320.8 44.6001C321.241 44.6001 321.599 44.2419 321.6 43.8003C321.6 43.3586 321.242 43.0005 320.8 43.0005Z" fill="#EBEBEB"/>
</svg>
