<svg width="641" height="452" viewBox="0 0 641 452" fill="none" xmlns="http://www.w3.org/2000/svg">
<path d="M321 9C423.725 9 507 92.275 507 195C507 205.213 506.174 215.234 504.591 225H494.45C496.125 215.25 497 205.227 497 195C497 97.7979 418.202 19 321 19C223.798 19 145 97.7979 145 195C145 205.227 145.875 215.25 147.55 225H137.409C135.826 215.234 135 205.213 135 195C135 92.275 218.275 9 321 9Z" fill="black"/>
<path d="M321 0C428.696 0 516 87.3045 516 195C516 205.202 515.216 215.221 513.706 225H509.656C511.198 215.227 512 205.207 512 195C512 89.5136 426.486 4 321 4C215.514 4 130 89.5136 130 195C130 205.207 130.802 215.227 132.344 225H128.294C126.784 215.221 126 205.202 126 195C126 87.3045 213.304 0 321 0Z" fill="black"/>
<path d="M321 9C423.725 9 507 92.275 507 195C507 205.213 506.174 215.234 504.591 225H494.45C496.125 215.25 497 205.227 497 195C497 97.7979 418.202 19 321 19C223.798 19 145 97.7979 145 195C145 205.227 145.875 215.25 147.55 225H137.409C135.826 215.234 135 205.213 135 195C135 92.275 218.275 9 321 9Z" fill="black"/>
<rect x="70" y="232" width="501" height="95" rx="47.5" fill="black"/>
<rect x="64" y="227" width="513" height="105" rx="52.5" stroke="black" stroke-width="4"/>
<rect x="2" y="332" width="637" height="70" rx="10" stroke="black" stroke-width="4"/>
<path d="M113.304 255.688C114.371 255.731 115.736 255.773 117.4 255.816C119.064 255.859 120.728 255.88 122.392 255.88C124.483 255.88 126.467 255.859 128.344 255.816C130.221 255.773 131.544 255.752 132.312 255.752C136.152 255.752 139.309 256.221 141.784 257.16C144.301 258.056 146.179 259.336 147.416 261C148.653 262.664 149.272 264.627 149.272 266.888C149.272 268.296 148.995 269.747 148.44 271.24C147.885 272.691 146.925 274.035 145.56 275.272C144.195 276.509 142.317 277.533 139.928 278.344C137.581 279.112 134.573 279.496 130.904 279.496H124.76V278.216H130.264C132.952 278.216 135 277.747 136.408 276.808C137.859 275.827 138.819 274.547 139.288 272.968C139.8 271.347 140.056 269.555 140.056 267.592C140.056 264.221 139.395 261.619 138.072 259.784C136.749 257.907 134.467 256.968 131.224 256.968C129.475 256.968 128.323 257.331 127.768 258.056C127.256 258.781 127 260.253 127 262.472V294.216C127 295.752 127.128 296.904 127.384 297.672C127.64 298.44 128.109 298.952 128.792 299.208C129.517 299.464 130.563 299.635 131.928 299.72V301C130.861 300.915 129.496 300.872 127.832 300.872C126.168 300.829 124.483 300.808 122.776 300.808C120.856 300.808 119.064 300.829 117.4 300.872C115.736 300.872 114.371 300.915 113.304 301V299.72C114.712 299.635 115.757 299.464 116.44 299.208C117.165 298.952 117.635 298.44 117.848 297.672C118.104 296.904 118.232 295.752 118.232 294.216V262.472C118.232 260.893 118.104 259.741 117.848 259.016C117.635 258.248 117.165 257.736 116.44 257.48C115.757 257.181 114.712 257.011 113.304 256.968V255.688ZM124.76 278.408C126.765 278.493 128.429 278.6 129.752 278.728C131.117 278.813 132.269 278.899 133.208 278.984C134.189 279.069 135.064 279.176 135.832 279.304C139.373 279.645 141.976 280.477 143.64 281.8C145.347 283.08 146.477 285.043 147.032 287.688L148.504 294.28C148.888 296.029 149.293 297.288 149.72 298.056C150.189 298.781 150.851 299.123 151.704 299.08C152.301 299.08 152.813 298.931 153.24 298.632C153.667 298.291 154.093 297.843 154.52 297.288L155.416 298.056C154.349 299.379 153.219 300.36 152.024 301C150.829 301.597 149.315 301.896 147.48 301.896C145.432 301.896 143.704 301.427 142.296 300.488C140.888 299.507 139.928 297.672 139.416 294.984L138.2 288.584C137.859 286.792 137.453 285.213 136.984 283.848C136.557 282.483 135.96 281.416 135.192 280.648C134.424 279.88 133.293 279.496 131.8 279.496H124.888L124.76 278.408ZM189.705 255.496L205.257 295.624C205.896 297.16 206.579 298.227 207.305 298.824C208.073 299.379 208.777 299.677 209.417 299.72V301C208.307 300.915 206.963 300.872 205.385 300.872C203.849 300.829 202.27 300.808 200.649 300.808C198.771 300.808 197.022 300.829 195.401 300.872C193.779 300.872 192.457 300.915 191.433 301V299.72C193.609 299.635 194.995 299.272 195.593 298.632C196.19 297.949 196.062 296.52 195.208 294.344L183.944 263.944L185.097 262.536L174.856 289.096C174.046 291.229 173.555 292.979 173.384 294.344C173.214 295.709 173.32 296.776 173.704 297.544C174.088 298.312 174.728 298.867 175.624 299.208C176.52 299.507 177.63 299.677 178.952 299.72V301C177.587 300.915 176.264 300.872 174.984 300.872C173.704 300.829 172.424 300.808 171.144 300.808C170.206 300.808 169.31 300.829 168.456 300.872C167.646 300.872 166.92 300.915 166.28 301V299.72C167.219 299.507 168.136 298.952 169.032 298.056C169.971 297.16 170.867 295.603 171.72 293.384L186.377 255.496C186.889 255.539 187.443 255.56 188.041 255.56C188.638 255.56 189.193 255.539 189.705 255.496ZM195.273 282.568V283.848H176.2L176.84 282.568H195.273ZM220.442 313.032V311.752C222.191 311.667 223.685 311.197 224.922 310.344C226.202 309.491 227.162 308.04 227.802 305.992C228.442 303.944 228.762 301.149 228.762 297.608V262.472C228.762 260.893 228.634 259.741 228.378 259.016C228.165 258.248 227.695 257.736 226.97 257.48C226.245 257.181 225.199 257.011 223.834 256.968V255.688C224.815 255.731 226.117 255.773 227.738 255.816C229.402 255.859 231.13 255.88 232.922 255.88C234.714 255.88 236.463 255.859 238.17 255.816C239.919 255.773 241.349 255.731 242.458 255.688V256.968C241.05 257.011 239.983 257.181 239.258 257.48C238.575 257.736 238.106 258.248 237.85 259.016C237.637 259.741 237.53 260.893 237.53 262.472V285.896C237.53 287.645 237.509 289.544 237.466 291.592C237.466 293.64 237.381 295.624 237.21 297.544C237.082 299.464 236.826 301.149 236.442 302.6C235.631 305.587 233.882 308.061 231.194 310.024C228.506 312.029 224.922 313.032 220.442 313.032ZM299.71 255.688V256.968C298.302 257.224 296.873 257.757 295.422 258.568C293.971 259.379 292.478 260.701 290.942 262.536L278.846 277.384L281.726 272.776L297.022 295.816C297.705 296.797 298.409 297.587 299.134 298.184C299.859 298.781 300.798 299.293 301.95 299.72V301C300.627 300.915 299.113 300.872 297.406 300.872C295.699 300.829 294.142 300.808 292.734 300.808C291.923 300.808 290.899 300.829 289.662 300.872C288.467 300.872 286.953 300.915 285.118 301V299.72C286.825 299.635 287.849 299.4 288.19 299.016C288.531 298.589 288.382 297.864 287.742 296.84L278.398 282.12C277.715 281.011 277.097 280.179 276.542 279.624C276.03 279.069 275.497 278.707 274.942 278.536C274.387 278.323 273.705 278.195 272.894 278.152V276.872C274.686 276.787 276.286 276.317 277.694 275.464C279.102 274.611 280.51 273.352 281.918 271.688L286.462 265.992C288.041 264.115 289.001 262.515 289.342 261.192C289.683 259.869 289.491 258.845 288.766 258.12C288.041 257.395 286.825 257.011 285.118 256.968V255.688C286.057 255.731 286.995 255.773 287.934 255.816C288.873 255.816 289.811 255.837 290.75 255.88C291.731 255.88 292.755 255.88 293.822 255.88C295.059 255.88 296.169 255.859 297.15 255.816C298.131 255.773 298.985 255.731 299.71 255.688ZM278.078 255.688V256.968C276.713 257.011 275.667 257.181 274.942 257.48C274.259 257.736 273.79 258.248 273.534 259.016C273.278 259.741 273.15 260.893 273.15 262.472V294.216C273.15 295.752 273.278 296.904 273.534 297.672C273.79 298.44 274.259 298.952 274.942 299.208C275.667 299.464 276.713 299.635 278.078 299.72V301C277.011 300.915 275.646 300.872 273.982 300.872C272.318 300.829 270.633 300.808 268.926 300.808C267.006 300.808 265.214 300.829 263.55 300.872C261.886 300.872 260.521 300.915 259.454 301V299.72C260.862 299.635 261.907 299.464 262.59 299.208C263.315 298.952 263.785 298.44 263.998 297.672C264.254 296.904 264.382 295.752 264.382 294.216V262.472C264.382 260.893 264.254 259.741 263.998 259.016C263.785 258.248 263.315 257.736 262.59 257.48C261.907 257.181 260.862 257.011 259.454 256.968V255.688C260.521 255.731 261.886 255.773 263.55 255.816C265.214 255.859 267.006 255.88 268.926 255.88C270.633 255.88 272.318 255.859 273.982 255.816C275.646 255.773 277.011 255.731 278.078 255.688ZM337.042 255.496L352.594 295.624C353.234 297.16 353.917 298.227 354.642 298.824C355.41 299.379 356.114 299.677 356.754 299.72V301C355.645 300.915 354.301 300.872 352.722 300.872C351.186 300.829 349.607 300.808 347.986 300.808C346.109 300.808 344.359 300.829 342.738 300.872C341.117 300.872 339.794 300.915 338.77 301V299.72C340.946 299.635 342.333 299.272 342.93 298.632C343.527 297.949 343.399 296.52 342.546 294.344L331.282 263.944L332.434 262.536L322.194 289.096C321.383 291.229 320.893 292.979 320.722 294.344C320.551 295.709 320.658 296.776 321.042 297.544C321.426 298.312 322.066 298.867 322.962 299.208C323.858 299.507 324.967 299.677 326.29 299.72V301C324.925 300.915 323.602 300.872 322.322 300.872C321.042 300.829 319.762 300.808 318.482 300.808C317.543 300.808 316.647 300.829 315.794 300.872C314.983 300.872 314.258 300.915 313.618 301V299.72C314.557 299.507 315.474 298.952 316.37 298.056C317.309 297.16 318.205 295.603 319.058 293.384L333.714 255.496C334.226 255.539 334.781 255.56 335.378 255.56C335.975 255.56 336.53 255.539 337.042 255.496ZM342.61 282.568V283.848H323.538L324.178 282.568H342.61ZM423.746 255.688V256.968C422.38 257.011 421.335 257.181 420.61 257.48C419.884 257.736 419.394 258.248 419.138 259.016C418.924 259.741 418.818 260.893 418.818 262.472V294.216C418.818 295.752 418.946 296.904 419.202 297.672C419.458 298.44 419.927 298.952 420.61 299.208C421.335 299.464 422.38 299.635 423.746 299.72V301C422.636 300.915 421.228 300.872 419.522 300.872C417.815 300.829 416.087 300.808 414.338 300.808C412.418 300.808 410.604 300.829 408.898 300.872C407.234 300.872 405.89 300.915 404.866 301V299.72C406.316 299.635 407.404 299.464 408.13 299.208C408.898 298.952 409.41 298.44 409.666 297.672C409.922 296.904 410.05 295.752 410.05 294.216V259.4L410.498 259.464L394.626 301.192H393.602L376.706 259.784V291.528C376.706 293.576 376.834 295.176 377.09 296.328C377.346 297.437 377.9 298.248 378.754 298.76C379.65 299.229 380.994 299.549 382.786 299.72V301C381.975 300.915 380.93 300.872 379.65 300.872C378.37 300.829 377.154 300.808 376.002 300.808C374.978 300.808 373.932 300.829 372.866 300.872C371.842 300.872 370.988 300.915 370.306 301V299.72C371.714 299.549 372.759 299.229 373.442 298.76C374.167 298.291 374.636 297.523 374.85 296.456C375.106 295.389 375.234 293.917 375.234 292.04V262.472C375.234 260.893 375.106 259.741 374.85 259.016C374.636 258.248 374.167 257.736 373.442 257.48C372.759 257.181 371.714 257.011 370.306 256.968V255.688C370.988 255.731 371.842 255.773 372.866 255.816C373.932 255.859 374.978 255.88 376.002 255.88C377.58 255.88 379.116 255.859 380.61 255.816C382.103 255.773 383.426 255.731 384.578 255.688L398.338 290.056L396.93 291.208L410.306 255.88C410.946 255.88 411.607 255.88 412.29 255.88C413.015 255.88 413.698 255.88 414.338 255.88C416.087 255.88 417.815 255.859 419.522 255.816C421.228 255.773 422.636 255.731 423.746 255.688ZM461.517 255.496L477.069 295.624C477.709 297.16 478.392 298.227 479.117 298.824C479.885 299.379 480.589 299.677 481.229 299.72V301C480.12 300.915 478.776 300.872 477.197 300.872C475.661 300.829 474.082 300.808 472.461 300.808C470.584 300.808 468.834 300.829 467.213 300.872C465.592 300.872 464.269 300.915 463.245 301V299.72C465.421 299.635 466.808 299.272 467.405 298.632C468.002 297.949 467.874 296.52 467.021 294.344L455.757 263.944L456.909 262.536L446.669 289.096C445.858 291.229 445.368 292.979 445.197 294.344C445.026 295.709 445.133 296.776 445.517 297.544C445.901 298.312 446.541 298.867 447.437 299.208C448.333 299.507 449.442 299.677 450.765 299.72V301C449.4 300.915 448.077 300.872 446.797 300.872C445.517 300.829 444.237 300.808 442.957 300.808C442.018 300.808 441.122 300.829 440.269 300.872C439.458 300.872 438.733 300.915 438.093 301V299.72C439.032 299.507 439.949 298.952 440.845 298.056C441.784 297.16 442.68 295.603 443.533 293.384L458.189 255.496C458.701 255.539 459.256 255.56 459.853 255.56C460.45 255.56 461.005 255.539 461.517 255.496ZM467.085 282.568V283.848H448.013L448.653 282.568H467.085ZM513.597 255.688V256.968C512.146 257.011 511.037 257.181 510.269 257.48C509.543 257.736 509.053 258.248 508.797 259.016C508.541 259.741 508.413 260.893 508.413 262.472V294.728C508.413 296.093 508.519 297.139 508.733 297.864C508.989 298.547 509.437 298.995 510.077 299.208C510.717 299.421 511.634 299.528 512.829 299.528H516.477C518.141 299.528 519.591 299.229 520.829 298.632C522.109 298.035 523.218 297.16 524.157 296.008C525.095 294.856 525.863 293.448 526.461 291.784C527.058 290.077 527.485 288.157 527.741 286.024H529.213C529.085 287.432 529.021 289.267 529.021 291.528C529.021 292.467 529.042 293.811 529.085 295.56C529.17 297.309 529.298 299.123 529.469 301C527.293 300.915 524.839 300.872 522.109 300.872C519.378 300.829 516.946 300.808 514.813 300.808C513.789 300.808 512.487 300.808 510.909 300.808C509.33 300.808 507.602 300.829 505.725 300.872C503.89 300.872 502.013 300.893 500.093 300.936C498.215 300.936 496.423 300.957 494.717 301V299.72C496.125 299.635 497.17 299.464 497.853 299.208C498.578 298.952 499.047 298.44 499.261 297.672C499.517 296.904 499.645 295.752 499.645 294.216V262.472C499.645 260.893 499.517 259.741 499.261 259.016C499.047 258.248 498.578 257.736 497.853 257.48C497.17 257.181 496.125 257.011 494.717 256.968V255.688C495.783 255.731 497.149 255.773 498.813 255.816C500.477 255.859 502.269 255.88 504.189 255.88C505.938 255.88 507.666 255.859 509.373 255.816C511.079 255.773 512.487 255.731 513.597 255.688Z" fill="white"/>
<path d="M85.36 354.68C85.2533 355.827 85.1733 356.933 85.12 358C85.0933 359.067 85.08 359.88 85.08 360.44C85.08 361.053 85.0933 361.627 85.12 362.16C85.1467 362.693 85.1733 363.16 85.2 363.56H84.28C83.9867 361.56 83.5867 359.987 83.08 358.84C82.5733 357.667 81.8933 356.84 81.04 356.36C80.1867 355.853 79.0533 355.6 77.64 355.6H75.92C75.12 355.6 74.5067 355.667 74.08 355.8C73.6533 355.933 73.36 356.213 73.2 356.64C73.0667 357.067 73 357.72 73 358.6V378.6C73 379.613 73.1067 380.373 73.32 380.88C73.5333 381.387 73.9467 381.72 74.56 381.88C75.1733 382.04 76.0533 382.133 77.2 382.16V383C76.4267 382.947 75.4267 382.92 74.2 382.92C72.9733 382.893 71.7067 382.88 70.4 382.88C69.28 382.88 68.2 382.893 67.16 382.92C66.12 382.92 65.2133 382.947 64.44 383V382.2C65.32 382.147 65.9733 382.04 66.4 381.88C66.8533 381.72 67.1467 381.4 67.28 380.92C67.44 380.44 67.52 379.72 67.52 378.76V358.92C67.52 357.933 67.44 357.213 67.28 356.76C67.1467 356.28 66.8533 355.96 66.4 355.8C65.9733 355.613 65.32 355.507 64.44 355.48V354.68C65.5067 354.707 66.6267 354.733 67.8 354.76C69 354.76 70.1733 354.773 71.32 354.8C72.4933 354.8 73.5733 354.8 74.56 354.8C75.5733 354.8 76.3867 354.8 77 354.8C78.2267 354.8 79.6133 354.8 81.16 354.8C82.7333 354.773 84.1333 354.733 85.36 354.68ZM79.32 368.6C79.32 368.6 79.32 368.733 79.32 369C79.32 369.267 79.32 369.4 79.32 369.4H71.8C71.8 369.4 71.8 369.267 71.8 369C71.8 368.733 71.8 368.6 71.8 368.6H79.32ZM80.24 363.32C80.1333 364.84 80.08 366 80.08 366.8C80.1067 367.6 80.12 368.333 80.12 369C80.12 369.667 80.1333 370.4 80.16 371.2C80.1867 372 80.2533 373.16 80.36 374.68H79.44C79.3333 373.773 79.1333 372.92 78.84 372.12C78.5467 371.293 78.0933 370.64 77.48 370.16C76.8933 369.653 76.04 369.4 74.92 369.4V368.6C75.7467 368.6 76.4267 368.427 76.96 368.08C77.4933 367.733 77.9067 367.293 78.2 366.76C78.52 366.2 78.76 365.627 78.92 365.04C79.1067 364.427 79.24 363.853 79.32 363.32H80.24ZM148.998 354.68V355.48C148.145 355.56 147.492 355.76 147.038 356.08C146.612 356.373 146.318 356.853 146.158 357.52C145.998 358.16 145.918 359.08 145.918 360.28V371.36C145.918 373.147 145.798 374.747 145.558 376.16C145.345 377.573 144.918 378.8 144.278 379.84C143.612 380.96 142.612 381.867 141.278 382.56C139.972 383.227 138.372 383.56 136.478 383.56C135.198 383.56 133.932 383.413 132.678 383.12C131.452 382.827 130.372 382.28 129.438 381.48C128.612 380.787 127.958 380 127.478 379.12C127.025 378.24 126.718 377.187 126.558 375.96C126.398 374.707 126.318 373.213 126.318 371.48V358.92C126.318 357.933 126.238 357.213 126.078 356.76C125.945 356.28 125.652 355.96 125.198 355.8C124.772 355.613 124.118 355.507 123.238 355.48V354.68C123.905 354.707 124.758 354.733 125.798 354.76C126.838 354.787 127.958 354.8 129.158 354.8C130.252 354.8 131.332 354.787 132.398 354.76C133.465 354.733 134.345 354.707 135.038 354.68V355.48C134.132 355.507 133.438 355.613 132.958 355.8C132.505 355.96 132.198 356.28 132.038 356.76C131.878 357.213 131.798 357.933 131.798 358.92V373.4C131.798 374.733 131.878 375.947 132.038 377.04C132.225 378.107 132.518 379.027 132.918 379.8C133.345 380.573 133.932 381.16 134.678 381.56C135.452 381.96 136.425 382.16 137.598 382.16C139.545 382.16 141.052 381.72 142.118 380.84C143.185 379.96 143.932 378.733 144.358 377.16C144.785 375.587 144.998 373.8 144.998 371.8V360.6C144.998 359.293 144.905 358.293 144.718 357.6C144.532 356.907 144.158 356.4 143.598 356.08C143.065 355.76 142.265 355.56 141.198 355.48V354.68C141.705 354.707 142.358 354.733 143.158 354.76C143.985 354.787 144.745 354.8 145.438 354.8C146.105 354.8 146.758 354.787 147.398 354.76C148.065 354.733 148.598 354.707 148.998 354.68ZM187.26 354.68C187.927 354.707 188.78 354.733 189.82 354.76C190.86 354.787 191.9 354.8 192.94 354.8C194.247 354.8 195.487 354.787 196.66 354.76C197.834 354.733 198.66 354.72 199.14 354.72C201.54 354.72 203.514 355.013 205.06 355.6C206.634 356.16 207.807 356.96 208.58 358C209.354 359.04 209.74 360.267 209.74 361.68C209.74 362.56 209.567 363.467 209.22 364.4C208.874 365.307 208.274 366.147 207.42 366.92C206.567 367.693 205.394 368.333 203.9 368.84C202.434 369.32 200.554 369.56 198.26 369.56H194.42V368.76H197.86C199.54 368.76 200.82 368.467 201.7 367.88C202.607 367.267 203.207 366.467 203.5 365.48C203.82 364.467 203.98 363.347 203.98 362.12C203.98 360.013 203.567 358.387 202.74 357.24C201.914 356.067 200.487 355.48 198.46 355.48C197.367 355.48 196.647 355.707 196.3 356.16C195.98 356.613 195.82 357.533 195.82 358.92V378.76C195.82 379.72 195.9 380.44 196.06 380.92C196.22 381.4 196.514 381.72 196.94 381.88C197.394 382.04 198.047 382.147 198.9 382.2V383C198.234 382.947 197.38 382.92 196.34 382.92C195.3 382.893 194.247 382.88 193.18 382.88C191.98 382.88 190.86 382.893 189.82 382.92C188.78 382.92 187.927 382.947 187.26 383V382.2C188.14 382.147 188.794 382.04 189.22 381.88C189.674 381.72 189.967 381.4 190.1 380.92C190.26 380.44 190.34 379.72 190.34 378.76V358.92C190.34 357.933 190.26 357.213 190.1 356.76C189.967 356.28 189.674 355.96 189.22 355.8C188.794 355.613 188.14 355.507 187.26 355.48V354.68ZM194.42 368.88C195.674 368.933 196.714 369 197.54 369.08C198.394 369.133 199.114 369.187 199.7 369.24C200.314 369.293 200.86 369.36 201.34 369.44C203.554 369.653 205.18 370.173 206.22 371C207.287 371.8 207.994 373.027 208.34 374.68L209.26 378.8C209.5 379.893 209.754 380.68 210.02 381.16C210.314 381.613 210.727 381.827 211.26 381.8C211.634 381.8 211.954 381.707 212.22 381.52C212.487 381.307 212.754 381.027 213.02 380.68L213.58 381.16C212.914 381.987 212.207 382.6 211.46 383C210.714 383.373 209.767 383.56 208.62 383.56C207.34 383.56 206.26 383.267 205.38 382.68C204.5 382.067 203.9 380.92 203.58 379.24L202.82 375.24C202.607 374.12 202.354 373.133 202.06 372.28C201.794 371.427 201.42 370.76 200.94 370.28C200.46 369.8 199.754 369.56 198.82 369.56H194.5L194.42 368.88ZM276.291 354.68V355.48C275.437 355.56 274.784 355.76 274.331 356.08C273.877 356.373 273.571 356.853 273.411 357.52C273.277 358.16 273.211 359.08 273.211 360.28V383.12C272.971 383.093 272.704 383.08 272.411 383.08C272.144 383.08 271.851 383.093 271.531 383.12L254.371 359.8V377.08C254.371 378.36 254.451 379.36 254.611 380.08C254.771 380.773 255.117 381.28 255.651 381.6C256.211 381.893 257.051 382.093 258.171 382.2V383C257.664 382.947 257.011 382.92 256.211 382.92C255.411 382.893 254.651 382.88 253.931 382.88C253.291 382.88 252.637 382.893 251.971 382.92C251.331 382.92 250.797 382.947 250.371 383V382.2C251.251 382.093 251.904 381.893 252.331 381.6C252.784 381.307 253.077 380.827 253.211 380.16C253.371 379.493 253.451 378.573 253.451 377.4V358.92C253.451 357.933 253.371 357.213 253.211 356.76C253.077 356.28 252.784 355.96 252.331 355.8C251.904 355.613 251.251 355.507 250.371 355.48V354.68C250.797 354.707 251.331 354.733 251.971 354.76C252.637 354.787 253.291 354.8 253.931 354.8C254.544 354.8 255.144 354.787 255.731 354.76C256.317 354.733 256.837 354.707 257.291 354.68L272.291 374.64V360.6C272.291 359.293 272.211 358.293 272.051 357.6C271.891 356.907 271.544 356.4 271.011 356.08C270.477 355.76 269.637 355.56 268.491 355.48V354.68C268.997 354.707 269.651 354.733 270.451 354.76C271.277 354.787 272.037 354.8 272.731 354.8C273.397 354.8 274.051 354.787 274.691 354.76C275.357 354.733 275.891 354.707 276.291 354.68ZM326.603 354.68V355.48C325.75 355.507 325.097 355.613 324.643 355.8C324.217 355.96 323.923 356.28 323.763 356.76C323.603 357.213 323.523 357.933 323.523 358.92V378.76C323.523 379.72 323.603 380.44 323.763 380.92C323.923 381.4 324.217 381.72 324.643 381.88C325.097 382.04 325.75 382.147 326.603 382.2V383C325.937 382.947 325.083 382.92 324.043 382.92C323.003 382.893 321.95 382.88 320.883 382.88C319.683 382.88 318.563 382.893 317.523 382.92C316.483 382.92 315.63 382.947 314.963 383V382.2C315.843 382.147 316.497 382.04 316.923 381.88C317.377 381.72 317.67 381.4 317.803 380.92C317.963 380.44 318.043 379.72 318.043 378.76V358.92C318.043 357.933 317.963 357.213 317.803 356.76C317.67 356.28 317.377 355.96 316.923 355.8C316.497 355.613 315.843 355.507 314.963 355.48V354.68C315.63 354.707 316.483 354.733 317.523 354.76C318.563 354.787 319.683 354.8 320.883 354.8C321.95 354.8 323.003 354.787 324.043 354.76C325.083 354.733 325.937 354.707 326.603 354.68ZM389.134 354.68C389.027 355.907 388.947 357.107 388.894 358.28C388.867 359.427 388.854 360.307 388.854 360.92C388.854 361.533 388.867 362.107 388.894 362.64C388.92 363.173 388.947 363.64 388.974 364.04H388.054C387.68 361.907 387.227 360.24 386.694 359.04C386.16 357.813 385.454 356.933 384.574 356.4C383.72 355.867 382.587 355.6 381.174 355.6H379.894V378.4C379.894 379.493 379.987 380.307 380.174 380.84C380.387 381.373 380.8 381.733 381.414 381.92C382.027 382.08 382.92 382.173 384.094 382.2V383C383.294 382.947 382.254 382.92 380.974 382.92C379.694 382.893 378.387 382.88 377.054 382.88C375.667 382.88 374.36 382.893 373.134 382.92C371.934 382.92 370.96 382.947 370.214 383V382.2C371.36 382.173 372.24 382.08 372.854 381.92C373.467 381.733 373.88 381.373 374.094 380.84C374.307 380.307 374.414 379.493 374.414 378.4V355.6H373.094C371.707 355.6 370.574 355.867 369.694 356.4C368.814 356.933 368.107 357.813 367.574 359.04C367.04 360.24 366.6 361.907 366.254 364.04H365.334C365.387 363.64 365.414 363.173 365.414 362.64C365.44 362.107 365.454 361.533 365.454 360.92C365.454 360.307 365.427 359.427 365.374 358.28C365.347 357.107 365.28 355.907 365.174 354.68C366.347 354.707 367.64 354.733 369.054 354.76C370.467 354.787 371.88 354.8 373.294 354.8C374.707 354.8 376 354.8 377.174 354.8C378.32 354.8 379.6 354.8 381.014 354.8C382.427 354.8 383.84 354.787 385.254 354.76C386.667 354.733 387.96 354.707 389.134 354.68ZM452.788 354.68V355.48C451.934 355.56 451.281 355.76 450.828 356.08C450.401 356.373 450.108 356.853 449.948 357.52C449.788 358.16 449.707 359.08 449.707 360.28V371.36C449.707 373.147 449.588 374.747 449.348 376.16C449.134 377.573 448.708 378.8 448.068 379.84C447.401 380.96 446.401 381.867 445.068 382.56C443.761 383.227 442.161 383.56 440.268 383.56C438.988 383.56 437.721 383.413 436.467 383.12C435.241 382.827 434.161 382.28 433.228 381.48C432.401 380.787 431.748 380 431.268 379.12C430.814 378.24 430.508 377.187 430.348 375.96C430.188 374.707 430.108 373.213 430.108 371.48V358.92C430.108 357.933 430.028 357.213 429.868 356.76C429.734 356.28 429.441 355.96 428.988 355.8C428.561 355.613 427.908 355.507 427.028 355.48V354.68C427.694 354.707 428.548 354.733 429.588 354.76C430.628 354.787 431.748 354.8 432.948 354.8C434.041 354.8 435.121 354.787 436.188 354.76C437.254 354.733 438.134 354.707 438.828 354.68V355.48C437.921 355.507 437.228 355.613 436.747 355.8C436.294 355.96 435.988 356.28 435.828 356.76C435.668 357.213 435.588 357.933 435.588 358.92V373.4C435.588 374.733 435.668 375.947 435.828 377.04C436.014 378.107 436.308 379.027 436.708 379.8C437.134 380.573 437.721 381.16 438.468 381.56C439.241 381.96 440.214 382.16 441.388 382.16C443.334 382.16 444.841 381.72 445.908 380.84C446.974 379.96 447.721 378.733 448.148 377.16C448.574 375.587 448.787 373.8 448.787 371.8V360.6C448.787 359.293 448.694 358.293 448.508 357.6C448.321 356.907 447.948 356.4 447.388 356.08C446.854 355.76 446.054 355.56 444.988 355.48V354.68C445.494 354.707 446.148 354.733 446.948 354.76C447.774 354.787 448.534 354.8 449.228 354.8C449.894 354.8 450.548 354.787 451.188 354.76C451.854 354.733 452.388 354.707 452.788 354.68ZM491.049 354.68C491.716 354.707 492.569 354.733 493.609 354.76C494.649 354.787 495.689 354.8 496.729 354.8C498.036 354.8 499.276 354.787 500.449 354.76C501.623 354.733 502.449 354.72 502.929 354.72C505.329 354.72 507.303 355.013 508.849 355.6C510.423 356.16 511.596 356.96 512.369 358C513.143 359.04 513.529 360.267 513.529 361.68C513.529 362.56 513.356 363.467 513.009 364.4C512.663 365.307 512.063 366.147 511.209 366.92C510.356 367.693 509.183 368.333 507.689 368.84C506.223 369.32 504.343 369.56 502.049 369.56H498.209V368.76H501.649C503.329 368.76 504.609 368.467 505.489 367.88C506.396 367.267 506.996 366.467 507.289 365.48C507.609 364.467 507.769 363.347 507.769 362.12C507.769 360.013 507.356 358.387 506.529 357.24C505.703 356.067 504.276 355.48 502.249 355.48C501.156 355.48 500.436 355.707 500.089 356.16C499.769 356.613 499.609 357.533 499.609 358.92V378.76C499.609 379.72 499.689 380.44 499.849 380.92C500.009 381.4 500.303 381.72 500.729 381.88C501.183 382.04 501.836 382.147 502.689 382.2V383C502.023 382.947 501.169 382.92 500.129 382.92C499.089 382.893 498.036 382.88 496.969 382.88C495.769 382.88 494.649 382.893 493.609 382.92C492.569 382.92 491.716 382.947 491.049 383V382.2C491.929 382.147 492.583 382.04 493.009 381.88C493.463 381.72 493.756 381.4 493.889 380.92C494.049 380.44 494.129 379.72 494.129 378.76V358.92C494.129 357.933 494.049 357.213 493.889 356.76C493.756 356.28 493.463 355.96 493.009 355.8C492.583 355.613 491.929 355.507 491.049 355.48V354.68ZM498.209 368.88C499.463 368.933 500.503 369 501.329 369.08C502.183 369.133 502.903 369.187 503.489 369.24C504.103 369.293 504.649 369.36 505.129 369.44C507.343 369.653 508.969 370.173 510.009 371C511.076 371.8 511.783 373.027 512.129 374.68L513.049 378.8C513.289 379.893 513.543 380.68 513.809 381.16C514.103 381.613 514.516 381.827 515.049 381.8C515.423 381.8 515.743 381.707 516.009 381.52C516.276 381.307 516.543 381.027 516.809 380.68L517.369 381.16C516.703 381.987 515.996 382.6 515.249 383C514.503 383.373 513.556 383.56 512.409 383.56C511.129 383.56 510.049 383.267 509.169 382.68C508.289 382.067 507.689 380.92 507.369 379.24L506.609 375.24C506.396 374.12 506.143 373.133 505.849 372.28C505.583 371.427 505.209 370.76 504.729 370.28C504.249 369.8 503.543 369.56 502.609 369.56H498.289L498.209 368.88ZM575.04 354.68C574.933 355.773 574.853 356.84 574.8 357.88C574.773 358.893 574.76 359.667 574.76 360.2C574.76 360.707 574.773 361.2 574.8 361.68C574.826 362.133 574.853 362.52 574.88 362.84H573.96C573.746 361 573.4 359.56 572.92 358.52C572.44 357.453 571.786 356.707 570.96 356.28C570.16 355.827 569.106 355.6 567.8 355.6H565.6C564.8 355.6 564.186 355.667 563.76 355.8C563.333 355.933 563.04 356.213 562.88 356.64C562.746 357.067 562.68 357.72 562.68 358.6V379.08C562.68 379.933 562.746 380.587 562.88 381.04C563.04 381.467 563.333 381.747 563.76 381.88C564.186 382.013 564.8 382.08 565.6 382.08H567.88C569.24 382.08 570.373 381.827 571.28 381.32C572.213 380.813 572.96 379.987 573.52 378.84C574.08 377.667 574.493 376.067 574.76 374.04H575.68C575.6 374.867 575.56 375.933 575.56 377.24C575.56 377.8 575.573 378.613 575.6 379.68C575.653 380.747 575.733 381.853 575.84 383C574.48 382.947 572.946 382.92 571.24 382.92C569.533 382.893 568.013 382.88 566.68 382.88C566.066 382.88 565.253 382.88 564.24 382.88C563.253 382.88 562.173 382.893 561 382.92C559.853 382.92 558.68 382.933 557.48 382.96C556.306 382.96 555.186 382.973 554.12 383V382.2C555 382.147 555.653 382.04 556.08 381.88C556.533 381.72 556.826 381.4 556.96 380.92C557.12 380.44 557.2 379.72 557.2 378.76V358.92C557.2 357.933 557.12 357.213 556.96 356.76C556.826 356.28 556.533 355.96 556.08 355.8C555.653 355.613 555 355.507 554.12 355.48V354.68C555.186 354.707 556.306 354.733 557.48 354.76C558.68 354.76 559.853 354.773 561 354.8C562.173 354.8 563.253 354.8 564.24 354.8C565.253 354.8 566.066 354.8 566.68 354.8C567.906 354.8 569.293 354.8 570.84 354.8C572.413 354.773 573.813 354.733 575.04 354.68ZM568.6 368.36C568.6 368.36 568.6 368.493 568.6 368.76C568.6 369.027 568.6 369.16 568.6 369.16H561.48C561.48 369.16 561.48 369.027 561.48 368.76C561.48 368.493 561.48 368.36 561.48 368.36H568.6ZM569.76 363.08C569.653 364.6 569.6 365.76 569.6 366.56C569.626 367.36 569.64 368.093 569.64 368.76C569.64 369.427 569.653 370.16 569.68 370.96C569.706 371.76 569.773 372.92 569.88 374.44H568.96C568.826 373.533 568.613 372.68 568.32 371.88C568.053 371.053 567.613 370.4 567 369.92C566.413 369.413 565.56 369.16 564.44 369.16V368.36C565.266 368.36 565.933 368.187 566.44 367.84C566.973 367.493 567.4 367.053 567.72 366.52C568.04 365.96 568.28 365.387 568.44 364.8C568.626 364.187 568.76 363.613 568.84 363.08H569.76Z" fill="black"/>
<path d="M218.68 433.608C219.149 435.592 219.811 437 220.664 437.832C221.517 438.664 222.627 439.08 223.992 439.08C225.357 439.08 226.349 438.76 226.968 438.12C227.587 437.459 227.896 436.648 227.896 435.688C227.896 434.728 227.512 433.885 226.744 433.16C225.997 432.435 225.08 431.805 223.992 431.272C222.925 430.739 221.848 430.173 220.76 429.576C219.693 428.979 218.776 428.2 218.008 427.24C217.261 426.259 216.888 425.128 216.888 423.848C216.888 421.885 217.635 420.403 219.128 419.4C220.621 418.397 222.509 417.896 224.792 417.896C227.096 417.896 229.24 418.365 231.224 419.304C231.437 419.731 231.544 420.637 231.544 422.024C231.544 423.389 231.491 424.456 231.384 425.224L229.368 425.16C229.219 421.789 227.544 420.104 224.344 420.104C223.491 420.104 222.787 420.36 222.232 420.872C221.677 421.363 221.4 422.003 221.4 422.792C221.4 423.581 221.667 424.275 222.2 424.872C222.755 425.469 223.437 425.981 224.248 426.408C225.08 426.813 225.965 427.293 226.904 427.848C227.864 428.381 228.749 428.925 229.56 429.48C230.392 430.013 231.075 430.728 231.608 431.624C232.163 432.52 232.44 433.512 232.44 434.6C232.44 436.52 231.715 438.131 230.264 439.432C228.835 440.733 226.989 441.384 224.728 441.384C222.467 441.384 219.949 440.883 217.176 439.88C217.069 439.539 216.909 438.707 216.696 437.384C216.504 436.061 216.365 434.952 216.28 434.056L218.68 433.608ZM245.047 427.144V438.568C245.047 438.909 245.164 439.165 245.399 439.336C245.655 439.485 246.167 439.56 246.935 439.56L247.287 441.096C245.047 441.032 243.489 441 242.615 441C241.761 441 240.62 441.032 239.191 441.096L238.871 439.56C239.745 439.539 240.332 439.453 240.631 439.304C240.929 439.133 241.079 438.888 241.079 438.568V430.888C241.079 430.397 240.951 430.024 240.695 429.768C240.439 429.491 239.927 429.352 239.159 429.352H238.743L238.295 428.04C240.215 427.592 242.113 427.048 243.991 426.408C244.439 426.408 244.727 426.461 244.855 426.568C244.983 426.653 245.047 426.845 245.047 427.144ZM242.999 423.368C242.423 423.368 241.921 423.176 241.495 422.792C241.068 422.408 240.855 421.917 240.855 421.32C240.855 420.723 241.079 420.2 241.527 419.752C241.996 419.304 242.519 419.08 243.095 419.08C243.671 419.08 244.172 419.272 244.599 419.656C245.025 420.04 245.239 420.531 245.239 421.128C245.239 421.725 245.004 422.248 244.535 422.696C244.087 423.144 243.575 423.368 242.999 423.368ZM258.274 427.24C258.295 427.389 258.306 427.517 258.306 427.624C258.306 427.731 258.316 427.891 258.338 428.104C258.359 428.317 258.37 428.477 258.37 428.584C259.991 427.731 261.175 427.197 261.922 426.984C262.668 426.771 263.308 426.664 263.842 426.664C265.079 426.664 266.082 427.112 266.85 428.008C267.618 428.904 268.002 430.205 268.002 431.912V438.568C268.002 438.76 268.012 438.92 268.034 439.048C268.076 439.155 268.204 439.272 268.418 439.4C268.631 439.507 268.94 439.56 269.346 439.56L269.698 441.096C267.458 441.032 266.05 441 265.474 441C264.898 441 263.895 441.032 262.466 441.096L262.146 439.56C262.871 439.539 263.362 439.453 263.618 439.304C263.874 439.133 264.012 438.888 264.034 438.568V432.872C264.034 431.741 263.842 430.909 263.458 430.376C263.095 429.821 262.466 429.544 261.57 429.544C260.695 429.544 259.682 429.789 258.53 430.28V438.568C258.53 438.76 258.54 438.92 258.562 439.048C258.604 439.155 258.732 439.272 258.946 439.4C259.159 439.507 259.468 439.56 259.874 439.56L260.226 441.096C257.986 441.032 256.578 441 256.002 441C255.426 441 254.423 441.032 252.994 441.096L252.674 439.56C253.399 439.539 253.89 439.453 254.146 439.304C254.402 439.133 254.54 438.888 254.562 438.568V430.888C254.562 430.376 254.444 430.024 254.21 429.832C253.975 429.619 253.676 429.512 253.314 429.512C252.972 429.512 252.716 429.523 252.546 429.544L252.098 428.232C253.42 427.912 255.212 427.304 257.474 426.408C257.751 426.408 257.922 426.472 257.986 426.6C258.071 426.707 258.135 426.803 258.178 426.888C258.22 426.973 258.252 427.091 258.274 427.24ZM282.467 428.616C281.464 428.616 280.696 429.043 280.163 429.896C279.629 430.749 279.363 431.923 279.363 433.416C279.363 434.888 279.715 436.211 280.419 437.384C281.144 438.536 282.211 439.112 283.619 439.112C285.027 439.112 286.285 438.611 287.395 437.608C287.544 437.459 287.672 437.448 287.779 437.576L288.291 438.28C287.565 439.197 286.669 439.944 285.603 440.52C284.536 441.096 283.437 441.384 282.307 441.384C280.131 441.384 278.403 440.723 277.123 439.4C275.843 438.056 275.203 436.381 275.203 434.376C275.203 431.923 275.907 430.024 277.315 428.68C278.723 427.336 280.429 426.664 282.435 426.664C283.437 426.664 284.515 426.856 285.667 427.24C286.84 427.624 287.629 428.019 288.035 428.424C288.056 428.467 288.067 428.52 288.067 428.584C288.067 428.925 287.683 429.64 286.915 430.728C286.829 430.813 286.712 430.856 286.563 430.856C286.413 430.856 286.136 430.675 285.731 430.312C284.557 429.181 283.469 428.616 282.467 428.616ZM306.594 433.448H297.89C297.89 434.685 298.125 435.848 298.594 436.936C298.871 437.576 299.319 438.099 299.938 438.504C300.578 438.909 301.303 439.112 302.114 439.112C302.925 439.112 303.671 438.952 304.354 438.632C305.058 438.291 305.527 438.003 305.762 437.768C306.018 437.512 306.199 437.448 306.306 437.576L306.818 438.28C306.093 439.176 305.186 439.923 304.098 440.52C303.031 441.096 301.986 441.384 300.962 441.384C298.658 441.384 296.877 440.733 295.618 439.432C294.359 438.109 293.73 436.339 293.73 434.12C293.73 431.88 294.434 430.077 295.842 428.712C297.25 427.347 298.861 426.664 300.674 426.664C302.487 426.664 303.97 427.187 305.122 428.232C306.295 429.277 306.882 430.856 306.882 432.968C306.882 433.288 306.786 433.448 306.594 433.448ZM303.202 431.528C303.202 429.587 302.402 428.616 300.802 428.616C300.013 428.616 299.373 428.915 298.882 429.512C298.391 430.109 298.103 430.781 298.018 431.528H303.202ZM327.709 441L323.069 441.032L322.717 439.368C323.506 439.347 324.093 439.272 324.477 439.144C324.861 438.995 325.074 438.867 325.117 438.76C325.181 438.653 325.213 438.493 325.213 438.28V422.824C325.213 421.907 324.669 421.448 323.581 421.448C323.303 421.448 322.941 421.48 322.493 421.544L321.853 419.976C323.431 419.699 324.701 419.421 325.661 419.144L328.701 418.248C329.085 418.248 329.319 418.301 329.405 418.408C329.49 418.515 329.533 418.824 329.533 419.336L329.565 438.28C329.565 439.005 330.237 439.368 331.581 439.368C331.645 439.368 331.719 439.368 331.805 439.368L332.221 441.096L327.709 441ZM347.799 432.232C346.882 432.616 345.591 432.808 343.927 432.808C342.285 432.808 340.759 432.168 339.351 430.888C337.965 429.587 337.271 427.944 337.271 425.96C337.271 423.955 337.943 422.28 339.287 420.936C340.631 419.571 342.519 418.888 344.951 418.888C347.383 418.888 349.261 419.528 350.583 420.808C351.927 422.088 352.599 423.987 352.599 426.504C352.599 429.021 351.725 431.635 349.975 434.344C348.226 437.053 345.911 439.4 343.031 441.384C342.157 441.128 341.666 440.787 341.559 440.36C342.946 439.357 344.247 438.067 345.463 436.488C346.701 434.888 347.479 433.469 347.799 432.232ZM347.831 428.968C348.215 428.435 348.407 427.411 348.407 425.896C348.407 424.381 348.055 423.165 347.351 422.248C346.669 421.331 345.783 420.872 344.695 420.872C343.607 420.872 342.797 421.309 342.263 422.184C341.73 423.037 341.463 424.115 341.463 425.416C341.463 426.696 341.783 427.795 342.423 428.712C343.063 429.608 343.991 430.056 345.207 430.056C346.423 430.056 347.298 429.693 347.831 428.968ZM366.564 427.976C368.313 427.976 369.871 428.541 371.236 429.672C372.623 430.781 373.316 432.328 373.316 434.312C373.316 436.296 372.644 437.971 371.3 439.336C369.956 440.701 368.068 441.384 365.636 441.384C363.204 441.384 361.316 440.744 359.972 439.464C358.649 438.184 357.988 436.296 357.988 433.8C357.988 431.283 358.991 428.637 360.996 425.864C363.023 423.091 365.54 420.755 368.548 418.856C368.569 418.856 368.644 418.888 368.772 418.952C368.9 418.995 368.985 419.027 369.028 419.048C369.092 419.069 369.177 419.112 369.284 419.176C369.412 419.219 369.508 419.272 369.572 419.336C369.636 419.379 369.7 419.432 369.764 419.496C369.913 419.624 369.988 419.763 369.988 419.912C369.156 420.573 368.153 421.533 366.98 422.792C365.807 424.051 365.06 424.893 364.74 425.32C363.823 426.579 363.161 427.731 362.756 428.776C364.143 428.243 365.412 427.976 366.564 427.976ZM365.572 429.992C365.039 429.992 364.495 430.12 363.94 430.376C363.407 430.611 362.98 430.952 362.66 431.4C362.34 431.827 362.18 432.808 362.18 434.344C362.18 435.859 362.521 437.053 363.204 437.928C363.887 438.781 364.783 439.208 365.892 439.208C367.001 439.208 367.812 438.803 368.324 437.992C368.857 437.181 369.124 436.136 369.124 434.856C369.124 433.555 368.804 432.424 368.164 431.464C367.524 430.483 366.66 429.992 365.572 429.992ZM387.6 441.384C384.912 441.384 382.747 440.392 381.104 438.408C379.483 436.424 378.672 433.8 378.672 430.536C378.672 427.251 379.483 424.488 381.104 422.248C382.726 419.987 384.87 418.856 387.536 418.856C390.224 418.856 392.4 419.891 394.064 421.96C395.728 424.008 396.56 426.664 396.56 429.928C396.56 433.192 395.739 435.923 394.096 438.12C392.475 440.296 390.31 441.384 387.6 441.384ZM388.208 439.208C389.552 439.208 390.576 438.397 391.28 436.776C392.006 435.155 392.368 433.203 392.368 430.92C392.368 428.381 392.016 426.152 391.312 424.232C390.928 423.208 390.384 422.397 389.68 421.8C388.976 421.203 388.144 420.904 387.184 420.904C385.904 420.904 384.859 421.747 384.048 423.432C383.259 425.117 382.864 426.995 382.864 429.064C382.864 431.709 383.206 433.981 383.888 435.88C384.272 436.904 384.827 437.715 385.552 438.312C386.299 438.909 387.184 439.208 388.208 439.208ZM407.772 418.504C407.58 419.251 407.335 420.061 407.036 420.936C406.738 421.789 406.418 422.653 406.076 423.528C405.735 424.381 405.383 425.203 405.02 425.992H401.596C401.746 425.352 401.895 424.691 402.044 424.008C402.194 423.325 402.332 422.643 402.46 421.96C402.61 421.256 402.738 420.584 402.844 419.944C402.972 419.304 403.079 418.707 403.164 418.152H407.548L407.772 418.504ZM418.006 439.4C419.713 439.4 420.566 438.845 420.566 437.736C420.566 437.011 419.691 436.317 417.942 435.656C417.217 435.379 416.491 435.059 415.766 434.696C415.062 434.333 414.454 433.821 413.942 433.16C413.43 432.499 413.174 431.72 413.174 430.824C413.174 429.544 413.697 428.531 414.742 427.784C415.809 427.037 417.025 426.664 418.39 426.664C419.755 426.664 421.238 426.963 422.838 427.56C423.115 427.816 423.254 428.349 423.254 429.16C423.254 429.949 423.169 430.728 422.998 431.496L421.59 431.368C421.462 430.536 421.131 429.864 420.598 429.352C420.065 428.84 419.425 428.584 418.678 428.584C417.953 428.584 417.398 428.744 417.014 429.064C416.651 429.363 416.47 429.715 416.47 430.12C416.47 430.525 416.726 430.888 417.238 431.208C417.75 431.528 418.369 431.827 419.094 432.104C419.841 432.381 420.577 432.701 421.302 433.064C422.049 433.427 422.678 433.939 423.19 434.6C423.702 435.261 423.958 436.04 423.958 436.936C423.958 438.301 423.435 439.379 422.39 440.168C421.345 440.957 420.011 441.352 418.39 441.352C416.79 441.352 415.222 441.107 413.686 440.616C413.558 440.509 413.43 439.933 413.302 438.888C413.174 437.821 413.11 437 413.11 436.424V435.944L414.966 436.04C415.115 437.213 415.467 438.067 416.022 438.6C416.577 439.133 417.238 439.4 418.006 439.4Z" fill="black"/>
<line x1="206.5" y1="432.5" x2="1.5" y2="432.5" stroke="black" stroke-width="3" stroke-linecap="round"/>
<line x1="639.5" y1="432.5" x2="434.5" y2="432.5" stroke="black" stroke-width="3" stroke-linecap="round"/>
<path d="M372.28 119.44C369.72 119.52 367.8 119.84 366.52 120.4C365.24 120.88 364.36 121.84 363.88 123.28C363.48 124.64 363.28 126.8 363.28 129.76V189.28C363.28 192.16 363.48 194.32 363.88 195.76C364.36 197.2 365.24 198.16 366.52 198.64C367.8 199.12 369.72 199.44 372.28 199.6V202C370.04 201.84 367.2 201.76 363.76 201.76C360.4 201.68 356.96 201.64 353.44 201.64C349.6 201.64 346 201.68 342.64 201.76C339.28 201.76 336.559 201.84 334.479 202V199.6C337.199 199.44 339.24 199.12 340.6 198.64C342.04 198.16 342.999 197.2 343.479 195.76C343.959 194.32 344.2 192.16 344.2 189.28V126.555L315.28 202.12H313.36L280.96 124.84V182.32C280.96 186.72 281.2 190.121 281.68 192.521C282.16 194.84 283.2 196.52 284.8 197.56C286.48 198.52 289.08 199.2 292.6 199.6V202C291.08 201.84 289.079 201.76 286.6 201.76C284.12 201.68 281.8 201.64 279.64 201.64C277.8 201.64 275.92 201.68 274 201.76C272.08 201.76 270.48 201.84 269.2 202V199.6C271.76 199.2 273.68 198.52 274.96 197.56C276.24 196.6 277.08 195.04 277.479 192.88C277.959 190.64 278.2 187.6 278.2 183.76V129.76C278.2 126.8 277.959 124.64 277.479 123.28C277.079 121.84 276.2 120.88 274.84 120.4C273.56 119.84 271.68 119.52 269.2 119.44V117.04C270.48 117.12 272.08 117.2 274 117.28C275.92 117.36 277.8 117.4 279.64 117.4C283.08 117.4 286.44 117.36 289.72 117.28C293.08 117.2 296.04 117.12 298.6 117.04L322.785 175.432L344.92 117.4H353.44C356.96 117.4 360.4 117.36 363.76 117.28C367.2 117.2 370.04 117.12 372.28 117.04V119.44ZM347 119V200H350V119H347ZM314 197L315.5 193L286 124H283L314 197Z" fill="black"/>
<path d="M321.5 43.9995C323.433 43.9995 325 45.5675 325 47.5005C325 49.1286 323.888 50.4963 322.382 50.8872C322.436 51.1053 322.501 51.3559 322.576 51.6333C322.861 52.6826 323.296 54.103 323.894 55.5972C325.124 58.6733 326.897 61.6925 329.226 62.8276C331.623 63.9966 334.072 63.4482 336.025 62.4829C336.986 62.0081 337.789 61.4521 338.351 61.0132C338.499 60.897 338.63 60.7889 338.742 60.6938C338.283 60.1952 338 59.5316 338 58.8003C338 57.2541 339.254 56.0006 340.8 56.0005C342.346 56.0005 343.6 57.254 343.6 58.8003C343.599 60.3465 342.346 61.6001 340.8 61.6001C340.589 61.6001 340.385 61.5738 340.188 61.5298C340.555 61.9989 340.555 61.9993 340.555 61.9995L340.554 61.9985L340.553 62.0015L340.533 62.021C340.521 62.0331 340.503 62.0495 340.48 62.0708C340.435 62.1138 340.369 62.1751 340.285 62.2505C340.23 62.3003 340.164 62.3549 340.093 62.4165C340.095 62.4893 340.095 62.5661 340.099 62.646C340.127 63.3489 340.214 64.3037 340.441 65.3159C340.907 67.3862 341.909 69.468 343.934 70.3765C346.014 71.3096 348.516 70.9677 350.631 70.3003C351.671 69.972 352.573 69.5782 353.215 69.2661C353.336 69.2072 353.447 69.1499 353.549 69.0981C353.453 68.8161 353.4 68.5141 353.4 68.1997C353.401 66.6536 354.654 65.4 356.2 65.3999C357.746 65.4002 359 66.6537 359 68.1997C359 69.7459 357.746 70.9992 356.2 70.9995C355.941 70.9995 355.69 70.961 355.452 70.895L343.427 86.8843L343.384 86.8657C341.355 89.448 332.106 91.3999 321 91.3999L319.827 91.3921C309.248 91.2604 300.571 89.3575 298.614 86.8667L298.573 86.8843L286.547 70.895C286.309 70.9609 286.059 70.9995 285.8 70.9995C284.253 70.9994 283 69.746 283 68.1997C283 66.6536 284.254 65.4 285.8 65.3999C287.346 65.3999 288.599 66.6535 288.6 68.1997C288.6 68.5212 288.542 68.8292 288.442 69.1167C288.571 69.1897 288.718 69.2713 288.882 69.3589C289.546 69.7145 290.469 70.1657 291.516 70.5493C293.669 71.3387 296.057 71.7435 297.84 70.855C299.635 69.96 300.652 67.7676 301.188 65.5337C301.448 64.4523 301.578 63.4305 301.644 62.6772C301.676 62.3016 301.693 61.9949 301.701 61.7847C301.705 61.6799 301.707 61.5987 301.708 61.5454C301.708 61.5192 301.709 61.4993 301.709 61.4868V61.4712L302.523 61.5347C302.541 61.512 302.56 61.4893 302.579 61.4653L303.253 60.604L303.262 60.6128C303.27 60.6207 303.284 60.6338 303.302 60.6509C303.338 60.685 303.393 60.7368 303.466 60.8022C303.612 60.9337 303.83 61.1219 304.109 61.3403C304.671 61.7792 305.473 62.3362 306.435 62.811C308.388 63.7762 310.837 64.3246 313.234 63.1558C315.563 62.0207 317.336 59.0014 318.566 55.9253C319.164 54.431 319.599 53.0108 319.884 51.9614C320.021 51.4558 320.122 51.039 320.19 50.7456C318.907 50.2271 318 48.9701 318 47.5005C318 45.5675 319.567 43.9995 321.5 43.9995ZM321 82.1997C314.817 82.1997 309.284 82.8169 305.355 83.7817C303.376 84.268 301.914 84.8162 300.996 85.3491C300.672 85.5373 300.473 85.6908 300.351 85.7993C300.473 85.9078 300.672 86.061 300.996 86.2495C301.914 86.7825 303.375 87.3306 305.355 87.8169C309.284 88.7818 314.816 89.3999 321 89.3999C327.184 89.3999 332.717 88.7819 336.646 87.8169C338.625 87.3306 340.086 86.7824 341.004 86.2495C341.328 86.0614 341.526 85.9078 341.648 85.7993C341.526 85.6909 341.328 85.5371 341.004 85.3491C340.086 84.8162 338.625 84.268 336.646 83.7817C332.717 82.8168 327.184 82.1997 321 82.1997ZM321.28 53.4956C321.004 54.3984 320.656 55.4364 320.225 56.5151C318.964 59.668 316.867 63.5508 313.678 65.106C310.557 66.6271 307.567 65.8433 305.462 64.8032C304.762 64.4573 304.142 64.0729 303.624 63.7144C303.54 64.4136 303.41 65.2403 303.202 66.1069C302.649 68.4124 301.486 71.3036 298.923 72.5815C296.347 73.8654 293.199 73.1842 290.908 72.3442C290.487 72.1897 290.084 72.0259 289.708 71.8618L299.048 84.2817C301.742 81.9267 310.55 80.1997 321 80.1997C331.449 80.1997 340.256 81.9268 342.951 84.2817L352.434 71.6714C352.032 71.8282 351.598 71.9853 351.139 72.1304C348.823 72.8613 345.684 73.3752 342.922 72.1362C340.104 70.8719 338.924 68.1019 338.421 65.8638C338.26 65.1492 338.167 64.4642 338.108 63.8618C337.767 64.0707 337.395 64.2789 336.998 64.4751C334.893 65.5152 331.903 66.3 328.782 64.7788C325.593 63.2237 323.496 59.3409 322.235 56.188C321.855 55.2373 321.539 54.3181 321.28 53.4956ZM356.2 67.3999C355.759 67.4 355.401 67.7581 355.4 68.1997C355.4 68.6415 355.758 68.9994 356.2 68.9995C356.642 68.9992 357 68.6414 357 68.1997C357 67.7582 356.642 67.4002 356.2 67.3999ZM285.8 67.3999C285.358 67.4 285 67.7581 285 68.1997C285 68.6415 285.358 68.9994 285.8 68.9995C286.242 68.9995 286.6 68.6415 286.6 68.1997C286.599 67.7581 286.241 67.3999 285.8 67.3999ZM300.8 56.0005C302.346 56.0005 303.6 57.254 303.6 58.8003C303.599 60.3465 302.346 61.6001 300.8 61.6001C299.254 61.6 298 60.3464 298 58.8003C298 57.2541 299.254 56.0006 300.8 56.0005ZM300.8 58.0005C300.358 58.0006 300 58.3586 300 58.8003C300 59.2418 300.358 59.6 300.8 59.6001C301.241 59.6001 301.599 59.2419 301.6 58.8003C301.6 58.3586 301.242 58.0005 300.8 58.0005ZM340.8 58.0005C340.358 58.0006 340 58.3586 340 58.8003C340 59.2418 340.358 59.6 340.8 59.6001C341.241 59.6001 341.599 59.2419 341.6 58.8003C341.6 58.3586 341.242 58.0005 340.8 58.0005ZM321.5 46.0005C320.672 46.0005 320 46.6721 320 47.5005C320 48.3287 320.672 49.0005 321.5 49.0005C322.328 49.0005 323 48.3287 323 47.5005C323 46.6721 322.328 46.0005 321.5 46.0005Z" fill="black"/>
</svg>
