<svg width="965" height="256" viewBox="0 0 965 256" fill="none" xmlns="http://www.w3.org/2000/svg">
<path d="M929.44 94.4199V97.2199C926.266 97.3132 923.84 97.6866 922.16 98.3399C920.573 98.8999 919.5 100.02 918.94 101.7C918.38 103.287 918.1 105.807 918.1 109.26V179.82C918.1 182.807 918.333 185.093 918.8 186.68C919.36 188.173 920.34 189.153 921.74 189.62C923.14 190.087 925.146 190.32 927.76 190.32H935.74C939.38 190.32 942.553 189.667 945.26 188.36C948.06 187.053 950.486 185.14 952.54 182.62C954.593 180.1 956.273 177.02 957.58 173.38C958.886 169.647 959.82 165.447 960.38 160.78H963.6C963.32 163.86 963.18 167.873 963.18 172.82C963.18 174.873 963.226 177.813 963.32 181.64C963.506 185.467 963.786 189.433 964.16 193.54C959.4 193.353 954.033 193.26 948.06 193.26C942.086 193.167 936.766 193.12 932.1 193.12C929.86 193.12 927.013 193.12 923.56 193.12C920.106 193.12 916.326 193.167 912.22 193.26C908.206 193.26 904.1 193.307 899.9 193.4C895.793 193.4 891.873 193.447 888.14 193.54V190.74C891.22 190.553 893.506 190.18 895 189.62C896.586 189.06 897.613 187.94 898.08 186.26C898.64 184.58 898.92 182.06 898.92 178.7V109.26C898.92 105.807 898.64 103.287 898.08 101.7C897.613 100.02 896.586 98.8999 895 98.3399C893.506 97.6866 891.22 97.3132 888.14 97.2199V94.4199C890.473 94.5133 893.46 94.6066 897.1 94.6999C900.74 94.7932 904.66 94.8399 908.86 94.8399C912.686 94.8399 916.466 94.7932 920.2 94.6999C923.933 94.6066 927.013 94.5133 929.44 94.4199Z" fill="black"/>
<path d="M835.116 94L869.136 181.78C870.536 185.14 872.029 187.473 873.616 188.78C875.296 189.993 876.836 190.647 878.236 190.74V193.54C875.809 193.353 872.869 193.26 869.416 193.26C866.056 193.167 862.603 193.12 859.056 193.12C854.949 193.12 851.123 193.167 847.576 193.26C844.029 193.26 841.136 193.353 838.896 193.54V190.74C843.656 190.553 846.689 189.76 847.996 188.36C849.303 186.867 849.023 183.74 847.156 178.98L822.516 112.48L825.036 109.4L802.636 167.5C800.863 172.167 799.789 175.993 799.416 178.98C799.043 181.967 799.276 184.3 800.116 185.98C800.956 187.66 802.356 188.873 804.316 189.62C806.276 190.273 808.703 190.647 811.596 190.74V193.54C808.609 193.353 805.716 193.26 802.916 193.26C800.116 193.167 797.316 193.12 794.516 193.12C792.463 193.12 790.503 193.167 788.636 193.26C786.863 193.26 785.276 193.353 783.876 193.54V190.74C785.929 190.273 787.936 189.06 789.896 187.1C791.949 185.14 793.909 181.733 795.776 176.88L827.836 94C828.956 94.0933 830.169 94.14 831.476 94.14C832.783 94.14 833.996 94.0933 835.116 94ZM847.296 153.22V156.02H805.576L806.976 153.22H847.296Z" fill="black"/>
<path d="M772.091 94.4199V97.2199C769.104 97.3132 766.817 97.6866 765.231 98.3399C763.644 98.8999 762.571 100.02 762.011 101.7C761.544 103.287 761.311 105.807 761.311 109.26V178.7C761.311 182.06 761.591 184.58 762.151 186.26C762.711 187.94 763.737 189.06 765.231 189.62C766.817 190.18 769.104 190.553 772.091 190.74V193.54C769.664 193.353 766.584 193.26 762.851 193.26C759.117 193.167 755.337 193.12 751.511 193.12C747.311 193.12 743.344 193.167 739.611 193.26C735.971 193.26 733.031 193.353 730.791 193.54V190.74C733.964 190.553 736.344 190.18 737.931 189.62C739.611 189.06 740.731 187.94 741.291 186.26C741.851 184.58 742.131 182.06 742.131 178.7V102.54L743.111 102.68L708.391 193.96H706.151L669.191 103.38V172.82C669.191 177.3 669.471 180.8 670.031 183.32C670.591 185.747 671.804 187.52 673.671 188.64C675.631 189.667 678.571 190.367 682.491 190.74V193.54C680.717 193.353 678.431 193.26 675.631 193.26C672.831 193.167 670.171 193.12 667.651 193.12C665.411 193.12 663.124 193.167 660.791 193.26C658.551 193.26 656.684 193.353 655.191 193.54V190.74C658.271 190.367 660.557 189.667 662.051 188.64C663.637 187.613 664.664 185.933 665.131 183.6C665.691 181.267 665.971 178.047 665.971 173.94V109.26C665.971 105.807 665.691 103.287 665.131 101.7C664.664 100.02 663.637 98.8999 662.051 98.3399C660.557 97.6866 658.271 97.3132 655.191 97.2199V94.4199C656.684 94.5133 658.551 94.6066 660.791 94.6999C663.124 94.7932 665.411 94.8399 667.651 94.8399C671.104 94.8399 674.464 94.7932 677.731 94.6999C680.997 94.6066 683.891 94.5133 686.411 94.4199L716.511 169.6L713.431 172.12L742.691 94.8399C744.091 94.8399 745.537 94.8399 747.031 94.8399C748.617 94.8399 750.111 94.8399 751.511 94.8399C755.337 94.8399 759.117 94.7932 762.851 94.6999C766.584 94.6066 769.664 94.5133 772.091 94.4199Z" fill="black"/>
<path d="M602.027 94L636.047 181.78C637.447 185.14 638.94 187.473 640.527 188.78C642.207 189.993 643.747 190.647 645.147 190.74V193.54C642.72 193.353 639.78 193.26 636.327 193.26C632.967 193.167 629.514 193.12 625.967 193.12C621.86 193.12 618.034 193.167 614.487 193.26C610.94 193.26 608.047 193.353 605.807 193.54V190.74C610.567 190.553 613.6 189.76 614.907 188.36C616.214 186.867 615.934 183.74 614.067 178.98L589.427 112.48L591.947 109.4L569.547 167.5C567.774 172.167 566.7 175.993 566.327 178.98C565.954 181.967 566.187 184.3 567.027 185.98C567.867 187.66 569.267 188.873 571.227 189.62C573.187 190.273 575.614 190.647 578.507 190.74V193.54C575.52 193.353 572.627 193.26 569.827 193.26C567.027 193.167 564.227 193.12 561.427 193.12C559.374 193.12 557.414 193.167 555.547 193.26C553.774 193.26 552.187 193.353 550.787 193.54V190.74C552.84 190.273 554.847 189.06 556.807 187.1C558.86 185.14 560.82 181.733 562.687 176.88L594.747 94C595.867 94.0933 597.08 94.14 598.387 94.14C599.694 94.14 600.907 94.0933 602.027 94ZM614.207 153.22V156.02H572.487L573.887 153.22H614.207Z" fill="black"/>
<path d="M539.963 94.4199V97.2199C536.883 97.7799 533.756 98.9466 530.583 100.72C527.41 102.493 524.143 105.387 520.783 109.4L494.323 141.88L500.623 131.8L534.083 182.2C535.576 184.347 537.116 186.073 538.703 187.38C540.29 188.687 542.343 189.807 544.863 190.74V193.54C541.97 193.353 538.656 193.26 534.923 193.26C531.19 193.167 527.783 193.12 524.703 193.12C522.93 193.12 520.69 193.167 517.983 193.26C515.37 193.26 512.056 193.353 508.043 193.54V190.74C511.776 190.553 514.016 190.04 514.763 189.2C515.51 188.267 515.183 186.68 513.783 184.44L493.343 152.24C491.85 149.813 490.496 147.993 489.283 146.78C488.163 145.567 486.996 144.773 485.783 144.4C484.57 143.933 483.076 143.653 481.303 143.56V140.76C485.223 140.573 488.723 139.547 491.803 137.68C494.883 135.813 497.963 133.06 501.043 129.42L510.983 116.96C514.436 112.853 516.536 109.353 517.283 106.46C518.03 103.567 517.61 101.327 516.023 99.7399C514.436 98.1532 511.776 97.3132 508.043 97.2199V94.4199C510.096 94.5133 512.15 94.6066 514.203 94.6999C516.256 94.6999 518.31 94.7466 520.363 94.8399C522.51 94.8399 524.75 94.8399 527.083 94.8399C529.79 94.8399 532.216 94.7932 534.363 94.6999C536.51 94.6066 538.376 94.5133 539.963 94.4199ZM492.643 94.4199V97.2199C489.656 97.3132 487.37 97.6866 485.783 98.3399C484.29 98.8999 483.263 100.02 482.703 101.7C482.143 103.287 481.863 105.807 481.863 109.26V178.7C481.863 182.06 482.143 184.58 482.703 186.26C483.263 187.94 484.29 189.06 485.783 189.62C487.37 190.18 489.656 190.553 492.643 190.74V193.54C490.31 193.353 487.323 193.26 483.683 193.26C480.043 193.167 476.356 193.12 472.623 193.12C468.423 193.12 464.503 193.167 460.863 193.26C457.223 193.26 454.236 193.353 451.903 193.54V190.74C454.983 190.553 457.27 190.18 458.763 189.62C460.35 189.06 461.376 187.94 461.843 186.26C462.403 184.58 462.683 182.06 462.683 178.7V109.26C462.683 105.807 462.403 103.287 461.843 101.7C461.376 100.02 460.35 98.8999 458.763 98.3399C457.27 97.6866 454.983 97.3132 451.903 97.2199V94.4199C454.236 94.5133 457.223 94.6066 460.863 94.6999C464.503 94.7932 468.423 94.8399 472.623 94.8399C476.356 94.8399 480.043 94.7932 483.683 94.6999C487.323 94.6066 490.31 94.5133 492.643 94.4199Z" fill="black"/>
<path d="M386.164 219.86V217.06C389.991 216.873 393.258 215.847 395.964 213.98C398.764 212.113 400.864 208.94 402.264 204.46C403.664 199.98 404.364 193.867 404.364 186.12V109.26C404.364 105.807 404.084 103.287 403.524 101.7C403.058 100.02 402.031 98.8999 400.444 98.3399C398.858 97.6866 396.571 97.3132 393.584 97.2199V94.4199C395.731 94.5133 398.578 94.6066 402.124 94.6999C405.764 94.7932 409.544 94.8399 413.464 94.8399C417.384 94.8399 421.211 94.7932 424.944 94.6999C428.771 94.6066 431.898 94.5133 434.324 94.4199V97.2199C431.244 97.3132 428.911 97.6866 427.324 98.3399C425.831 98.8999 424.804 100.02 424.244 101.7C423.778 103.287 423.544 105.807 423.544 109.26V160.5C423.544 164.327 423.498 168.48 423.404 172.96C423.404 177.44 423.218 181.78 422.844 185.98C422.564 190.18 422.004 193.867 421.164 197.04C419.391 203.573 415.564 208.987 409.684 213.28C403.804 217.667 395.964 219.86 386.164 219.86Z" fill="black"/>
<path d="M338.526 94L372.546 181.78C373.946 185.14 375.439 187.473 377.026 188.78C378.706 189.993 380.246 190.647 381.646 190.74V193.54C379.219 193.353 376.279 193.26 372.826 193.26C369.466 193.167 366.013 193.12 362.466 193.12C358.359 193.12 354.533 193.167 350.986 193.26C347.439 193.26 344.546 193.353 342.306 193.54V190.74C347.066 190.553 350.099 189.76 351.406 188.36C352.713 186.867 352.433 183.74 350.566 178.98L325.926 112.48L328.446 109.4L306.046 167.5C304.273 172.167 303.199 175.993 302.826 178.98C302.453 181.967 302.686 184.3 303.526 185.98C304.366 187.66 305.766 188.873 307.726 189.62C309.686 190.273 312.113 190.647 315.006 190.74V193.54C312.019 193.353 309.126 193.26 306.326 193.26C303.526 193.167 300.726 193.12 297.926 193.12C295.873 193.12 293.913 193.167 292.046 193.26C290.273 193.26 288.686 193.353 287.286 193.54V190.74C289.339 190.273 291.346 189.06 293.306 187.1C295.359 185.14 297.319 181.733 299.186 176.88L331.246 94C332.366 94.0933 333.579 94.14 334.886 94.14C336.193 94.14 337.406 94.0933 338.526 94ZM350.706 153.22V156.02H308.986L310.386 153.22H350.706Z" fill="black"/>
<path d="M191 94.4199C193.333 94.5133 196.32 94.6066 199.96 94.6999C203.6 94.7932 207.24 94.8399 210.88 94.8399C215.453 94.8399 219.793 94.7932 223.9 94.6999C228.007 94.6066 230.9 94.5599 232.58 94.5599C240.98 94.5599 247.887 95.5866 253.3 97.6399C258.807 99.5999 262.913 102.4 265.62 106.04C268.327 109.68 269.68 113.973 269.68 118.92C269.68 122 269.073 125.173 267.86 128.44C266.647 131.613 264.547 134.553 261.56 137.26C258.573 139.967 254.467 142.207 249.24 143.98C244.107 145.66 237.527 146.5 229.5 146.5H216.06V143.7H228.1C233.98 143.7 238.46 142.673 241.54 140.62C244.713 138.473 246.813 135.673 247.84 132.22C248.96 128.673 249.52 124.753 249.52 120.46C249.52 113.087 248.073 107.393 245.18 103.38C242.287 99.2732 237.293 97.2199 230.2 97.2199C226.373 97.2199 223.853 98.0132 222.64 99.5999C221.52 101.187 220.96 104.407 220.96 109.26V178.7C220.96 182.06 221.24 184.58 221.8 186.26C222.36 187.94 223.387 189.06 224.88 189.62C226.467 190.18 228.753 190.553 231.74 190.74V193.54C229.407 193.353 226.42 193.26 222.78 193.26C219.14 193.167 215.453 193.12 211.72 193.12C207.52 193.12 203.6 193.167 199.96 193.26C196.32 193.26 193.333 193.353 191 193.54V190.74C194.08 190.553 196.367 190.18 197.86 189.62C199.447 189.06 200.473 187.94 200.94 186.26C201.5 184.58 201.78 182.06 201.78 178.7V109.26C201.78 105.807 201.5 103.287 200.94 101.7C200.473 100.02 199.447 98.8999 197.86 98.3399C196.367 97.6866 194.08 97.3132 191 97.2199V94.4199ZM216.06 144.12C220.447 144.307 224.087 144.54 226.98 144.82C229.967 145.007 232.487 145.193 234.54 145.38C236.687 145.567 238.6 145.8 240.28 146.08C248.027 146.827 253.72 148.647 257.36 151.54C261.093 154.34 263.567 158.633 264.78 164.42L268 178.84C268.84 182.667 269.727 185.42 270.66 187.1C271.687 188.687 273.133 189.433 275 189.34C276.307 189.34 277.427 189.013 278.36 188.36C279.293 187.613 280.227 186.633 281.16 185.42L283.12 187.1C280.787 189.993 278.313 192.14 275.7 193.54C273.087 194.847 269.773 195.5 265.76 195.5C261.28 195.5 257.5 194.473 254.42 192.42C251.34 190.273 249.24 186.26 248.12 180.38L245.46 166.38C244.713 162.46 243.827 159.007 242.8 156.02C241.867 153.033 240.56 150.7 238.88 149.02C237.2 147.34 234.727 146.5 231.46 146.5H216.34L216.06 144.12Z" fill="black"/>
<path d="M142 88.3281C138.474 88.4391 135.829 88.8826 134.065 89.6592C132.302 90.3249 131.09 91.6571 130.429 93.6543C129.878 95.5405 129.602 98.5364 129.602 102.642V185.191C129.602 189.186 129.878 192.182 130.429 194.179C131.09 196.176 132.302 197.508 134.065 198.174C135.829 198.839 138.474 199.283 142 199.505V202.833C138.914 202.611 135.002 202.501 130.263 202.501C125.634 202.39 120.896 202.334 116.047 202.334C110.757 202.334 105.798 202.39 101.169 202.501C96.5403 202.501 92.7931 202.611 89.9277 202.833V199.505C93.6745 199.283 96.4849 198.839 98.3584 198.174C100.342 197.508 101.665 196.176 102.326 194.179C102.987 192.182 103.317 189.186 103.317 185.191V98.1963L63.4785 203H60.834L16.2002 95.8174V175.539C16.2002 181.641 16.5312 186.357 17.1924 189.686C17.8536 192.903 19.2862 195.233 21.4902 196.676C23.8046 198.007 27.3864 198.95 32.2354 199.505V202.833C30.1415 202.611 27.3861 202.501 23.9697 202.501C20.5534 202.39 17.3573 202.334 14.3818 202.334C11.8472 202.334 9.25716 202.39 6.6123 202.501C3.9675 202.501 1.76323 202.611 0 202.833V199.505C3.52627 198.95 6.17128 198.007 7.93457 196.676C9.69786 195.344 10.8552 193.18 11.4062 190.185C12.0675 187.078 12.3984 182.862 12.3984 177.536V102.642C12.3984 98.5364 12.0674 95.5405 11.4062 93.6543C10.8552 91.6571 9.64302 90.3249 7.76953 89.6592C6.00625 88.8826 3.41615 88.4391 0 88.3281V85C1.76322 85.1109 3.9675 85.2211 6.6123 85.332C9.25716 85.443 11.8472 85.499 14.3818 85.499C19.1205 85.499 23.7493 85.443 28.2676 85.332C32.8962 85.2211 36.9744 85.111 40.501 85L73.8184 165.985L104.31 85.499H116.047C120.896 85.499 125.634 85.443 130.263 85.332C135.002 85.2211 138.914 85.111 142 85V88.3281Z" fill="black"/>
<path d="M72.1113 0C74.4766 0 76.3944 1.91792 76.3945 4.2832L76.3887 4.50293C76.2893 6.46627 74.8681 8.08028 72.9971 8.47363C73.063 8.73807 73.1408 9.04041 73.2314 9.37402C73.5826 10.6658 74.1187 12.4154 74.8555 14.2578C76.3642 18.0305 78.5702 21.8227 81.5156 23.2588C84.5306 24.7286 87.5884 24.0304 89.9961 22.8408C91.1395 22.2758 92.0977 21.6156 92.7861 21.084C92.509 20.6188 92.3367 20.0833 92.3076 19.5098L92.3027 19.334C92.3029 17.4419 93.8374 15.9073 95.7295 15.9072L95.9053 15.9121C97.7156 16.0038 99.1551 17.5009 99.1553 19.334L99.1514 19.5098C99.0597 21.3201 97.5625 22.7595 95.7295 22.7598L95.5527 22.7559C95.2324 22.7396 94.924 22.6784 94.6328 22.5801C94.6351 22.6638 94.6359 22.7517 94.6396 22.8428C94.6752 23.7112 94.7827 24.8923 95.0645 26.1455C95.6384 28.6977 96.8836 31.3222 99.4502 32.4736C102.073 33.65 105.205 33.2125 107.815 32.3887C109.103 31.9821 110.219 31.4943 111.014 31.1084C111.234 31.0014 111.429 30.9021 111.595 30.8154C111.338 30.3641 111.18 29.8492 111.152 29.2998L111.147 29.124C111.147 27.2317 112.682 25.6973 114.574 25.6973L114.75 25.7021C116.56 25.7939 118 27.2909 118 29.124L117.996 29.2998C117.904 31.11 116.407 32.5495 114.574 32.5498L114.397 32.5459C114.17 32.5344 113.95 32.4989 113.736 32.4453L99.3418 51.5859C98.426 55.1673 86.3122 58.0029 71.5 58.0029L70.0635 57.9941C55.9099 57.8178 44.5411 55.0504 43.6572 51.585L29.2637 32.4453C28.9957 32.5126 28.7156 32.5498 28.4268 32.5498L28.25 32.5459C26.4981 32.4571 25.0937 31.0517 25.0049 29.2998L25 29.124C25 27.2317 26.5345 25.6973 28.4268 25.6973L28.6025 25.7021C30.4129 25.7939 31.8525 27.2908 31.8525 29.124L31.8486 29.2998C31.8205 29.8549 31.6591 30.3745 31.3975 30.8291C31.5895 30.94 31.8243 31.0724 32.0957 31.2178C32.9155 31.6569 34.0578 32.2138 35.3525 32.6885C38.003 33.6601 41.0095 34.1872 43.2803 33.0557C45.5632 31.9177 46.8242 29.1568 47.4824 26.415C47.8029 25.0799 47.9642 23.8191 48.0449 22.8906C48.0488 22.8458 48.0502 22.8011 48.0537 22.7578C48.0378 22.758 48.0218 22.7598 48.0059 22.7598L47.8291 22.7559C46.0771 22.6671 44.6728 21.2618 44.584 19.5098L44.5791 19.334C44.5793 17.4418 46.1137 15.9072 48.0059 15.9072L48.1816 15.9121C49.9919 16.0038 51.4315 17.5009 51.4316 19.334L51.4277 19.5098C51.391 20.2342 51.1263 20.8974 50.708 21.4346C51.4005 21.9749 52.386 22.6585 53.5674 23.2422C55.975 24.4316 59.0321 25.1288 62.0469 23.6592C64.9923 22.2232 67.1992 18.4319 68.708 14.6592C69.4448 12.8167 69.9809 11.0672 70.332 9.77539C70.4937 9.18064 70.6133 8.68499 70.6973 8.32617C69.0929 7.76506 67.9237 6.27648 67.834 4.50293L67.8291 4.2832C67.8292 1.99179 69.6287 0.120495 71.8916 0.00585938L72.1113 0ZM71.5 46.2979C63.9079 46.2979 57.0997 47.0554 52.248 48.2471C49.8071 48.8466 47.9727 49.5302 46.7969 50.2129C46.1226 50.6045 45.8263 50.898 45.6963 51.0615L46.1182 51.623L46.1045 51.6279C46.2736 51.7598 46.4981 51.9144 46.7969 52.0879C47.9727 52.7706 49.807 53.4541 52.248 54.0537C57.0997 55.2454 63.9079 56.0029 71.5 56.0029C79.0919 56.0029 85.8993 55.2453 90.751 54.0537C93.1922 53.4541 95.0272 52.7707 96.2031 52.0879C96.5015 51.9146 96.7256 51.7597 96.8945 51.6279L96.8828 51.623L97.3037 51.0625C97.1741 50.899 96.8781 50.6049 96.2031 50.2129C95.0272 49.5301 93.1922 48.8467 90.751 48.2471C85.8993 47.0555 79.0919 46.2979 71.5 46.2979ZM71.8398 10.9463C71.4803 12.1791 70.9943 13.6784 70.3662 15.249C68.8267 19.0987 66.2973 23.7543 62.4902 25.6104C58.7527 27.4324 55.154 26.4978 52.5947 25.2334C51.5988 24.7413 50.7355 24.1868 50.0498 23.6914C49.9529 24.616 49.7885 25.7701 49.4961 26.9883C48.8207 29.8016 47.4134 33.2604 44.3623 34.7812C41.2988 36.3081 37.5324 35.5066 34.7441 34.4844C33.9374 34.1886 33.1891 33.8644 32.5303 33.5537L44.4756 49.4395C47.569 46.4825 58.4959 44.2979 71.5 44.2979L72.9355 44.3066C85.3018 44.4606 95.5431 46.5932 98.5225 49.4404L110.606 33.3721C109.936 33.6567 109.165 33.9531 108.323 34.2188C105.512 35.1061 101.743 35.7155 98.4385 34.2334C95.0784 32.7261 93.6555 29.4134 93.0439 26.6934C92.815 25.6751 92.6922 24.7066 92.6279 23.8906C92.1301 24.2088 91.5738 24.5336 90.9678 24.833C88.4086 26.0973 84.8106 27.0309 81.0732 25.209C77.2662 23.353 74.7358 18.6983 73.1963 14.8486C72.6347 13.4443 72.1858 12.097 71.8398 10.9463ZM114.574 27.6973C113.786 27.6973 113.147 28.3363 113.147 29.124C113.148 29.9115 113.787 30.5498 114.574 30.5498C115.362 30.5495 116 29.9113 116 29.124C116 28.3365 115.362 27.6975 114.574 27.6973ZM28.4268 27.6973C27.639 27.6973 27 28.3363 27 29.124C27.0003 29.9115 27.6392 30.5498 28.4268 30.5498C29.2141 30.5496 29.8522 29.9113 29.8525 29.124C29.8525 28.3364 29.2143 27.6975 28.4268 27.6973ZM48.0059 17.9072C47.2182 17.9072 46.5793 18.5464 46.5791 19.334C46.5793 20.1215 47.2183 20.7598 48.0059 20.7598C48.7932 20.7595 49.4314 20.1214 49.4316 19.334C49.4315 18.5466 48.7933 17.9075 48.0059 17.9072ZM95.7295 17.9072C94.9419 17.9073 94.3029 18.5464 94.3027 19.334C94.303 20.1215 94.942 20.7597 95.7295 20.7598C96.5169 20.7595 97.155 20.1214 97.1553 19.334C97.1551 18.5465 96.5169 17.9075 95.7295 17.9072ZM72.1113 2C70.8508 2.00029 69.8292 3.02267 69.8291 4.2832C69.8293 5.54371 70.8509 6.56514 72.1113 6.56543C73.372 6.56543 74.3944 5.54388 74.3945 4.2832C74.3944 3.02249 73.3721 2 72.1113 2Z" fill="black"/>
<path d="M646.196 247V217.909H664.236V221.688H650.585V230.551H662.943V234.315H650.585V247H646.196ZM700.341 217.909H704.744V237.043C704.744 239.079 704.266 240.883 703.31 242.455C702.353 244.017 701.009 245.248 699.276 246.148C697.543 247.038 695.511 247.483 693.182 247.483C690.862 247.483 688.835 247.038 687.102 246.148C685.369 245.248 684.025 244.017 683.068 242.455C682.112 240.883 681.634 239.079 681.634 237.043V217.909H686.023V236.688C686.023 238.004 686.312 239.173 686.889 240.196C687.476 241.219 688.305 242.024 689.375 242.611C690.445 243.188 691.714 243.477 693.182 243.477C694.659 243.477 695.933 243.188 697.003 242.611C698.082 242.024 698.906 241.219 699.474 240.196C700.052 239.173 700.341 238.004 700.341 236.688V217.909ZM723.126 247V217.909H733.495C735.749 217.909 737.619 218.297 739.106 219.074C740.602 219.85 741.719 220.925 742.458 222.298C743.197 223.662 743.566 225.239 743.566 227.028C743.566 228.809 743.192 230.376 742.444 231.73C741.705 233.075 740.588 234.121 739.092 234.869C737.605 235.617 735.735 235.991 733.481 235.991H725.626V232.213H733.083C734.504 232.213 735.659 232.009 736.549 231.602C737.449 231.195 738.107 230.603 738.523 229.827C738.94 229.05 739.148 228.117 739.148 227.028C739.148 225.93 738.935 224.978 738.509 224.173C738.093 223.368 737.434 222.753 736.535 222.327C735.645 221.891 734.475 221.673 733.026 221.673H727.515V247H723.126ZM737.487 233.875L744.674 247H739.674L732.629 233.875H737.487ZM784.387 217.909V247H780.353L765.566 225.665H765.296V247H760.907V217.909H764.969L779.771 239.273H780.04V217.909H784.387ZM807.179 217.909V247H802.79V217.909H807.179ZM824.136 221.688V217.909H846.651V221.688H837.574V247H833.199V221.688H824.136ZM882.333 217.909H886.737V237.043C886.737 239.079 886.258 240.883 885.302 242.455C884.345 244.017 883.001 245.248 881.268 246.148C879.535 247.038 877.504 247.483 875.174 247.483C872.854 247.483 870.827 247.038 869.094 246.148C867.362 245.248 866.017 244.017 865.06 242.455C864.104 240.883 863.626 239.079 863.626 237.043V217.909H868.015V236.688C868.015 238.004 868.304 239.173 868.881 240.196C869.469 241.219 870.297 242.024 871.367 242.611C872.437 243.188 873.706 243.477 875.174 243.477C876.651 243.477 877.925 243.188 878.995 242.611C880.075 242.024 880.898 241.219 881.467 240.196C882.044 239.173 882.333 238.004 882.333 236.688V217.909ZM905.118 247V217.909H915.487C917.741 217.909 919.611 218.297 921.098 219.074C922.594 219.85 923.712 220.925 924.45 222.298C925.189 223.662 925.558 225.239 925.558 227.028C925.558 228.809 925.184 230.376 924.436 231.73C923.697 233.075 922.58 234.121 921.084 234.869C919.597 235.617 917.727 235.991 915.473 235.991H907.618V232.213H915.075C916.496 232.213 917.651 232.009 918.541 231.602C919.441 231.195 920.099 230.603 920.516 229.827C920.932 229.05 921.141 228.117 921.141 227.028C921.141 225.93 920.928 224.978 920.501 224.173C920.085 223.368 919.427 222.753 918.527 222.327C917.637 221.891 916.467 221.673 915.018 221.673H909.507V247H905.118ZM919.479 233.875L926.666 247H921.666L914.621 233.875H919.479ZM942.899 247V217.909H961.138V221.688H947.288V230.551H960.186V234.315H947.288V243.222H961.308V247H942.899Z" fill="black"/>
</svg>
