<svg width="787" height="228" viewBox="0 0 787 228" fill="none" xmlns="http://www.w3.org/2000/svg">
<path d="M175.96 88.119C177.793 88.1924 180.14 88.2657 183 88.339C185.86 88.4124 188.72 88.449 191.58 88.449C195.173 88.449 198.583 88.4124 201.81 88.339C205.037 88.2657 207.31 88.229 208.63 88.229C215.23 88.229 220.657 89.0357 224.91 90.649C229.237 92.189 232.463 94.389 234.59 97.249C236.717 100.109 237.78 103.482 237.78 107.369C237.78 109.789 237.303 112.282 236.35 114.849C235.397 117.342 233.747 119.652 231.4 121.779C229.053 123.906 225.827 125.666 221.72 127.059C217.687 128.379 212.517 129.039 206.21 129.039H195.65V126.839H205.11C209.73 126.839 213.25 126.032 215.67 124.419C218.163 122.732 219.813 120.532 220.62 117.819C221.5 115.032 221.94 111.952 221.94 108.579C221.94 102.786 220.803 98.3124 218.53 95.159C216.257 91.9324 212.333 90.319 206.76 90.319C203.753 90.319 201.773 90.9424 200.82 92.189C199.94 93.4357 199.5 95.9657 199.5 99.779V154.339C199.5 156.979 199.72 158.959 200.16 160.279C200.6 161.599 201.407 162.479 202.58 162.919C203.827 163.359 205.623 163.652 207.97 163.799V165.999C206.137 165.852 203.79 165.779 200.93 165.779C198.07 165.706 195.173 165.669 192.24 165.669C188.94 165.669 185.86 165.706 183 165.779C180.14 165.779 177.793 165.852 175.96 165.999V163.799C178.38 163.652 180.177 163.359 181.35 162.919C182.597 162.479 183.403 161.599 183.77 160.279C184.21 158.959 184.43 156.979 184.43 154.339V99.779C184.43 97.0657 184.21 95.0857 183.77 93.839C183.403 92.519 182.597 91.639 181.35 91.199C180.177 90.6857 178.38 90.3924 175.96 90.319V88.119ZM195.65 127.169C199.097 127.316 201.957 127.499 204.23 127.719C206.577 127.866 208.557 128.012 210.17 128.159C211.857 128.306 213.36 128.489 214.68 128.709C220.767 129.296 225.24 130.726 228.1 132.999C231.033 135.199 232.977 138.572 233.93 143.119L236.46 154.449C237.12 157.456 237.817 159.619 238.55 160.939C239.357 162.186 240.493 162.772 241.96 162.699C242.987 162.699 243.867 162.442 244.6 161.929C245.333 161.342 246.067 160.572 246.8 159.619L248.34 160.939C246.507 163.212 244.563 164.899 242.51 165.999C240.457 167.026 237.853 167.539 234.7 167.539C231.18 167.539 228.21 166.732 225.79 165.119C223.37 163.432 221.72 160.279 220.84 155.659L218.75 144.659C218.163 141.579 217.467 138.866 216.66 136.519C215.927 134.172 214.9 132.339 213.58 131.019C212.26 129.699 210.317 129.039 207.75 129.039H195.87L195.65 127.169ZM291.873 87.789L318.603 156.759C319.703 159.399 320.877 161.232 322.123 162.259C323.443 163.212 324.653 163.726 325.753 163.799V165.999C323.847 165.852 321.537 165.779 318.823 165.779C316.183 165.706 313.47 165.669 310.683 165.669C307.457 165.669 304.45 165.706 301.663 165.779C298.877 165.779 296.603 165.852 294.843 165.999V163.799C298.583 163.652 300.967 163.029 301.993 161.929C303.02 160.756 302.8 158.299 301.333 154.559L281.973 102.309L283.953 99.889L266.353 145.539C264.96 149.206 264.117 152.212 263.823 154.559C263.53 156.906 263.713 158.739 264.373 160.059C265.033 161.379 266.133 162.332 267.673 162.919C269.213 163.432 271.12 163.726 273.393 163.799V165.999C271.047 165.852 268.773 165.779 266.573 165.779C264.373 165.706 262.173 165.669 259.973 165.669C258.36 165.669 256.82 165.706 255.353 165.779C253.96 165.779 252.713 165.852 251.613 165.999V163.799C253.227 163.432 254.803 162.479 256.343 160.939C257.957 159.399 259.497 156.722 260.963 152.909L286.153 87.789C287.033 87.8624 287.987 87.899 289.013 87.899C290.04 87.899 290.993 87.8624 291.873 87.789ZM301.443 134.319V136.519H268.663L269.763 134.319H301.443ZM329.303 186.679V184.479C332.31 184.332 334.877 183.526 337.003 182.059C339.203 180.592 340.853 178.099 341.953 174.579C343.053 171.059 343.603 166.256 343.603 160.169V99.779C343.603 97.0657 343.383 95.0857 342.943 93.839C342.577 92.519 341.77 91.639 340.523 91.199C339.277 90.6857 337.48 90.3924 335.133 90.319V88.119C336.82 88.1924 339.057 88.2657 341.843 88.339C344.703 88.4124 347.673 88.449 350.753 88.449C353.833 88.449 356.84 88.4124 359.773 88.339C362.78 88.2657 365.237 88.1924 367.143 88.119V90.319C364.723 90.3924 362.89 90.6857 361.643 91.199C360.47 91.639 359.663 92.519 359.223 93.839C358.857 95.0857 358.673 97.0657 358.673 99.779V140.039C358.673 143.046 358.637 146.309 358.563 149.829C358.563 153.349 358.417 156.759 358.123 160.059C357.903 163.359 357.463 166.256 356.803 168.749C355.41 173.882 352.403 178.136 347.783 181.509C343.163 184.956 337.003 186.679 329.303 186.679ZM450.145 88.119V90.319C447.725 90.759 445.269 91.6757 442.775 93.069C440.282 94.4624 437.715 96.7357 435.075 99.889L414.285 125.409L419.235 117.489L445.525 157.089C446.699 158.776 447.909 160.132 449.155 161.159C450.402 162.186 452.015 163.066 453.995 163.799V165.999C451.722 165.852 449.119 165.779 446.185 165.779C443.252 165.706 440.575 165.669 438.155 165.669C436.762 165.669 435.002 165.706 432.875 165.779C430.822 165.779 428.219 165.852 425.065 165.999V163.799C427.999 163.652 429.759 163.249 430.345 162.589C430.932 161.856 430.675 160.609 429.575 158.849L413.515 133.549C412.342 131.642 411.279 130.212 410.325 129.259C409.445 128.306 408.529 127.682 407.575 127.389C406.622 127.022 405.449 126.802 404.055 126.729V124.529C407.135 124.382 409.885 123.576 412.305 122.109C414.725 120.642 417.145 118.479 419.565 115.619L427.375 105.829C430.089 102.602 431.739 99.8524 432.325 97.579C432.912 95.3057 432.582 93.5457 431.335 92.299C430.089 91.0524 427.999 90.3924 425.065 90.319V88.119C426.679 88.1924 428.292 88.2657 429.905 88.339C431.519 88.339 433.132 88.3757 434.745 88.449C436.432 88.449 438.192 88.449 440.025 88.449C442.152 88.449 444.059 88.4124 445.745 88.339C447.432 88.2657 448.899 88.1924 450.145 88.119ZM412.965 88.119V90.319C410.619 90.3924 408.822 90.6857 407.575 91.199C406.402 91.639 405.595 92.519 405.155 93.839C404.715 95.0857 404.495 97.0657 404.495 99.779V154.339C404.495 156.979 404.715 158.959 405.155 160.279C405.595 161.599 406.402 162.479 407.575 162.919C408.822 163.359 410.619 163.652 412.965 163.799V165.999C411.132 165.852 408.785 165.779 405.925 165.779C403.065 165.706 400.169 165.669 397.235 165.669C393.935 165.669 390.855 165.706 387.995 165.779C385.135 165.779 382.789 165.852 380.955 165.999V163.799C383.375 163.652 385.172 163.359 386.345 162.919C387.592 162.479 388.399 161.599 388.765 160.279C389.205 158.959 389.425 156.979 389.425 154.339V99.779C389.425 97.0657 389.205 95.0857 388.765 93.839C388.399 92.519 387.592 91.639 386.345 91.199C385.172 90.6857 383.375 90.3924 380.955 90.319V88.119C382.789 88.1924 385.135 88.2657 387.995 88.339C390.855 88.4124 393.935 88.449 397.235 88.449C400.169 88.449 403.065 88.4124 405.925 88.339C408.785 88.2657 411.132 88.1924 412.965 88.119ZM498.91 87.789L525.64 156.759C526.74 159.399 527.913 161.232 529.16 162.259C530.48 163.212 531.69 163.726 532.79 163.799V165.999C530.883 165.852 528.573 165.779 525.86 165.779C523.22 165.706 520.506 165.669 517.72 165.669C514.493 165.669 511.486 165.706 508.7 165.779C505.913 165.779 503.64 165.852 501.88 165.999V163.799C505.62 163.652 508.003 163.029 509.03 161.929C510.056 160.756 509.836 158.299 508.37 154.559L489.01 102.309L490.99 99.889L473.39 145.539C471.996 149.206 471.153 152.212 470.86 154.559C470.566 156.906 470.75 158.739 471.41 160.059C472.07 161.379 473.17 162.332 474.71 162.919C476.25 163.432 478.156 163.726 480.43 163.799V165.999C478.083 165.852 475.81 165.779 473.61 165.779C471.41 165.706 469.21 165.669 467.01 165.669C465.396 165.669 463.856 165.706 462.39 165.779C460.996 165.779 459.75 165.852 458.65 165.999V163.799C460.263 163.432 461.84 162.479 463.38 160.939C464.993 159.399 466.533 156.722 468 152.909L493.19 87.789C494.07 87.8624 495.023 87.899 496.05 87.899C497.076 87.899 498.03 87.8624 498.91 87.789ZM508.48 134.319V136.519H475.7L476.8 134.319H508.48ZM632.531 88.119V90.319C630.185 90.3924 628.388 90.6857 627.141 91.199C625.895 91.639 625.051 92.519 624.611 93.839C624.245 95.0857 624.061 97.0657 624.061 99.779V154.339C624.061 156.979 624.281 158.959 624.721 160.279C625.161 161.599 625.968 162.479 627.141 162.919C628.388 163.359 630.185 163.652 632.531 163.799V165.999C630.625 165.852 628.205 165.779 625.271 165.779C622.338 165.706 619.368 165.669 616.361 165.669C613.061 165.669 609.945 165.706 607.011 165.779C604.151 165.779 601.841 165.852 600.081 165.999V163.799C602.575 163.652 604.445 163.359 605.691 162.919C607.011 162.479 607.891 161.599 608.331 160.279C608.771 158.959 608.991 156.979 608.991 154.339V94.499L609.761 94.609L582.481 166.329H580.721L551.681 95.159V149.719C551.681 153.239 551.901 155.989 552.341 157.969C552.781 159.876 553.735 161.269 555.201 162.149C556.741 162.956 559.051 163.506 562.131 163.799V165.999C560.738 165.852 558.941 165.779 556.741 165.779C554.541 165.706 552.451 165.669 550.471 165.669C548.711 165.669 546.915 165.706 545.081 165.779C543.321 165.779 541.855 165.852 540.681 165.999V163.799C543.101 163.506 544.898 162.956 546.071 162.149C547.318 161.342 548.125 160.022 548.491 158.189C548.931 156.356 549.151 153.826 549.151 150.599V99.779C549.151 97.0657 548.931 95.0857 548.491 93.839C548.125 92.519 547.318 91.639 546.071 91.199C544.898 90.6857 543.101 90.3924 540.681 90.319V88.119C541.855 88.1924 543.321 88.2657 545.081 88.339C546.915 88.4124 548.711 88.449 550.471 88.449C553.185 88.449 555.825 88.4124 558.391 88.339C560.958 88.2657 563.231 88.1924 565.211 88.119L588.861 147.189L586.441 149.169L609.431 88.449C610.531 88.449 611.668 88.449 612.841 88.449C614.088 88.449 615.261 88.449 616.361 88.449C619.368 88.449 622.338 88.4124 625.271 88.339C628.205 88.2657 630.625 88.1924 632.531 88.119ZM682.051 87.789L708.781 156.759C709.881 159.399 711.054 161.232 712.301 162.259C713.621 163.212 714.831 163.726 715.931 163.799V165.999C714.024 165.852 711.714 165.779 709.001 165.779C706.361 165.706 703.648 165.669 700.861 165.669C697.634 165.669 694.628 165.706 691.841 165.779C689.054 165.779 686.781 165.852 685.021 165.999V163.799C688.761 163.652 691.144 163.029 692.171 161.929C693.198 160.756 692.978 158.299 691.511 154.559L672.151 102.309L674.131 99.889L656.531 145.539C655.138 149.206 654.294 152.212 654.001 154.559C653.708 156.906 653.891 158.739 654.551 160.059C655.211 161.379 656.311 162.332 657.851 162.919C659.391 163.432 661.298 163.726 663.571 163.799V165.999C661.224 165.852 658.951 165.779 656.751 165.779C654.551 165.706 652.351 165.669 650.151 165.669C648.538 165.669 646.998 165.706 645.531 165.779C644.138 165.779 642.891 165.852 641.791 165.999V163.799C643.404 163.432 644.981 162.479 646.521 160.939C648.134 159.399 649.674 156.722 651.141 152.909L676.331 87.789C677.211 87.8624 678.164 87.899 679.191 87.899C680.218 87.899 681.171 87.8624 682.051 87.789ZM691.621 134.319V136.519H658.841L659.941 134.319H691.621ZM756.163 88.119V90.319C753.669 90.3924 751.763 90.6857 750.443 91.199C749.196 91.639 748.353 92.519 747.913 93.839C747.473 95.0857 747.253 97.0657 747.253 99.779V155.219C747.253 157.566 747.436 159.362 747.803 160.609C748.243 161.782 749.013 162.552 750.113 162.919C751.213 163.286 752.789 163.469 754.843 163.469H761.113C763.973 163.469 766.466 162.956 768.593 161.929C770.793 160.902 772.699 159.399 774.313 157.419C775.926 155.439 777.246 153.019 778.273 150.159C779.299 147.226 780.033 143.926 780.473 140.259H783.003C782.783 142.679 782.673 145.832 782.673 149.719C782.673 151.332 782.709 153.642 782.783 156.649C782.929 159.656 783.149 162.772 783.443 165.999C779.703 165.852 775.486 165.779 770.793 165.779C766.099 165.706 761.919 165.669 758.253 165.669C756.493 165.669 754.256 165.669 751.543 165.669C748.829 165.669 745.859 165.706 742.633 165.779C739.479 165.779 736.253 165.816 732.953 165.889C729.726 165.889 726.646 165.926 723.713 165.999V163.799C726.133 163.652 727.929 163.359 729.103 162.919C730.349 162.479 731.156 161.599 731.523 160.279C731.963 158.959 732.183 156.979 732.183 154.339V99.779C732.183 97.0657 731.963 95.0857 731.523 93.839C731.156 92.519 730.349 91.639 729.103 91.199C727.929 90.6857 726.133 90.3924 723.713 90.319V88.119C725.546 88.1924 727.893 88.2657 730.753 88.339C733.613 88.4124 736.693 88.449 739.993 88.449C742.999 88.449 745.969 88.4124 748.903 88.339C751.836 88.2657 754.256 88.1924 756.163 88.119Z" fill="black"/>
<path d="M142 65.3271C138.474 65.4381 135.829 65.8816 134.065 66.6582C132.302 67.3239 131.09 68.6561 130.429 70.6533C129.878 72.5396 129.602 75.5354 129.602 79.6406V162.19C129.602 166.185 129.878 169.181 130.429 171.178C131.09 173.175 132.302 174.507 134.065 175.173C135.829 175.838 138.474 176.282 142 176.504V179.832C138.914 179.61 135.002 179.5 130.263 179.5C125.634 179.389 120.896 179.333 116.047 179.333C110.757 179.333 105.798 179.389 101.169 179.5C96.5403 179.5 92.7931 179.61 89.9277 179.832V176.504C93.6745 176.282 96.4849 175.839 98.3584 175.173C100.342 174.507 101.665 173.175 102.326 171.178C102.987 169.181 103.317 166.185 103.317 162.19V75.1953L63.4785 179.999H60.834L16.2002 72.8164V152.538C16.2002 158.64 16.5312 163.356 17.1924 166.685C17.8536 169.902 19.2862 172.232 21.4902 173.675C23.8046 175.006 27.3864 175.949 32.2354 176.504V179.832C30.1415 179.61 27.3861 179.5 23.9697 179.5C20.5534 179.389 17.3573 179.333 14.3818 179.333C11.8472 179.333 9.25716 179.389 6.6123 179.5C3.9675 179.5 1.76323 179.61 0 179.832V176.504C3.52627 175.949 6.17128 175.006 7.93457 173.675C9.69786 172.343 10.8552 170.179 11.4062 167.184C12.0675 164.077 12.3984 159.861 12.3984 154.535V79.6406C12.3984 75.5354 12.0674 72.5396 11.4062 70.6533C10.8552 68.6561 9.64302 67.3239 7.76953 66.6582C6.00625 65.8816 3.41615 65.4381 0 65.3271V61.999C1.76322 62.11 3.9675 62.2201 6.6123 62.3311C9.25716 62.442 11.8472 62.498 14.3818 62.498C19.1205 62.498 23.7493 62.442 28.2676 62.3311C32.8962 62.2201 36.9744 62.11 40.501 61.999L73.8184 142.984L104.31 62.498H116.047C120.896 62.498 125.634 62.442 130.263 62.3311C135.002 62.2201 138.914 62.11 142 61.999V65.3271Z" fill="black"/>
<path fill-rule="evenodd" clip-rule="evenodd" d="M72.5 0C74.433 0 76 1.567 76 3.5C75.9998 5.12812 74.8877 6.49578 73.3818 6.88672C73.4363 7.10481 73.5008 7.35543 73.5762 7.63281C73.8614 8.68211 74.2961 10.1025 74.8936 11.5967C76.1237 14.6728 77.8973 17.692 80.2256 18.8271C82.6233 19.9961 85.0717 19.4477 87.0254 18.4824C87.9577 18.0218 88.7393 17.4832 89.2979 17.0508C89.1088 16.6738 89 16.2493 89 15.7988C89.0001 14.2526 90.2536 12.9991 91.7998 12.999C93.3461 12.999 94.5995 14.2525 94.5996 15.7988C94.5996 17.3452 93.3462 18.5986 91.7998 18.5986C91.5559 18.5986 91.3203 18.5635 91.0947 18.5049C91.0962 18.5504 91.0967 18.5975 91.0986 18.6455C91.1274 19.3485 91.2138 20.3032 91.4414 21.3154C91.907 23.3857 92.9087 25.4676 94.9336 26.376C97.0142 27.3091 99.5165 26.9672 101.631 26.2998C102.671 25.9715 103.573 25.5777 104.215 25.2656C104.394 25.1786 104.552 25.0976 104.687 25.0273C104.505 24.6561 104.4 24.2401 104.4 23.7988C104.4 22.2526 105.654 20.9991 107.2 20.999C108.746 20.9993 110 22.2527 110 23.7988C110 25.3451 108.746 26.5984 107.2 26.5986C107.033 26.5986 106.868 26.581 106.709 26.5527L94.4268 42.8838L94.3838 42.8652C92.3546 45.4475 83.1057 47.3994 72 47.3994L70.8271 47.3916C60.2478 47.2599 51.5714 45.357 49.6143 42.8662L49.5732 42.8838L37.29 26.5527C37.1307 26.5809 36.9672 26.5986 36.7998 26.5986C35.2535 26.5985 34 25.3452 34 23.7988C34.0001 22.2526 35.2536 20.9991 36.7998 20.999C38.3461 20.999 39.5995 22.2525 39.5996 23.7988C39.5996 24.2445 39.4919 24.6641 39.3066 25.0381C39.4637 25.1289 39.6572 25.2381 39.8818 25.3584C40.5457 25.714 41.4694 26.1653 42.5156 26.5488C44.669 27.3382 47.0566 27.743 48.8398 26.8545C50.6351 25.9595 51.6522 23.7672 52.1885 21.5332C52.448 20.4518 52.578 19.43 52.6436 18.6768C52.6461 18.6478 52.6471 18.619 52.6494 18.5908C51.1731 18.5125 50 17.2946 50 15.7988C50.0001 14.2526 51.2536 12.9991 52.7998 12.999C54.3461 12.999 55.5995 14.2525 55.5996 15.7988C55.5996 16.3744 55.4247 16.9086 55.127 17.3535C55.6876 17.7903 56.4831 18.3405 57.4346 18.8105C59.3882 19.7757 61.8367 20.3241 64.2344 19.1553C66.5627 18.0202 68.3363 15.0009 69.5664 11.9248C70.164 10.4305 70.5985 9.01032 70.8838 7.96094C71.0212 7.45532 71.1221 7.03849 71.1904 6.74512C69.9066 6.22659 69.0002 4.96961 69 3.5C69 1.567 70.567 0 72.5 0ZM72 38.1992C65.8165 38.1992 60.2842 38.8164 56.3555 39.7812C54.3758 40.2675 52.9139 40.8157 51.9961 41.3486C51.672 41.5369 51.4726 41.6903 51.3506 41.7988C51.4725 41.9073 51.6715 42.0605 51.9961 42.249C52.9139 42.782 54.3755 43.3301 56.3555 43.8164C60.2843 44.7813 65.8163 45.3994 72 45.3994C78.1838 45.3994 83.7167 44.7814 87.6455 43.8164C89.6251 43.3301 91.0862 42.7819 92.0039 42.249C92.3278 42.0609 92.5264 41.9073 92.6484 41.7988C92.5263 41.6904 92.3276 41.5366 92.0039 41.3486C91.0861 40.8158 89.6251 40.2675 87.6455 39.7812C83.7167 38.8163 78.1838 38.1992 72 38.1992ZM72.2803 9.49512C72.0041 10.3979 71.656 11.4359 71.2246 12.5146C69.9637 15.6675 67.8674 19.5503 64.6777 21.1055C61.5575 22.6266 58.5672 21.8428 56.4619 20.8027C55.7619 20.4569 55.1417 20.0724 54.624 19.7139C54.5405 20.4131 54.4102 21.2398 54.2021 22.1064C53.6487 24.4119 52.4862 27.3031 49.9229 28.5811C47.347 29.8649 44.1994 29.1837 41.9082 28.3438C41.4868 28.1892 41.0844 28.0254 40.708 27.8613L50.0479 40.2812C52.7424 37.9262 61.5504 36.1992 72 36.1992C82.4491 36.1992 91.2562 37.9264 93.9512 40.2812L103.434 27.6709C103.032 27.8278 102.598 27.9848 102.139 28.1299C99.8232 28.8608 96.6845 29.3747 93.9219 28.1357C91.1036 26.8715 89.9241 24.1014 89.4209 21.8633C89.2603 21.1487 89.1666 20.4637 89.1084 19.8613C88.7668 20.0702 88.3951 20.2784 87.998 20.4746C85.8928 21.5147 82.9026 22.2995 79.7822 20.7783C76.5925 19.2232 74.4963 15.3404 73.2354 12.1875C72.8552 11.2368 72.5394 10.3177 72.2803 9.49512ZM107.2 22.999C106.759 22.9991 106.4 23.3572 106.4 23.7988C106.4 24.2406 106.758 24.5985 107.2 24.5986C107.642 24.5984 108 24.2405 108 23.7988C108 23.3573 107.642 22.9993 107.2 22.999ZM36.7998 22.999C36.3581 22.9991 36.0001 23.3572 36 23.7988C36 24.2406 36.3581 24.5985 36.7998 24.5986C37.2416 24.5986 37.5996 24.2407 37.5996 23.7988C37.5995 23.3571 37.2416 22.999 36.7998 22.999ZM52.7998 14.999C52.3581 14.9991 52.0001 15.3572 52 15.7988C52 16.2406 52.3581 16.5985 52.7998 16.5986C53.2416 16.5986 53.5996 16.2407 53.5996 15.7988C53.5995 15.3571 53.2416 14.999 52.7998 14.999ZM91.7998 14.999C91.3581 14.9991 91.0001 15.3572 91 15.7988C91 16.2406 91.3581 16.5985 91.7998 16.5986C92.2416 16.5986 92.5996 16.2407 92.5996 15.7988C92.5995 15.3571 92.2416 14.999 91.7998 14.999ZM72.5 2C71.6716 2 71 2.67157 71 3.5C71.0003 4.3282 71.6717 5 72.5 5C73.3283 5 73.9997 4.3282 74 3.5C74 2.67157 73.3284 2 72.5 2Z" fill="black"/>
<path d="M469.196 218.999V189.908H487.236V193.687H473.585V202.55H485.943V206.314H473.585V218.999H469.196ZM523.341 189.908H527.744V209.042C527.744 211.078 527.266 212.882 526.31 214.454C525.353 216.016 524.009 217.247 522.276 218.147C520.543 219.037 518.511 219.482 516.182 219.482C513.862 219.482 511.835 219.037 510.102 218.147C508.369 217.247 507.025 216.016 506.068 214.454C505.112 212.882 504.634 211.078 504.634 209.042V189.908H509.023V208.687C509.023 210.003 509.312 211.172 509.889 212.195C510.476 213.218 511.305 214.023 512.375 214.61C513.445 215.187 514.714 215.476 516.182 215.476C517.659 215.476 518.933 215.187 520.003 214.61C521.082 214.023 521.906 213.218 522.474 212.195C523.052 211.172 523.341 210.003 523.341 208.687V189.908ZM546.126 218.999V189.908H556.495C558.749 189.908 560.619 190.296 562.106 191.073C563.602 191.849 564.719 192.924 565.458 194.297C566.197 195.661 566.566 197.238 566.566 199.027C566.566 200.808 566.192 202.375 565.444 203.729C564.705 205.074 563.588 206.12 562.092 206.868C560.605 207.616 558.735 207.991 556.481 207.991H548.626V204.212H556.083C557.504 204.212 558.659 204.008 559.549 203.601C560.449 203.194 561.107 202.602 561.523 201.826C561.94 201.049 562.148 200.116 562.148 199.027C562.148 197.929 561.935 196.977 561.509 196.172C561.093 195.367 560.434 194.752 559.535 194.326C558.645 193.89 557.475 193.672 556.026 193.672H550.515V218.999H546.126ZM560.487 205.874L567.674 218.999H562.674L555.629 205.874H560.487ZM607.387 189.908V218.999H603.353L588.566 197.664H588.296V218.999H583.907V189.908H587.969L602.771 211.272H603.04V189.908H607.387ZM630.179 189.908V218.999H625.79V189.908H630.179ZM647.136 193.687V189.908H669.651V193.687H660.574V218.999H656.199V193.687H647.136ZM705.333 189.908H709.737V209.042C709.737 211.078 709.258 212.882 708.302 214.454C707.345 216.016 706.001 217.247 704.268 218.147C702.535 219.037 700.504 219.482 698.174 219.482C695.854 219.482 693.827 219.037 692.094 218.147C690.362 217.247 689.017 216.016 688.06 214.454C687.104 212.882 686.626 211.078 686.626 209.042V189.908H691.015V208.687C691.015 210.003 691.304 211.172 691.881 212.195C692.469 213.218 693.297 214.023 694.367 214.61C695.437 215.187 696.706 215.476 698.174 215.476C699.651 215.476 700.925 215.187 701.995 214.61C703.075 214.023 703.898 213.218 704.467 212.195C705.044 211.172 705.333 210.003 705.333 208.687V189.908ZM728.118 218.999V189.908H738.487C740.741 189.908 742.611 190.296 744.098 191.073C745.594 191.849 746.712 192.924 747.45 194.297C748.189 195.661 748.558 197.238 748.558 199.027C748.558 200.808 748.184 202.375 747.436 203.729C746.697 205.074 745.58 206.12 744.084 206.868C742.597 207.616 740.727 207.991 738.473 207.991H730.618V204.212H738.075C739.496 204.212 740.651 204.008 741.541 203.601C742.441 203.194 743.099 202.602 743.516 201.826C743.932 201.049 744.141 200.116 744.141 199.027C744.141 197.929 743.928 196.977 743.501 196.172C743.085 195.367 742.427 194.752 741.527 194.326C740.637 193.89 739.467 193.672 738.018 193.672H732.507V218.999H728.118ZM742.479 205.874L749.666 218.999H744.666L737.621 205.874H742.479ZM765.899 218.999V189.908H784.138V193.687H770.288V202.55H783.186V206.314H770.288V215.221H784.308V218.999H765.899Z" fill="black"/>
</svg>
