<svg width="878" height="207" viewBox="0 0 878 207" fill="none" xmlns="http://www.w3.org/2000/svg">
<path d="M172.29 62.12C173.977 62.1933 176.14 62.2667 178.78 62.34C181.493 62.4133 184.17 62.45 186.81 62.45C190.33 62.45 193.667 62.4133 196.82 62.34C200.047 62.2667 202.32 62.23 203.64 62.23C209.873 62.23 215.043 63.0367 219.15 64.65C223.33 66.2633 226.41 68.5367 228.39 71.47C230.443 74.33 231.47 77.63 231.47 81.37C231.47 83.6433 230.993 86.0633 230.04 88.63C229.16 91.1233 227.583 93.47 225.31 95.67C223.037 97.7967 219.957 99.5567 216.07 100.95C212.183 102.343 207.233 103.04 201.22 103.04H190.66V100.84H200.12C205.033 100.84 208.773 100.033 211.34 98.42C213.98 96.7333 215.74 94.5333 216.62 91.82C217.573 89.0333 218.05 85.9533 218.05 82.58C218.05 76.7867 216.803 72.3133 214.31 69.16C211.817 65.9333 207.49 64.32 201.33 64.32C198.177 64.32 196.087 64.9433 195.06 66.19C194.107 67.4367 193.63 69.9667 193.63 73.78V128.34C193.63 130.98 193.85 132.96 194.29 134.28C194.73 135.6 195.573 136.48 196.82 136.92C198.067 137.36 199.9 137.653 202.32 137.8V140C200.56 139.853 198.323 139.78 195.61 139.78C192.97 139.707 190.257 139.67 187.47 139.67C184.39 139.67 181.493 139.707 178.78 139.78C176.14 139.78 173.977 139.853 172.29 140V137.8C174.783 137.653 176.653 137.36 177.9 136.92C179.147 136.48 179.953 135.6 180.32 134.28C180.76 132.96 180.98 130.98 180.98 128.34V73.78C180.98 71.0667 180.76 69.0867 180.32 67.84C179.953 66.52 179.11 65.64 177.79 65.2C176.543 64.6867 174.71 64.3933 172.29 64.32V62.12ZM190.88 101.17C194.62 101.317 197.627 101.5 199.9 101.72C202.173 101.867 204.08 102.013 205.62 102.16C207.16 102.307 208.59 102.49 209.91 102.71C215.41 103.443 219.407 104.91 221.9 107.11C224.467 109.31 226.227 112.683 227.18 117.23L229.93 128.45C230.59 131.603 231.287 133.84 232.02 135.16C232.827 136.48 234 137.14 235.54 137.14C236.713 137.067 237.667 136.737 238.4 136.15C239.207 135.49 240.05 134.61 240.93 133.51L242.47 134.72C240.783 136.993 239.023 138.717 237.19 139.89C235.357 140.99 232.9 141.54 229.82 141.54C226.667 141.54 223.953 140.733 221.68 139.12C219.48 137.433 217.903 134.28 216.95 129.66L214.75 118.66C214.09 115.507 213.357 112.793 212.55 110.52C211.743 108.173 210.607 106.34 209.14 105.02C207.747 103.7 205.693 103.04 202.98 103.04H191.1L190.88 101.17ZM300.119 61.68L326.959 130.76C327.986 133.473 329.159 135.307 330.479 136.26C331.873 137.213 333.156 137.727 334.329 137.8V140C332.569 139.853 330.479 139.78 328.059 139.78C325.713 139.707 323.329 139.67 320.909 139.67C317.829 139.67 314.969 139.707 312.329 139.78C309.689 139.78 307.563 139.853 305.949 140V137.8C309.689 137.653 312.036 137.03 312.989 135.93C314.016 134.757 313.796 132.3 312.329 128.56L292.529 75.1L294.289 73.12L276.029 120.86C274.709 124.16 273.903 126.91 273.609 129.11C273.389 131.31 273.573 133.033 274.159 134.28C274.819 135.527 275.919 136.407 277.459 136.92C278.999 137.433 280.906 137.727 283.179 137.8V140C280.979 139.853 278.743 139.78 276.469 139.78C274.269 139.707 272.179 139.67 270.199 139.67C268.439 139.67 266.863 139.707 265.469 139.78C264.149 139.78 262.939 139.853 261.839 140V137.8C263.379 137.433 264.919 136.517 266.459 135.05C267.999 133.583 269.466 131.09 270.859 127.57L296.379 61.68C296.966 61.68 297.589 61.68 298.249 61.68C298.909 61.68 299.533 61.68 300.119 61.68ZM311.669 108.32V110.52H278.889L279.989 108.32H311.669ZM353.206 160.68V158.59C356.359 158.443 359.036 157.6 361.236 156.06C363.436 154.593 365.086 152.1 366.186 148.58C367.286 145.06 367.836 140.257 367.836 134.17V73.78C367.836 71.0667 367.616 69.0867 367.176 67.84C366.809 66.52 366.002 65.64 364.756 65.2C363.509 64.6867 361.639 64.3933 359.146 64.32V62.12C360.832 62.1933 362.996 62.2667 365.636 62.34C368.276 62.4133 371.062 62.45 373.996 62.45C376.856 62.45 379.642 62.4133 382.356 62.34C385.142 62.2667 387.416 62.1933 389.176 62.12V64.32C386.756 64.3933 384.922 64.6867 383.676 65.2C382.429 65.64 381.586 66.52 381.146 67.84C380.706 69.0867 380.486 71.0667 380.486 73.78V114.04C380.486 117.047 380.449 120.31 380.376 123.83C380.376 127.35 380.229 130.76 379.936 134.06C379.716 137.36 379.276 140.257 378.616 142.75C377.296 147.883 374.472 152.137 370.146 155.51C365.892 158.957 360.246 160.68 353.206 160.68ZM485.191 62.12V64.32C482.844 64.6867 480.498 65.53 478.151 66.85C475.878 68.0967 473.568 70.1867 471.221 73.12L450.101 99.52L453.841 92.81L480.241 131.09C481.414 132.85 482.661 134.243 483.981 135.27C485.374 136.297 487.134 137.14 489.261 137.8V140C487.281 139.853 484.898 139.78 482.111 139.78C479.324 139.707 476.868 139.67 474.741 139.67C473.421 139.67 471.771 139.707 469.791 139.78C467.884 139.78 465.464 139.853 462.531 140V137.8C465.244 137.653 466.894 137.213 467.481 136.48C468.141 135.747 467.884 134.537 466.711 132.85L450.761 108.1C449.441 106.047 448.268 104.507 447.241 103.48C446.214 102.38 445.151 101.683 444.051 101.39C442.951 101.023 441.594 100.803 439.981 100.73V98.42C443.061 98.3467 445.701 97.65 447.901 96.33C450.174 95.01 452.301 93.2133 454.281 90.94L463.411 79.39C465.978 76.2367 467.628 73.56 468.361 71.36C469.094 69.0867 468.911 67.3633 467.811 66.19C466.711 65.0167 464.658 64.3933 461.651 64.32V62.12C463.191 62.1933 464.694 62.2667 466.161 62.34C467.701 62.34 469.241 62.3767 470.781 62.45C472.394 62.45 473.971 62.45 475.511 62.45C477.491 62.45 479.288 62.4133 480.901 62.34C482.588 62.2667 484.018 62.1933 485.191 62.12ZM449.111 62.12V64.32C446.691 64.3933 444.858 64.6867 443.611 65.2C442.364 65.64 441.521 66.52 441.081 67.84C440.641 69.0867 440.421 71.0667 440.421 73.78V128.34C440.421 130.98 440.641 132.96 441.081 134.28C441.521 135.6 442.364 136.48 443.611 136.92C444.858 137.36 446.691 137.653 449.111 137.8V140C447.351 139.853 445.114 139.78 442.401 139.78C439.761 139.707 437.048 139.67 434.261 139.67C431.181 139.67 428.284 139.707 425.571 139.78C422.931 139.78 420.768 139.853 419.081 140V137.8C421.574 137.653 423.444 137.36 424.691 136.92C425.938 136.48 426.744 135.6 427.111 134.28C427.551 132.96 427.771 130.98 427.771 128.34V73.78C427.771 71.0667 427.551 69.0867 427.111 67.84C426.744 66.52 425.901 65.64 424.581 65.2C423.334 64.6867 421.501 64.3933 419.081 64.32V62.12C420.768 62.1933 422.931 62.2667 425.571 62.34C428.284 62.4133 431.181 62.45 434.261 62.45C437.048 62.45 439.761 62.4133 442.401 62.34C445.114 62.2667 447.351 62.1933 449.111 62.12ZM548.2 61.68L575.04 130.76C576.066 133.473 577.24 135.307 578.56 136.26C579.953 137.213 581.236 137.727 582.41 137.8V140C580.65 139.853 578.56 139.78 576.14 139.78C573.793 139.707 571.41 139.67 568.99 139.67C565.91 139.67 563.05 139.707 560.41 139.78C557.77 139.78 555.643 139.853 554.03 140V137.8C557.77 137.653 560.116 137.03 561.07 135.93C562.096 134.757 561.876 132.3 560.41 128.56L540.61 75.1L542.37 73.12L524.11 120.86C522.79 124.16 521.983 126.91 521.69 129.11C521.47 131.31 521.653 133.033 522.24 134.28C522.9 135.527 524 136.407 525.54 136.92C527.08 137.433 528.986 137.727 531.26 137.8V140C529.06 139.853 526.823 139.78 524.55 139.78C522.35 139.707 520.26 139.67 518.28 139.67C516.52 139.67 514.943 139.707 513.55 139.78C512.23 139.78 511.02 139.853 509.92 140V137.8C511.46 137.433 513 136.517 514.54 135.05C516.08 133.583 517.546 131.09 518.94 127.57L544.46 61.68C545.046 61.68 545.67 61.68 546.33 61.68C546.99 61.68 547.613 61.68 548.2 61.68ZM559.75 108.32V110.52H526.97L528.07 108.32H559.75ZM695.057 62.12V64.32C692.564 64.3933 690.694 64.6867 689.447 65.2C688.201 65.64 687.357 66.52 686.917 67.84C686.551 69.0867 686.367 71.0667 686.367 73.78V128.34C686.367 130.98 686.551 132.96 686.917 134.28C687.357 135.6 688.201 136.48 689.447 136.92C690.694 137.36 692.564 137.653 695.057 137.8V140C693.224 139.853 690.951 139.78 688.237 139.78C685.524 139.707 682.774 139.67 679.987 139.67C676.907 139.67 674.011 139.707 671.297 139.78C668.584 139.78 666.421 139.853 664.807 140V137.8C667.301 137.653 669.171 137.36 670.417 136.92C671.737 136.48 672.617 135.6 673.057 134.28C673.497 132.96 673.717 130.98 673.717 128.34V68.17L674.267 68.39L647.207 140.44H645.447L617.067 69.16V125.48C617.067 128.56 617.287 130.98 617.727 132.74C618.167 134.427 619.121 135.637 620.587 136.37C622.054 137.103 624.291 137.58 627.297 137.8V140C625.904 139.853 624.107 139.78 621.907 139.78C619.781 139.707 617.764 139.67 615.857 139.67C614.024 139.67 612.191 139.707 610.357 139.78C608.524 139.78 607.021 139.853 605.847 140V137.8C608.267 137.58 610.101 137.14 611.347 136.48C612.594 135.747 613.437 134.537 613.877 132.85C614.317 131.163 614.537 128.853 614.537 125.92V73.78C614.537 71.0667 614.317 69.0867 613.877 67.84C613.437 66.52 612.594 65.64 611.347 65.2C610.101 64.6867 608.267 64.3933 605.847 64.32V62.12C607.021 62.1933 608.524 62.2667 610.357 62.34C612.191 62.4133 614.024 62.45 615.857 62.45C617.984 62.45 620.111 62.4133 622.237 62.34C624.437 62.2667 626.307 62.1933 627.847 62.12L652.157 124.6L650.067 126.03L673.937 62.45C674.891 62.45 675.881 62.45 676.907 62.45C677.934 62.45 678.961 62.45 679.987 62.45C682.774 62.45 685.524 62.4133 688.237 62.34C690.951 62.2667 693.224 62.1933 695.057 62.12ZM758.489 61.68L785.329 130.76C786.355 133.473 787.529 135.307 788.849 136.26C790.242 137.213 791.525 137.727 792.699 137.8V140C790.939 139.853 788.849 139.78 786.429 139.78C784.082 139.707 781.699 139.67 779.279 139.67C776.199 139.67 773.339 139.707 770.699 139.78C768.059 139.78 765.932 139.853 764.319 140V137.8C768.059 137.653 770.405 137.03 771.359 135.93C772.385 134.757 772.165 132.3 770.699 128.56L750.899 75.1L752.659 73.12L734.399 120.86C733.079 124.16 732.272 126.91 731.979 129.11C731.759 131.31 731.942 133.033 732.529 134.28C733.189 135.527 734.289 136.407 735.829 136.92C737.369 137.433 739.275 137.727 741.549 137.8V140C739.349 139.853 737.112 139.78 734.839 139.78C732.639 139.707 730.549 139.67 728.569 139.67C726.809 139.67 725.232 139.707 723.839 139.78C722.519 139.78 721.309 139.853 720.209 140V137.8C721.749 137.433 723.289 136.517 724.829 135.05C726.369 133.583 727.835 131.09 729.229 127.57L754.749 61.68C755.335 61.68 755.959 61.68 756.619 61.68C757.279 61.68 757.902 61.68 758.489 61.68ZM770.039 108.32V110.52H737.259L738.359 108.32H770.039ZM846.276 62.12V64.32C843.783 64.3933 841.876 64.6867 840.556 65.2C839.31 65.64 838.466 66.52 838.026 67.84C837.586 69.0867 837.366 71.0667 837.366 73.78V128.78C837.366 131.273 837.55 133.143 837.916 134.39C838.356 135.637 839.163 136.48 840.336 136.92C841.583 137.287 843.343 137.47 845.616 137.47H852.766C855.92 137.47 858.56 137.03 860.686 136.15C862.886 135.27 864.72 133.95 866.186 132.19C867.653 130.43 868.79 128.157 869.596 125.37C870.403 122.583 871.026 119.32 871.466 115.58H873.996C873.776 117.927 873.666 121.007 873.666 124.82C873.666 126.287 873.703 128.45 873.776 131.31C873.923 134.097 874.143 136.993 874.436 140C870.696 139.853 866.48 139.78 861.786 139.78C857.093 139.707 852.913 139.67 849.246 139.67C847.56 139.67 845.396 139.67 842.756 139.67C840.116 139.67 837.256 139.707 834.176 139.78C831.17 139.78 828.09 139.817 824.936 139.89C821.856 139.89 818.886 139.927 816.026 140V137.8C818.52 137.653 820.39 137.36 821.636 136.92C822.883 136.48 823.69 135.6 824.056 134.28C824.496 132.96 824.716 130.98 824.716 128.34V73.78C824.716 71.0667 824.496 69.0867 824.056 67.84C823.69 66.52 822.846 65.64 821.526 65.2C820.28 64.6867 818.446 64.3933 816.026 64.32V62.12C817.713 62.1933 819.876 62.2667 822.516 62.34C825.23 62.4133 828.126 62.45 831.206 62.45C833.993 62.45 836.743 62.4133 839.456 62.34C842.243 62.2667 844.516 62.1933 846.276 62.12Z" fill="black"/>
<path d="M142 65.3281C138.474 65.4391 135.829 65.8826 134.065 66.6592C132.302 67.3249 131.09 68.6571 130.429 70.6543C129.878 72.5405 129.602 75.5364 129.602 79.6416V162.191C129.602 166.186 129.878 169.182 130.429 171.179C131.09 173.176 132.302 174.508 134.065 175.174C135.829 175.839 138.474 176.283 142 176.505V179.833C138.914 179.611 135.002 179.501 130.263 179.501C125.634 179.39 120.896 179.334 116.047 179.334C110.757 179.334 105.798 179.39 101.169 179.501C96.5403 179.501 92.7931 179.611 89.9277 179.833V176.505C93.6745 176.283 96.4849 175.839 98.3584 175.174C100.342 174.508 101.665 173.176 102.326 171.179C102.987 169.182 103.317 166.186 103.317 162.191V75.1963L63.4785 180H60.834L16.2002 72.8174V152.539C16.2002 158.641 16.5312 163.357 17.1924 166.686C17.8536 169.903 19.2862 172.233 21.4902 173.676C23.8045 175.007 27.3864 175.95 32.2354 176.505V179.833C30.1415 179.611 27.3861 179.501 23.9697 179.501C20.5534 179.39 17.3573 179.334 14.3818 179.334C11.8472 179.334 9.25716 179.39 6.6123 179.501C3.9675 179.501 1.76323 179.611 0 179.833V176.505C3.52627 175.95 6.17128 175.007 7.93457 173.676C9.69786 172.344 10.8552 170.18 11.4062 167.185C12.0675 164.078 12.3984 159.862 12.3984 154.536V79.6416C12.3984 75.5364 12.0674 72.5405 11.4062 70.6543C10.8552 68.6571 9.64302 67.3249 7.76953 66.6592C6.00625 65.8826 3.41615 65.4391 0 65.3281V62C1.76322 62.1109 3.9675 62.2211 6.6123 62.332C9.25716 62.443 11.8472 62.499 14.3818 62.499C19.1205 62.499 23.7493 62.443 28.2676 62.332C32.8962 62.2211 36.9744 62.111 40.501 62L73.8184 142.985L104.31 62.499H116.047C120.896 62.499 125.634 62.443 130.263 62.332C135.002 62.2211 138.914 62.111 142 62V65.3281ZM107.175 64.7178V177.06H111.308V64.7178H107.175ZM61.7158 172.898L63.7812 167.351L23.1436 71.6523H19.0107L61.7158 172.898Z" fill="black"/>
<path d="M72.5 0C74.433 0 76 1.56798 76 3.50098C75.9998 5.12909 74.8877 6.49676 73.3818 6.8877C73.4363 7.10578 73.5008 7.35641 73.5762 7.63379C73.8614 8.68309 74.2961 10.1035 74.8936 11.5977C76.1237 14.6737 77.8973 17.693 80.2256 18.8281C82.6233 19.9971 85.0717 19.4486 87.0254 18.4834C87.9865 18.0085 88.7891 17.4526 89.3506 17.0137C89.4992 16.8975 89.6299 16.7894 89.7422 16.6943C89.283 16.1957 89.0001 15.5321 89 14.8008C89.0001 13.2545 90.2536 12.0011 91.7998 12.001C93.3461 12.001 94.5995 13.2545 94.5996 14.8008C94.5993 16.347 93.346 17.6006 91.7998 17.6006C91.5893 17.6006 91.3847 17.5743 91.1875 17.5303C91.5545 17.9993 91.5549 17.9998 91.5547 18L91.5537 17.999L91.5527 18.002L91.5332 18.0215C91.5207 18.0336 91.5028 18.05 91.4805 18.0713C91.4352 18.1143 91.3691 18.1756 91.2852 18.251C91.2297 18.3008 91.1644 18.3554 91.0928 18.417C91.0946 18.4898 91.0954 18.5666 91.0986 18.6465C91.1274 19.3494 91.2138 20.3042 91.4414 21.3164C91.907 23.3867 92.9087 25.4685 94.9336 26.377C97.0142 27.3101 99.5165 26.9682 101.631 26.3008C102.671 25.9725 103.573 25.5786 104.215 25.2666C104.336 25.2077 104.447 25.1504 104.549 25.0986C104.453 24.8165 104.4 24.5146 104.4 24.2002C104.401 22.6541 105.654 21.4005 107.2 21.4004C108.746 21.4007 110 22.6542 110 24.2002C110 25.7464 108.746 26.9997 107.2 27C106.941 27 106.69 26.9615 106.452 26.8955L94.4268 42.8848L94.3838 42.8662C92.3546 45.4485 83.1057 47.4004 72 47.4004L70.8271 47.3926C60.2478 47.2609 51.5714 45.358 49.6143 42.8672L49.5732 42.8848L37.5469 26.8955C37.3087 26.9614 37.0589 27 36.7998 27C35.2535 26.9999 34 25.7465 34 24.2002C34.0002 22.6541 35.2536 21.4005 36.7998 21.4004C38.3461 21.4004 39.5994 22.654 39.5996 24.2002C39.5996 24.5217 39.5421 24.8296 39.4424 25.1172C39.5709 25.1901 39.7182 25.2717 39.8818 25.3594C40.5457 25.715 41.4694 26.1662 42.5156 26.5498C44.669 27.3392 47.0566 27.744 48.8398 26.8555C50.6351 25.9605 51.6522 23.7681 52.1885 21.5342C52.448 20.4528 52.578 19.431 52.6436 18.6777C52.6762 18.3021 52.6931 17.9954 52.7012 17.7852C52.7052 17.6804 52.707 17.5992 52.708 17.5459C52.7085 17.5197 52.7089 17.4998 52.709 17.4873V17.4717L53.5234 17.5352C53.5412 17.5125 53.5603 17.4898 53.5791 17.4658L54.2529 16.6045L54.2617 16.6133C54.2698 16.6212 54.2838 16.6343 54.3018 16.6514C54.3376 16.6854 54.3929 16.7372 54.4658 16.8027C54.6123 16.9342 54.8299 17.1223 55.1094 17.3408C55.6709 17.7797 56.4734 18.3367 57.4346 18.8115C59.3882 19.7767 61.8367 20.3251 64.2344 19.1562C66.5627 18.0212 68.3362 15.0019 69.5664 11.9258C70.164 10.4315 70.5985 9.01129 70.8838 7.96191C71.0212 7.4563 71.1221 7.03947 71.1904 6.74609C69.9066 6.22757 69.0002 4.97058 69 3.50098C69 1.56798 70.567 0 72.5 0ZM72 38.2002C65.8165 38.2002 60.2842 38.8173 56.3555 39.7822C54.3758 40.2685 52.9139 40.8167 51.9961 41.3496C51.672 41.5378 51.4726 41.6913 51.3506 41.7998C51.4725 41.9083 51.6715 42.0615 51.9961 42.25C52.9139 42.783 54.3755 43.3311 56.3555 43.8174C60.2843 44.7823 65.8163 45.4004 72 45.4004C78.1838 45.4004 83.7167 44.7824 87.6455 43.8174C89.6251 43.3311 91.0862 42.7829 92.0039 42.25C92.3278 42.0619 92.5264 41.9083 92.6484 41.7998C92.5263 41.6913 92.3276 41.5376 92.0039 41.3496C91.0861 40.8167 89.6251 40.2685 87.6455 39.7822C83.7167 38.8173 78.1838 38.2002 72 38.2002ZM72.2803 9.49609C72.0041 10.3989 71.656 11.4368 71.2246 12.5156C69.9637 15.6685 67.8674 19.5512 64.6777 21.1064C61.5575 22.6276 58.5672 21.8438 56.4619 20.8037C55.7619 20.4578 55.1417 20.0734 54.624 19.7148C54.5405 20.4141 54.4102 21.2408 54.2021 22.1074C53.6487 24.4129 52.4862 27.3041 49.9229 28.582C47.347 29.8659 44.1994 29.1847 41.9082 28.3447C41.4868 28.1902 41.0843 28.0264 40.708 27.8623L50.0479 40.2822C52.7424 37.9272 61.5504 36.2002 72 36.2002C82.4491 36.2002 91.2562 37.9273 93.9512 40.2822L103.434 27.6719C103.032 27.8287 102.598 27.9858 102.139 28.1309C99.8232 28.8618 96.6845 29.3757 93.9219 28.1367C91.1036 26.8724 89.9241 24.1024 89.4209 21.8643C89.2602 21.1496 89.1666 20.4647 89.1084 19.8623C88.7668 20.0712 88.3951 20.2794 87.998 20.4756C85.8928 21.5157 82.9026 22.3005 79.7822 20.7793C76.5925 19.2242 74.4963 15.3413 73.2354 12.1885C72.8552 11.2378 72.5394 10.3186 72.2803 9.49609ZM107.2 23.4004C106.759 23.4005 106.401 23.7586 106.4 24.2002C106.4 24.642 106.758 24.9999 107.2 25C107.642 24.9997 108 24.6419 108 24.2002C108 23.7587 107.642 23.4007 107.2 23.4004ZM36.7998 23.4004C36.3582 23.4005 36.0002 23.7586 36 24.2002C36 24.642 36.3581 24.9999 36.7998 25C37.2416 25 37.5996 24.642 37.5996 24.2002C37.5994 23.7586 37.2415 23.4004 36.7998 23.4004ZM51.7998 12.001C53.3461 12.001 54.5995 13.2545 54.5996 14.8008C54.5993 16.347 53.346 17.6006 51.7998 17.6006C50.2537 17.6005 49.0003 16.3469 49 14.8008C49.0001 13.2545 50.2536 12.0011 51.7998 12.001ZM51.7998 14.001C51.3581 14.0011 51.0001 14.3591 51 14.8008C51.0003 15.2423 51.3582 15.6005 51.7998 15.6006C52.2415 15.6006 52.5993 15.2424 52.5996 14.8008C52.5995 14.359 52.2416 14.001 51.7998 14.001ZM91.7998 14.001C91.3581 14.0011 91.0001 14.3591 91 14.8008C91.0003 15.2423 91.3582 15.6005 91.7998 15.6006C92.2415 15.6006 92.5993 15.2424 92.5996 14.8008C92.5995 14.359 92.2416 14.001 91.7998 14.001ZM72.5 2.00098C71.6716 2.00098 71 2.67255 71 3.50098C71.0003 4.32918 71.6717 5.00098 72.5 5.00098C73.3283 5.00098 73.9997 4.32918 74 3.50098C74 2.67255 73.3284 2.00098 72.5 2.00098Z" fill="black"/>
<path d="M580 168.68C579.893 169.747 579.813 170.787 579.76 171.8C579.733 172.813 579.72 173.587 579.72 174.12C579.72 174.733 579.733 175.32 579.76 175.88C579.787 176.44 579.813 176.92 579.84 177.32H578.92C578.68 175.373 578.347 173.853 577.92 172.76C577.52 171.64 576.907 170.84 576.08 170.36C575.253 169.853 574.067 169.6 572.52 169.6H570.4C569.547 169.6 568.893 169.68 568.44 169.84C568.013 169.973 567.72 170.267 567.56 170.72C567.4 171.147 567.32 171.827 567.32 172.76V192.68C567.32 193.667 567.427 194.413 567.64 194.92C567.853 195.4 568.253 195.72 568.84 195.88C569.427 196.04 570.293 196.133 571.44 196.16V197C570.72 196.947 569.787 196.92 568.64 196.92C567.493 196.893 566.307 196.88 565.08 196.88C564.013 196.88 562.987 196.893 562 196.92C561.04 196.92 560.227 196.947 559.56 197V196.2C560.467 196.147 561.147 196.04 561.6 195.88C562.053 195.72 562.347 195.4 562.48 194.92C562.64 194.44 562.72 193.72 562.72 192.76V172.92C562.72 171.933 562.64 171.213 562.48 170.76C562.347 170.28 562.04 169.96 561.56 169.8C561.107 169.613 560.44 169.507 559.56 169.48V168.68C560.6 168.707 561.68 168.733 562.8 168.76C563.947 168.76 565.067 168.773 566.16 168.8C567.28 168.8 568.32 168.8 569.28 168.8C570.24 168.8 571.027 168.8 571.64 168.8C572.867 168.8 574.253 168.8 575.8 168.8C577.373 168.773 578.773 168.733 580 168.68ZM573.88 182.68C573.88 182.68 573.88 182.813 573.88 183.08C573.88 183.347 573.88 183.48 573.88 183.48H566.12C566.12 183.48 566.12 183.347 566.12 183.08C566.12 182.813 566.12 182.68 566.12 182.68H573.88ZM574.72 177.4C574.613 178.92 574.56 180.08 574.56 180.88C574.587 181.68 574.6 182.413 574.6 183.08C574.6 183.747 574.613 184.48 574.64 185.28C574.667 186.08 574.733 187.24 574.84 188.76H573.92C573.813 187.88 573.653 187.04 573.44 186.24C573.227 185.413 572.84 184.747 572.28 184.24C571.72 183.733 570.88 183.48 569.76 183.48V182.68C570.613 182.68 571.28 182.507 571.76 182.16C572.267 181.813 572.653 181.36 572.92 180.8C573.187 180.24 573.373 179.667 573.48 179.08C573.613 178.467 573.72 177.907 573.8 177.4H574.72ZM619.486 168.68V169.48C618.606 169.533 617.939 169.693 617.486 169.96C617.033 170.227 616.726 170.667 616.566 171.28C616.406 171.867 616.326 172.707 616.326 173.8V185.36C616.326 187.173 616.206 188.787 615.966 190.2C615.726 191.613 615.299 192.827 614.686 193.84C614.019 194.96 613.033 195.867 611.726 196.56C610.446 197.227 608.913 197.56 607.126 197.56C605.846 197.56 604.606 197.413 603.406 197.12C602.206 196.827 601.153 196.267 600.246 195.44C599.446 194.72 598.819 193.933 598.366 193.08C597.913 192.227 597.606 191.2 597.446 190C597.286 188.773 597.206 187.267 597.206 185.48V172.92C597.206 171.933 597.126 171.213 596.966 170.76C596.833 170.28 596.539 169.96 596.086 169.8C595.633 169.613 594.953 169.507 594.046 169.48V168.68C594.659 168.707 595.446 168.733 596.406 168.76C597.393 168.787 598.446 168.8 599.566 168.8C600.579 168.8 601.579 168.787 602.566 168.76C603.579 168.733 604.406 168.707 605.046 168.68V169.48C604.139 169.507 603.446 169.613 602.966 169.8C602.513 169.96 602.206 170.28 602.046 170.76C601.886 171.213 601.806 171.933 601.806 172.92V186.76C601.806 188.12 601.873 189.373 602.006 190.52C602.166 191.667 602.446 192.667 602.846 193.52C603.273 194.347 603.886 195 604.686 195.48C605.513 195.933 606.579 196.16 607.886 196.16C609.859 196.16 611.379 195.72 612.446 194.84C613.539 193.933 614.299 192.707 614.726 191.16C615.179 189.587 615.406 187.8 615.406 185.8V173.96C615.406 172.813 615.299 171.933 615.086 171.32C614.873 170.707 614.499 170.267 613.966 170C613.433 169.707 612.673 169.533 611.686 169.48V168.68C612.193 168.707 612.846 168.733 613.646 168.76C614.446 168.787 615.179 168.8 615.846 168.8C616.539 168.8 617.206 168.787 617.846 168.76C618.513 168.733 619.059 168.707 619.486 168.68ZM633.99 168.68C634.603 168.707 635.39 168.733 636.35 168.76C637.336 168.787 638.31 168.8 639.27 168.8C640.55 168.8 641.763 168.787 642.91 168.76C644.083 168.733 644.91 168.72 645.39 168.72C647.656 168.72 649.536 169.013 651.03 169.6C652.55 170.187 653.67 171.013 654.39 172.08C655.136 173.12 655.51 174.32 655.51 175.68C655.51 176.507 655.336 177.387 654.99 178.32C654.67 179.227 654.096 180.08 653.27 180.88C652.443 181.653 651.323 182.293 649.91 182.8C648.496 183.307 646.696 183.56 644.51 183.56H640.67V182.76H644.11C645.896 182.76 647.256 182.467 648.19 181.88C649.15 181.267 649.79 180.467 650.11 179.48C650.456 178.467 650.63 177.347 650.63 176.12C650.63 174.013 650.176 172.387 649.27 171.24C648.363 170.067 646.79 169.48 644.55 169.48C643.403 169.48 642.643 169.707 642.27 170.16C641.923 170.613 641.75 171.533 641.75 172.92V192.76C641.75 193.72 641.83 194.44 641.99 194.92C642.15 195.4 642.456 195.72 642.91 195.88C643.363 196.04 644.03 196.147 644.91 196.2V197C644.27 196.947 643.456 196.92 642.47 196.92C641.51 196.893 640.523 196.88 639.51 196.88C638.39 196.88 637.336 196.893 636.35 196.92C635.39 196.92 634.603 196.947 633.99 197V196.2C634.896 196.147 635.576 196.04 636.03 195.88C636.483 195.72 636.776 195.4 636.91 194.92C637.07 194.44 637.15 193.72 637.15 192.76V172.92C637.15 171.933 637.07 171.213 636.91 170.76C636.776 170.28 636.47 169.96 635.99 169.8C635.536 169.613 634.87 169.507 633.99 169.48V168.68ZM640.75 182.88C642.11 182.933 643.203 183 644.03 183.08C644.856 183.133 645.55 183.187 646.11 183.24C646.67 183.293 647.19 183.36 647.67 183.44C649.67 183.707 651.123 184.24 652.03 185.04C652.963 185.84 653.603 187.067 653.95 188.72L654.95 192.8C655.19 193.947 655.443 194.76 655.71 195.24C656.003 195.72 656.43 195.96 656.99 195.96C657.416 195.933 657.763 195.813 658.03 195.6C658.323 195.36 658.63 195.04 658.95 194.64L659.51 195.08C658.896 195.907 658.256 196.533 657.59 196.96C656.923 197.36 656.03 197.56 654.91 197.56C653.763 197.56 652.776 197.267 651.95 196.68C651.15 196.067 650.576 194.92 650.23 193.24L649.43 189.24C649.19 188.093 648.923 187.107 648.63 186.28C648.336 185.427 647.923 184.76 647.39 184.28C646.883 183.8 646.136 183.56 645.15 183.56H640.83L640.75 182.88ZM698.073 168.68V169.48C697.166 169.533 696.486 169.693 696.033 169.96C695.58 170.227 695.273 170.667 695.113 171.28C694.98 171.867 694.913 172.707 694.913 173.8V197.16C694.7 197.16 694.486 197.16 694.273 197.16C694.06 197.16 693.833 197.16 693.593 197.16L676.633 172.52V191.72C676.633 192.84 676.713 193.72 676.873 194.36C677.033 194.973 677.38 195.413 677.913 195.68C678.446 195.947 679.26 196.12 680.353 196.2V197C679.846 196.947 679.193 196.92 678.393 196.92C677.62 196.893 676.886 196.88 676.193 196.88C675.526 196.88 674.86 196.893 674.193 196.92C673.526 196.92 672.98 196.947 672.553 197V196.2C673.433 196.12 674.1 195.96 674.553 195.72C675.006 195.453 675.313 195.013 675.473 194.4C675.633 193.787 675.713 192.947 675.713 191.88V172.92C675.713 171.933 675.633 171.213 675.473 170.76C675.313 170.28 675.006 169.96 674.553 169.8C674.1 169.613 673.433 169.507 672.553 169.48V168.68C672.98 168.707 673.526 168.733 674.193 168.76C674.86 168.787 675.526 168.8 676.193 168.8C676.78 168.8 677.353 168.787 677.913 168.76C678.473 168.733 678.966 168.707 679.393 168.68L693.993 189.56V173.96C693.993 172.813 693.9 171.933 693.713 171.32C693.553 170.707 693.206 170.267 692.673 170C692.14 169.707 691.34 169.533 690.273 169.48V168.68C690.753 168.707 691.393 168.733 692.193 168.76C692.993 168.787 693.74 168.8 694.433 168.8C695.1 168.8 695.766 168.787 696.433 168.76C697.1 168.733 697.646 168.707 698.073 168.68ZM723.871 168.68V169.48C722.991 169.507 722.324 169.613 721.871 169.8C721.417 169.96 721.111 170.28 720.951 170.76C720.791 171.213 720.711 171.933 720.711 172.92V192.76C720.711 193.72 720.791 194.44 720.951 194.92C721.111 195.4 721.417 195.72 721.871 195.88C722.324 196.04 722.991 196.147 723.871 196.2V197C723.231 196.947 722.417 196.92 721.431 196.92C720.471 196.893 719.484 196.88 718.471 196.88C717.351 196.88 716.297 196.893 715.311 196.92C714.351 196.92 713.564 196.947 712.951 197V196.2C713.857 196.147 714.537 196.04 714.991 195.88C715.444 195.72 715.737 195.4 715.871 194.92C716.031 194.44 716.111 193.72 716.111 192.76V172.92C716.111 171.933 716.031 171.213 715.871 170.76C715.737 170.28 715.431 169.96 714.951 169.8C714.497 169.613 713.831 169.507 712.951 169.48V168.68C713.564 168.707 714.351 168.733 715.311 168.76C716.297 168.787 717.351 168.8 718.471 168.8C719.484 168.8 720.471 168.787 721.431 168.76C722.417 168.733 723.231 168.707 723.871 168.68ZM761.774 168.68C761.667 169.8 761.587 170.893 761.534 171.96C761.507 173 761.494 173.8 761.494 174.36C761.494 174.973 761.507 175.56 761.534 176.12C761.561 176.68 761.587 177.16 761.614 177.56H760.694C760.427 175.56 760.067 173.987 759.614 172.84C759.187 171.693 758.561 170.867 757.734 170.36C756.907 169.853 755.721 169.6 754.174 169.6H752.454V192.4C752.454 193.467 752.547 194.267 752.734 194.8C752.947 195.333 753.347 195.693 753.934 195.88C754.547 196.04 755.427 196.147 756.574 196.2V197C755.827 196.947 754.867 196.92 753.694 196.92C752.521 196.893 751.321 196.88 750.094 196.88C748.814 196.88 747.601 196.893 746.454 196.92C745.334 196.92 744.427 196.947 743.734 197V196.2C744.881 196.147 745.747 196.04 746.334 195.88C746.921 195.693 747.321 195.333 747.534 194.8C747.747 194.267 747.854 193.467 747.854 192.4V169.6H746.094C744.601 169.6 743.427 169.853 742.574 170.36C741.721 170.867 741.081 171.693 740.654 172.84C740.227 173.987 739.881 175.56 739.614 177.56H738.694C738.747 177.16 738.774 176.68 738.774 176.12C738.801 175.56 738.814 174.973 738.814 174.36C738.814 173.8 738.787 173 738.734 171.96C738.707 170.893 738.641 169.8 738.534 168.68C739.681 168.707 740.934 168.733 742.294 168.76C743.654 168.787 745.027 168.8 746.414 168.8C747.801 168.8 749.054 168.8 750.174 168.8C751.294 168.8 752.534 168.8 753.894 168.8C755.254 168.8 756.627 168.787 758.014 168.76C759.401 168.733 760.654 168.707 761.774 168.68ZM801.283 168.68V169.48C800.403 169.533 799.736 169.693 799.283 169.96C798.829 170.227 798.523 170.667 798.363 171.28C798.203 171.867 798.123 172.707 798.123 173.8V185.36C798.123 187.173 798.003 188.787 797.763 190.2C797.523 191.613 797.096 192.827 796.483 193.84C795.816 194.96 794.829 195.867 793.523 196.56C792.243 197.227 790.709 197.56 788.923 197.56C787.643 197.56 786.403 197.413 785.203 197.12C784.003 196.827 782.949 196.267 782.043 195.44C781.243 194.72 780.616 193.933 780.163 193.08C779.709 192.227 779.403 191.2 779.243 190C779.083 188.773 779.003 187.267 779.003 185.48V172.92C779.003 171.933 778.923 171.213 778.763 170.76C778.629 170.28 778.336 169.96 777.883 169.8C777.429 169.613 776.749 169.507 775.843 169.48V168.68C776.456 168.707 777.243 168.733 778.203 168.76C779.189 168.787 780.243 168.8 781.363 168.8C782.376 168.8 783.376 168.787 784.363 168.76C785.376 168.733 786.203 168.707 786.843 168.68V169.48C785.936 169.507 785.243 169.613 784.763 169.8C784.309 169.96 784.003 170.28 783.843 170.76C783.683 171.213 783.603 171.933 783.603 172.92V186.76C783.603 188.12 783.669 189.373 783.803 190.52C783.963 191.667 784.243 192.667 784.643 193.52C785.069 194.347 785.683 195 786.483 195.48C787.309 195.933 788.376 196.16 789.683 196.16C791.656 196.16 793.176 195.72 794.243 194.84C795.336 193.933 796.096 192.707 796.523 191.16C796.976 189.587 797.203 187.8 797.203 185.8V173.96C797.203 172.813 797.096 171.933 796.883 171.32C796.669 170.707 796.296 170.267 795.763 170C795.229 169.707 794.469 169.533 793.483 169.48V168.68C793.989 168.707 794.643 168.733 795.443 168.76C796.243 168.787 796.976 168.8 797.643 168.8C798.336 168.8 799.003 168.787 799.643 168.76C800.309 168.733 800.856 168.707 801.283 168.68ZM815.787 168.68C816.4 168.707 817.187 168.733 818.147 168.76C819.133 168.787 820.107 168.8 821.067 168.8C822.347 168.8 823.56 168.787 824.707 168.76C825.88 168.733 826.707 168.72 827.187 168.72C829.453 168.72 831.333 169.013 832.827 169.6C834.347 170.187 835.467 171.013 836.187 172.08C836.933 173.12 837.307 174.32 837.307 175.68C837.307 176.507 837.133 177.387 836.787 178.32C836.467 179.227 835.893 180.08 835.067 180.88C834.24 181.653 833.12 182.293 831.707 182.8C830.293 183.307 828.493 183.56 826.307 183.56H822.467V182.76H825.907C827.693 182.76 829.053 182.467 829.987 181.88C830.947 181.267 831.587 180.467 831.907 179.48C832.253 178.467 832.427 177.347 832.427 176.12C832.427 174.013 831.973 172.387 831.067 171.24C830.16 170.067 828.587 169.48 826.347 169.48C825.2 169.48 824.44 169.707 824.067 170.16C823.72 170.613 823.547 171.533 823.547 172.92V192.76C823.547 193.72 823.627 194.44 823.787 194.92C823.947 195.4 824.253 195.72 824.707 195.88C825.16 196.04 825.827 196.147 826.707 196.2V197C826.067 196.947 825.253 196.92 824.267 196.92C823.307 196.893 822.32 196.88 821.307 196.88C820.187 196.88 819.133 196.893 818.147 196.92C817.187 196.92 816.4 196.947 815.787 197V196.2C816.693 196.147 817.373 196.04 817.827 195.88C818.28 195.72 818.573 195.4 818.707 194.92C818.867 194.44 818.947 193.72 818.947 192.76V172.92C818.947 171.933 818.867 171.213 818.707 170.76C818.573 170.28 818.267 169.96 817.787 169.8C817.333 169.613 816.667 169.507 815.787 169.48V168.68ZM822.547 182.88C823.907 182.933 825 183 825.827 183.08C826.653 183.133 827.347 183.187 827.907 183.24C828.467 183.293 828.987 183.36 829.467 183.44C831.467 183.707 832.92 184.24 833.827 185.04C834.76 185.84 835.4 187.067 835.747 188.72L836.747 192.8C836.987 193.947 837.24 194.76 837.507 195.24C837.8 195.72 838.227 195.96 838.787 195.96C839.213 195.933 839.56 195.813 839.827 195.6C840.12 195.36 840.427 195.04 840.747 194.64L841.307 195.08C840.693 195.907 840.053 196.533 839.387 196.96C838.72 197.36 837.827 197.56 836.707 197.56C835.56 197.56 834.573 197.267 833.747 196.68C832.947 196.067 832.373 194.92 832.027 193.24L831.227 189.24C830.987 188.093 830.72 187.107 830.427 186.28C830.133 185.427 829.72 184.76 829.187 184.28C828.68 183.8 827.933 183.56 826.947 183.56H822.627L822.547 182.88ZM874.75 168.68C874.643 169.693 874.563 170.68 874.51 171.64C874.483 172.573 874.47 173.293 874.47 173.8C874.47 174.307 874.483 174.787 874.51 175.24C874.537 175.693 874.563 176.067 874.59 176.36H873.67C873.483 174.653 873.19 173.307 872.79 172.32C872.417 171.333 871.843 170.64 871.07 170.24C870.323 169.813 869.27 169.6 867.91 169.6H865.15C864.297 169.6 863.643 169.68 863.19 169.84C862.763 169.973 862.47 170.267 862.31 170.72C862.15 171.147 862.07 171.827 862.07 172.76V192.92C862.07 193.827 862.15 194.507 862.31 194.96C862.47 195.413 862.763 195.72 863.19 195.88C863.643 196.013 864.297 196.08 865.15 196.08H867.75C869.27 196.08 870.47 195.84 871.35 195.36C872.257 194.88 872.937 194.093 873.39 193C873.87 191.907 874.23 190.413 874.47 188.52H875.39C875.31 189.293 875.27 190.307 875.27 191.56C875.27 192.093 875.283 192.867 875.31 193.88C875.363 194.893 875.443 195.933 875.55 197C874.19 196.947 872.657 196.92 870.95 196.92C869.243 196.893 867.723 196.88 866.39 196.88C865.777 196.88 864.99 196.88 864.03 196.88C863.07 196.88 862.03 196.893 860.91 196.92C859.817 196.92 858.697 196.933 857.55 196.96C856.43 196.96 855.35 196.973 854.31 197V196.2C855.217 196.147 855.897 196.04 856.35 195.88C856.803 195.72 857.097 195.4 857.23 194.92C857.39 194.44 857.47 193.72 857.47 192.76V172.92C857.47 171.933 857.39 171.213 857.23 170.76C857.097 170.28 856.79 169.96 856.31 169.8C855.857 169.613 855.19 169.507 854.31 169.48V168.68C855.35 168.707 856.43 168.733 857.55 168.76C858.697 168.76 859.817 168.773 860.91 168.8C862.03 168.8 863.07 168.8 864.03 168.8C864.99 168.8 865.777 168.8 866.39 168.8C867.617 168.8 869.003 168.8 870.55 168.8C872.123 168.773 873.523 168.733 874.75 168.68ZM868.11 182.36C868.11 182.36 868.11 182.493 868.11 182.76C868.11 183.027 868.11 183.16 868.11 183.16H860.87C860.87 183.16 860.87 183.027 860.87 182.76C860.87 182.493 860.87 182.36 860.87 182.36H868.11ZM869.27 177.08C869.163 178.6 869.11 179.76 869.11 180.56C869.137 181.36 869.15 182.093 869.15 182.76C869.15 183.427 869.163 184.16 869.19 184.96C869.217 185.76 869.283 186.92 869.39 188.44H868.47C868.337 187.56 868.163 186.72 867.95 185.92C867.737 185.093 867.35 184.427 866.79 183.92C866.257 183.413 865.417 183.16 864.27 183.16V182.36C865.123 182.36 865.79 182.187 866.27 181.84C866.777 181.493 867.163 181.04 867.43 180.48C867.697 179.92 867.883 179.347 867.99 178.76C868.123 178.147 868.243 177.587 868.35 177.08H869.27Z" fill="black"/>
</svg>
