<svg width="641" height="452" viewBox="0 0 641 452" fill="none" xmlns="http://www.w3.org/2000/svg">
<path d="M321 9C423.725 9 507 92.275 507 195C507 205.213 506.174 215.234 504.591 225H494.45C496.125 215.25 497 205.227 497 195C497 97.7979 418.202 19 321 19C223.798 19 145 97.7979 145 195C145 205.227 145.875 215.25 147.55 225H137.409C135.826 215.234 135 205.213 135 195C135 92.275 218.275 9 321 9Z" fill="white"/>
<path d="M321 0C428.696 0 516 87.3045 516 195C516 205.202 515.216 215.221 513.706 225H509.656C511.198 215.227 512 205.207 512 195C512 89.5136 426.486 4 321 4C215.514 4 130 89.5136 130 195C130 205.207 130.802 215.227 132.344 225H128.294C126.784 215.221 126 205.202 126 195C126 87.3045 213.304 0 321 0Z" fill="white"/>
<path d="M321 9C423.725 9 507 92.275 507 195C507 205.213 506.174 215.234 504.591 225H494.45C496.125 215.25 497 205.227 497 195C497 97.7979 418.202 19 321 19C223.798 19 145 97.7979 145 195C145 205.227 145.875 215.25 147.55 225H137.409C135.826 215.234 135 205.213 135 195C135 92.275 218.275 9 321 9Z" fill="white"/>
<rect x="70" y="232" width="501" height="95" rx="47.5" fill="white"/>
<rect x="64" y="227" width="513" height="105" rx="52.5" stroke="white" stroke-width="4"/>
<rect x="1" y="333" width="639" height="72" rx="11" stroke="white" stroke-width="2"/>
<path d="M113.304 255.688C114.371 255.731 115.736 255.773 117.4 255.816C119.064 255.859 120.728 255.88 122.392 255.88C124.483 255.88 126.467 255.859 128.344 255.816C130.221 255.773 131.544 255.752 132.312 255.752C136.152 255.752 139.309 256.221 141.784 257.16C144.301 258.056 146.179 259.336 147.416 261C148.653 262.664 149.272 264.627 149.272 266.888C149.272 268.296 148.995 269.747 148.44 271.24C147.885 272.691 146.925 274.035 145.56 275.272C144.195 276.509 142.317 277.533 139.928 278.344C137.581 279.112 134.573 279.496 130.904 279.496H124.76V278.216H130.264C132.952 278.216 135 277.747 136.408 276.808C137.859 275.827 138.819 274.547 139.288 272.968C139.8 271.347 140.056 269.555 140.056 267.592C140.056 264.221 139.395 261.619 138.072 259.784C136.749 257.907 134.467 256.968 131.224 256.968C129.475 256.968 128.323 257.331 127.768 258.056C127.256 258.781 127 260.253 127 262.472V294.216C127 295.752 127.128 296.904 127.384 297.672C127.64 298.44 128.109 298.952 128.792 299.208C129.517 299.464 130.563 299.635 131.928 299.72V301C130.861 300.915 129.496 300.872 127.832 300.872C126.168 300.829 124.483 300.808 122.776 300.808C120.856 300.808 119.064 300.829 117.4 300.872C115.736 300.872 114.371 300.915 113.304 301V299.72C114.712 299.635 115.757 299.464 116.44 299.208C117.165 298.952 117.635 298.44 117.848 297.672C118.104 296.904 118.232 295.752 118.232 294.216V262.472C118.232 260.893 118.104 259.741 117.848 259.016C117.635 258.248 117.165 257.736 116.44 257.48C115.757 257.181 114.712 257.011 113.304 256.968V255.688ZM124.76 278.408C126.765 278.493 128.429 278.6 129.752 278.728C131.117 278.813 132.269 278.899 133.208 278.984C134.189 279.069 135.064 279.176 135.832 279.304C139.373 279.645 141.976 280.477 143.64 281.8C145.347 283.08 146.477 285.043 147.032 287.688L148.504 294.28C148.888 296.029 149.293 297.288 149.72 298.056C150.189 298.781 150.851 299.123 151.704 299.08C152.301 299.08 152.813 298.931 153.24 298.632C153.667 298.291 154.093 297.843 154.52 297.288L155.416 298.056C154.349 299.379 153.219 300.36 152.024 301C150.829 301.597 149.315 301.896 147.48 301.896C145.432 301.896 143.704 301.427 142.296 300.488C140.888 299.507 139.928 297.672 139.416 294.984L138.2 288.584C137.859 286.792 137.453 285.213 136.984 283.848C136.557 282.483 135.96 281.416 135.192 280.648C134.424 279.88 133.293 279.496 131.8 279.496H124.888L124.76 278.408ZM189.705 255.496L205.257 295.624C205.896 297.16 206.579 298.227 207.305 298.824C208.073 299.379 208.777 299.677 209.417 299.72V301C208.307 300.915 206.963 300.872 205.385 300.872C203.849 300.829 202.27 300.808 200.649 300.808C198.771 300.808 197.022 300.829 195.401 300.872C193.779 300.872 192.457 300.915 191.433 301V299.72C193.609 299.635 194.995 299.272 195.593 298.632C196.19 297.949 196.062 296.52 195.208 294.344L183.944 263.944L185.097 262.536L174.856 289.096C174.046 291.229 173.555 292.979 173.384 294.344C173.214 295.709 173.32 296.776 173.704 297.544C174.088 298.312 174.728 298.867 175.624 299.208C176.52 299.507 177.63 299.677 178.952 299.72V301C177.587 300.915 176.264 300.872 174.984 300.872C173.704 300.829 172.424 300.808 171.144 300.808C170.206 300.808 169.31 300.829 168.456 300.872C167.646 300.872 166.92 300.915 166.28 301V299.72C167.219 299.507 168.136 298.952 169.032 298.056C169.971 297.16 170.867 295.603 171.72 293.384L186.377 255.496C186.889 255.539 187.443 255.56 188.041 255.56C188.638 255.56 189.193 255.539 189.705 255.496ZM195.273 282.568V283.848H176.2L176.84 282.568H195.273ZM220.442 313.032V311.752C222.191 311.667 223.685 311.197 224.922 310.344C226.202 309.491 227.162 308.04 227.802 305.992C228.442 303.944 228.762 301.149 228.762 297.608V262.472C228.762 260.893 228.634 259.741 228.378 259.016C228.165 258.248 227.695 257.736 226.97 257.48C226.245 257.181 225.199 257.011 223.834 256.968V255.688C224.815 255.731 226.117 255.773 227.738 255.816C229.402 255.859 231.13 255.88 232.922 255.88C234.714 255.88 236.463 255.859 238.17 255.816C239.919 255.773 241.349 255.731 242.458 255.688V256.968C241.05 257.011 239.983 257.181 239.258 257.48C238.575 257.736 238.106 258.248 237.85 259.016C237.637 259.741 237.53 260.893 237.53 262.472V285.896C237.53 287.645 237.509 289.544 237.466 291.592C237.466 293.64 237.381 295.624 237.21 297.544C237.082 299.464 236.826 301.149 236.442 302.6C235.631 305.587 233.882 308.061 231.194 310.024C228.506 312.029 224.922 313.032 220.442 313.032ZM299.71 255.688V256.968C298.302 257.224 296.873 257.757 295.422 258.568C293.971 259.379 292.478 260.701 290.942 262.536L278.846 277.384L281.726 272.776L297.022 295.816C297.705 296.797 298.409 297.587 299.134 298.184C299.859 298.781 300.798 299.293 301.95 299.72V301C300.627 300.915 299.113 300.872 297.406 300.872C295.699 300.829 294.142 300.808 292.734 300.808C291.923 300.808 290.899 300.829 289.662 300.872C288.467 300.872 286.953 300.915 285.118 301V299.72C286.825 299.635 287.849 299.4 288.19 299.016C288.531 298.589 288.382 297.864 287.742 296.84L278.398 282.12C277.715 281.011 277.097 280.179 276.542 279.624C276.03 279.069 275.497 278.707 274.942 278.536C274.387 278.323 273.705 278.195 272.894 278.152V276.872C274.686 276.787 276.286 276.317 277.694 275.464C279.102 274.611 280.51 273.352 281.918 271.688L286.462 265.992C288.041 264.115 289.001 262.515 289.342 261.192C289.683 259.869 289.491 258.845 288.766 258.12C288.041 257.395 286.825 257.011 285.118 256.968V255.688C286.057 255.731 286.995 255.773 287.934 255.816C288.873 255.816 289.811 255.837 290.75 255.88C291.731 255.88 292.755 255.88 293.822 255.88C295.059 255.88 296.169 255.859 297.15 255.816C298.131 255.773 298.985 255.731 299.71 255.688ZM278.078 255.688V256.968C276.713 257.011 275.667 257.181 274.942 257.48C274.259 257.736 273.79 258.248 273.534 259.016C273.278 259.741 273.15 260.893 273.15 262.472V294.216C273.15 295.752 273.278 296.904 273.534 297.672C273.79 298.44 274.259 298.952 274.942 299.208C275.667 299.464 276.713 299.635 278.078 299.72V301C277.011 300.915 275.646 300.872 273.982 300.872C272.318 300.829 270.633 300.808 268.926 300.808C267.006 300.808 265.214 300.829 263.55 300.872C261.886 300.872 260.521 300.915 259.454 301V299.72C260.862 299.635 261.907 299.464 262.59 299.208C263.315 298.952 263.785 298.44 263.998 297.672C264.254 296.904 264.382 295.752 264.382 294.216V262.472C264.382 260.893 264.254 259.741 263.998 259.016C263.785 258.248 263.315 257.736 262.59 257.48C261.907 257.181 260.862 257.011 259.454 256.968V255.688C260.521 255.731 261.886 255.773 263.55 255.816C265.214 255.859 267.006 255.88 268.926 255.88C270.633 255.88 272.318 255.859 273.982 255.816C275.646 255.773 277.011 255.731 278.078 255.688ZM337.042 255.496L352.594 295.624C353.234 297.16 353.917 298.227 354.642 298.824C355.41 299.379 356.114 299.677 356.754 299.72V301C355.645 300.915 354.301 300.872 352.722 300.872C351.186 300.829 349.607 300.808 347.986 300.808C346.109 300.808 344.359 300.829 342.738 300.872C341.117 300.872 339.794 300.915 338.77 301V299.72C340.946 299.635 342.333 299.272 342.93 298.632C343.527 297.949 343.399 296.52 342.546 294.344L331.282 263.944L332.434 262.536L322.194 289.096C321.383 291.229 320.893 292.979 320.722 294.344C320.551 295.709 320.658 296.776 321.042 297.544C321.426 298.312 322.066 298.867 322.962 299.208C323.858 299.507 324.967 299.677 326.29 299.72V301C324.925 300.915 323.602 300.872 322.322 300.872C321.042 300.829 319.762 300.808 318.482 300.808C317.543 300.808 316.647 300.829 315.794 300.872C314.983 300.872 314.258 300.915 313.618 301V299.72C314.557 299.507 315.474 298.952 316.37 298.056C317.309 297.16 318.205 295.603 319.058 293.384L333.714 255.496C334.226 255.539 334.781 255.56 335.378 255.56C335.975 255.56 336.53 255.539 337.042 255.496ZM342.61 282.568V283.848H323.538L324.178 282.568H342.61ZM423.746 255.688V256.968C422.38 257.011 421.335 257.181 420.61 257.48C419.884 257.736 419.394 258.248 419.138 259.016C418.924 259.741 418.818 260.893 418.818 262.472V294.216C418.818 295.752 418.946 296.904 419.202 297.672C419.458 298.44 419.927 298.952 420.61 299.208C421.335 299.464 422.38 299.635 423.746 299.72V301C422.636 300.915 421.228 300.872 419.522 300.872C417.815 300.829 416.087 300.808 414.338 300.808C412.418 300.808 410.604 300.829 408.898 300.872C407.234 300.872 405.89 300.915 404.866 301V299.72C406.316 299.635 407.404 299.464 408.13 299.208C408.898 298.952 409.41 298.44 409.666 297.672C409.922 296.904 410.05 295.752 410.05 294.216V259.4L410.498 259.464L394.626 301.192H393.602L376.706 259.784V291.528C376.706 293.576 376.834 295.176 377.09 296.328C377.346 297.437 377.9 298.248 378.754 298.76C379.65 299.229 380.994 299.549 382.786 299.72V301C381.975 300.915 380.93 300.872 379.65 300.872C378.37 300.829 377.154 300.808 376.002 300.808C374.978 300.808 373.932 300.829 372.866 300.872C371.842 300.872 370.988 300.915 370.306 301V299.72C371.714 299.549 372.759 299.229 373.442 298.76C374.167 298.291 374.636 297.523 374.85 296.456C375.106 295.389 375.234 293.917 375.234 292.04V262.472C375.234 260.893 375.106 259.741 374.85 259.016C374.636 258.248 374.167 257.736 373.442 257.48C372.759 257.181 371.714 257.011 370.306 256.968V255.688C370.988 255.731 371.842 255.773 372.866 255.816C373.932 255.859 374.978 255.88 376.002 255.88C377.58 255.88 379.116 255.859 380.61 255.816C382.103 255.773 383.426 255.731 384.578 255.688L398.338 290.056L396.93 291.208L410.306 255.88C410.946 255.88 411.607 255.88 412.29 255.88C413.015 255.88 413.698 255.88 414.338 255.88C416.087 255.88 417.815 255.859 419.522 255.816C421.228 255.773 422.636 255.731 423.746 255.688ZM461.517 255.496L477.069 295.624C477.709 297.16 478.392 298.227 479.117 298.824C479.885 299.379 480.589 299.677 481.229 299.72V301C480.12 300.915 478.776 300.872 477.197 300.872C475.661 300.829 474.082 300.808 472.461 300.808C470.584 300.808 468.834 300.829 467.213 300.872C465.592 300.872 464.269 300.915 463.245 301V299.72C465.421 299.635 466.808 299.272 467.405 298.632C468.002 297.949 467.874 296.52 467.021 294.344L455.757 263.944L456.909 262.536L446.669 289.096C445.858 291.229 445.368 292.979 445.197 294.344C445.026 295.709 445.133 296.776 445.517 297.544C445.901 298.312 446.541 298.867 447.437 299.208C448.333 299.507 449.442 299.677 450.765 299.72V301C449.4 300.915 448.077 300.872 446.797 300.872C445.517 300.829 444.237 300.808 442.957 300.808C442.018 300.808 441.122 300.829 440.269 300.872C439.458 300.872 438.733 300.915 438.093 301V299.72C439.032 299.507 439.949 298.952 440.845 298.056C441.784 297.16 442.68 295.603 443.533 293.384L458.189 255.496C458.701 255.539 459.256 255.56 459.853 255.56C460.45 255.56 461.005 255.539 461.517 255.496ZM467.085 282.568V283.848H448.013L448.653 282.568H467.085ZM513.597 255.688V256.968C512.146 257.011 511.037 257.181 510.269 257.48C509.543 257.736 509.053 258.248 508.797 259.016C508.541 259.741 508.413 260.893 508.413 262.472V294.728C508.413 296.093 508.519 297.139 508.733 297.864C508.989 298.547 509.437 298.995 510.077 299.208C510.717 299.421 511.634 299.528 512.829 299.528H516.477C518.141 299.528 519.591 299.229 520.829 298.632C522.109 298.035 523.218 297.16 524.157 296.008C525.095 294.856 525.863 293.448 526.461 291.784C527.058 290.077 527.485 288.157 527.741 286.024H529.213C529.085 287.432 529.021 289.267 529.021 291.528C529.021 292.467 529.042 293.811 529.085 295.56C529.17 297.309 529.298 299.123 529.469 301C527.293 300.915 524.839 300.872 522.109 300.872C519.378 300.829 516.946 300.808 514.813 300.808C513.789 300.808 512.487 300.808 510.909 300.808C509.33 300.808 507.602 300.829 505.725 300.872C503.89 300.872 502.013 300.893 500.093 300.936C498.215 300.936 496.423 300.957 494.717 301V299.72C496.125 299.635 497.17 299.464 497.853 299.208C498.578 298.952 499.047 298.44 499.261 297.672C499.517 296.904 499.645 295.752 499.645 294.216V262.472C499.645 260.893 499.517 259.741 499.261 259.016C499.047 258.248 498.578 257.736 497.853 257.48C497.17 257.181 496.125 257.011 494.717 256.968V255.688C495.783 255.731 497.149 255.773 498.813 255.816C500.477 255.859 502.269 255.88 504.189 255.88C505.938 255.88 507.666 255.859 509.373 255.816C511.079 255.773 512.487 255.731 513.597 255.688Z" fill="#A47551"/>
<path d="M83.76 353.68C83.6533 354.88 83.5733 356.04 83.52 357.16C83.4933 358.28 83.48 359.147 83.48 359.76C83.48 360.347 83.4933 360.907 83.52 361.44C83.5467 361.973 83.5733 362.427 83.6 362.8H82.68C82.3333 360.72 81.8533 359.093 81.24 357.92C80.6267 356.72 79.8667 355.867 78.96 355.36C78.08 354.853 77.0267 354.6 75.8 354.6H74.48C73.7067 354.6 73.12 354.667 72.72 354.8C72.32 354.933 72.0533 355.2 71.92 355.6C71.7867 356 71.72 356.613 71.72 357.44V377.52C71.72 378.56 71.8267 379.333 72.04 379.84C72.2533 380.347 72.6667 380.68 73.28 380.84C73.8933 381 74.8 381.093 76 381.12V382C75.1733 381.973 74.1067 381.947 72.8 381.92C71.4933 381.893 70.12 381.88 68.68 381.88C67.5333 381.88 66.4133 381.893 65.32 381.92C64.2267 381.947 63.24 381.973 62.36 382V381.2C63.2133 381.147 63.8533 381.04 64.28 380.88C64.7067 380.72 64.9867 380.4 65.12 379.92C65.28 379.44 65.36 378.72 65.36 377.76V357.92C65.36 356.933 65.28 356.213 65.12 355.76C64.9867 355.28 64.6933 354.96 64.24 354.8C63.8133 354.613 63.1867 354.507 62.36 354.48V353.68C63.4533 353.707 64.6133 353.733 65.84 353.76C67.0667 353.76 68.28 353.773 69.48 353.8C70.68 353.8 71.8 353.8 72.84 353.8C73.88 353.8 74.7333 353.8 75.4 353.8C76.6267 353.8 78.0133 353.8 79.56 353.8C81.1333 353.773 82.5333 353.733 83.76 353.68ZM77.8 367.52C77.8 367.52 77.8 367.653 77.8 367.92C77.8 368.187 77.8 368.32 77.8 368.32H70.52C70.52 368.32 70.52 368.187 70.52 367.92C70.52 367.653 70.52 367.52 70.52 367.52H77.8ZM78.8 362.24C78.6933 363.76 78.64 364.92 78.64 365.72C78.6667 366.52 78.68 367.253 78.68 367.92C78.68 368.587 78.6933 369.32 78.72 370.12C78.7467 370.92 78.8133 372.08 78.92 373.6H78C77.84 372.667 77.5867 371.8 77.24 371C76.8933 370.2 76.3867 369.56 75.72 369.08C75.0533 368.573 74.1867 368.32 73.12 368.32V367.52C73.92 367.52 74.5867 367.36 75.12 367.04C75.68 366.693 76.1467 366.253 76.52 365.72C76.8933 365.16 77.1867 364.573 77.4 363.96C77.6133 363.347 77.7733 362.773 77.88 362.24H78.8ZM147.512 353.68V354.48C146.659 354.587 146.005 354.813 145.552 355.16C145.125 355.48 144.845 356 144.712 356.72C144.579 357.44 144.512 358.453 144.512 359.76V370.36C144.512 372.093 144.392 373.68 144.152 375.12C143.912 376.56 143.485 377.8 142.872 378.84C142.179 379.987 141.165 380.893 139.832 381.56C138.499 382.227 136.805 382.56 134.752 382.56C133.525 382.56 132.272 382.413 130.992 382.12C129.712 381.853 128.565 381.333 127.552 380.56C126.699 379.84 126.045 379.027 125.592 378.12C125.139 377.213 124.832 376.147 124.672 374.92C124.512 373.667 124.432 372.187 124.432 370.48V357.92C124.432 356.933 124.352 356.213 124.192 355.76C124.059 355.28 123.779 354.96 123.352 354.8C122.925 354.613 122.285 354.507 121.432 354.48V353.68C122.099 353.707 122.992 353.733 124.112 353.76C125.259 353.787 126.445 353.8 127.672 353.8C128.899 353.8 130.072 353.787 131.192 353.76C132.339 353.733 133.285 353.707 134.032 353.68V354.48C133.125 354.507 132.432 354.613 131.952 354.8C131.499 354.96 131.192 355.28 131.032 355.76C130.872 356.213 130.792 356.933 130.792 357.92V373C130.792 374.333 130.872 375.52 131.032 376.56C131.219 377.573 131.512 378.427 131.912 379.12C132.339 379.787 132.912 380.293 133.632 380.64C134.352 380.987 135.245 381.16 136.312 381.16C138.179 381.16 139.632 380.72 140.672 379.84C141.739 378.96 142.485 377.747 142.912 376.2C143.365 374.627 143.592 372.827 143.592 370.8V360.24C143.592 358.773 143.499 357.653 143.312 356.88C143.125 356.08 142.752 355.507 142.192 355.16C141.659 354.813 140.832 354.587 139.712 354.48V353.68C140.219 353.707 140.885 353.733 141.712 353.76C142.539 353.787 143.312 353.8 144.032 353.8C144.672 353.8 145.299 353.787 145.912 353.76C146.552 353.733 147.085 353.707 147.512 353.68ZM185.61 353.68C186.277 353.707 187.17 353.733 188.29 353.76C189.437 353.787 190.57 353.8 191.69 353.8C192.97 353.8 194.21 353.787 195.41 353.76C196.61 353.733 197.463 353.72 197.97 353.72C200.45 353.72 202.503 354 204.13 354.56C205.783 355.093 207.01 355.88 207.81 356.92C208.637 357.96 209.05 359.213 209.05 360.68C209.05 361.587 208.863 362.507 208.49 363.44C208.117 364.347 207.477 365.2 206.57 366C205.69 366.773 204.477 367.4 202.93 367.88C201.383 368.333 199.437 368.56 197.09 368.56H193.25V367.76H196.69C198.263 367.76 199.45 367.467 200.25 366.88C201.077 366.267 201.637 365.467 201.93 364.48C202.25 363.467 202.41 362.347 202.41 361.12C202.41 359.013 202.037 357.387 201.29 356.24C200.543 355.067 199.263 354.48 197.45 354.48C196.41 354.48 195.73 354.707 195.41 355.16C195.117 355.613 194.97 356.533 194.97 357.92V377.76C194.97 378.72 195.037 379.44 195.17 379.92C195.33 380.4 195.623 380.72 196.05 380.88C196.477 381.04 197.117 381.147 197.97 381.2V382C197.25 381.947 196.343 381.92 195.25 381.92C194.157 381.893 193.05 381.88 191.93 381.88C190.65 381.88 189.437 381.893 188.29 381.92C187.17 381.92 186.277 381.947 185.61 382V381.2C186.463 381.147 187.103 381.04 187.53 380.88C187.957 380.72 188.237 380.4 188.37 379.92C188.53 379.44 188.61 378.72 188.61 377.76V357.92C188.61 356.933 188.53 356.213 188.37 355.76C188.237 355.28 187.943 354.96 187.49 354.8C187.063 354.613 186.437 354.507 185.61 354.48V353.68ZM193.17 367.88C194.317 367.907 195.303 367.96 196.13 368.04C196.983 368.12 197.73 368.2 198.37 368.28C199.01 368.333 199.583 368.373 200.09 368.4C202.517 368.613 204.303 369.133 205.45 369.96C206.623 370.787 207.383 372.027 207.73 373.68L208.65 377.8C208.89 378.867 209.143 379.613 209.41 380.04C209.677 380.467 210.063 380.68 210.57 380.68C210.917 380.653 211.197 380.573 211.41 380.44C211.65 380.28 211.903 380.053 212.17 379.76L212.73 380.24C212.01 381.067 211.237 381.653 210.41 382C209.583 382.373 208.583 382.56 207.41 382.56C205.97 382.56 204.783 382.253 203.85 381.64C202.917 381.027 202.303 379.893 202.01 378.24L201.29 374.24C201.103 373.12 200.877 372.147 200.61 371.32C200.343 370.467 199.97 369.8 199.49 369.32C199.037 368.813 198.397 368.56 197.57 368.56H193.25L193.17 367.88ZM275.665 353.68V354.48C274.812 354.587 274.172 354.813 273.745 355.16C273.319 355.48 273.025 356 272.865 356.72C272.732 357.44 272.665 358.453 272.665 359.76V382.08C272.345 382.053 272.012 382.04 271.665 382.04C271.345 382.04 270.999 382.053 270.625 382.08L253.265 360.08V375.44C253.265 376.907 253.345 378.04 253.505 378.84C253.665 379.613 254.012 380.173 254.545 380.52C255.105 380.84 255.972 381.067 257.145 381.2V382C256.639 381.947 255.972 381.92 255.145 381.92C254.319 381.893 253.545 381.88 252.825 381.88C252.212 381.88 251.585 381.893 250.945 381.92C250.305 381.92 249.772 381.947 249.345 382V381.2C250.199 381.067 250.839 380.84 251.265 380.52C251.692 380.2 251.972 379.68 252.105 378.96C252.265 378.213 252.345 377.2 252.345 375.92V357.92C252.345 356.933 252.265 356.213 252.105 355.76C251.972 355.28 251.679 354.96 251.225 354.8C250.799 354.613 250.172 354.507 249.345 354.48V353.68C249.772 353.707 250.305 353.733 250.945 353.76C251.585 353.787 252.212 353.8 252.825 353.8C253.465 353.8 254.079 353.787 254.665 353.76C255.252 353.733 255.785 353.707 256.265 353.68L271.745 372.76V360.24C271.745 358.773 271.665 357.653 271.505 356.88C271.345 356.08 270.985 355.507 270.425 355.16C269.892 354.813 269.039 354.587 267.865 354.48V353.68C268.372 353.707 269.039 353.733 269.865 353.76C270.692 353.787 271.465 353.8 272.185 353.8C272.825 353.8 273.452 353.787 274.065 353.76C274.705 353.733 275.239 353.707 275.665 353.68ZM326.533 353.68V354.48C325.679 354.507 325.026 354.613 324.572 354.8C324.146 354.96 323.866 355.28 323.733 355.76C323.599 356.213 323.533 356.933 323.533 357.92V377.76C323.533 378.72 323.599 379.44 323.733 379.92C323.893 380.4 324.186 380.72 324.613 380.88C325.039 381.04 325.679 381.147 326.533 381.2V382C325.813 381.947 324.906 381.92 323.813 381.92C322.719 381.893 321.613 381.88 320.493 381.88C319.186 381.88 317.973 381.893 316.853 381.92C315.759 381.92 314.866 381.947 314.173 382V381.2C315.026 381.147 315.666 381.04 316.093 380.88C316.519 380.72 316.799 380.4 316.933 379.92C317.093 379.44 317.173 378.72 317.173 377.76V357.92C317.173 356.933 317.093 356.213 316.933 355.76C316.799 355.28 316.506 354.96 316.053 354.8C315.626 354.613 314.999 354.507 314.173 354.48V353.68C314.866 353.707 315.759 353.733 316.853 353.76C317.973 353.787 319.186 353.8 320.493 353.8C321.613 353.8 322.719 353.787 323.813 353.76C324.906 353.733 325.813 353.707 326.533 353.68ZM389.532 353.68C389.425 355.04 389.345 356.347 389.292 357.6C389.265 358.853 389.252 359.813 389.252 360.48C389.252 361.067 389.265 361.627 389.292 362.16C389.318 362.693 389.345 363.147 389.372 363.52H388.452C388.025 361.28 387.478 359.507 386.812 358.2C386.172 356.893 385.398 355.973 384.492 355.44C383.585 354.88 382.518 354.6 381.292 354.6H380.372V377.44C380.372 378.507 380.478 379.307 380.692 379.84C380.932 380.373 381.358 380.733 381.972 380.92C382.585 381.08 383.478 381.173 384.652 381.2V382C383.825 381.973 382.718 381.947 381.332 381.92C379.972 381.893 378.545 381.88 377.052 381.88C375.585 381.88 374.198 381.893 372.892 381.92C371.585 381.947 370.532 381.973 369.732 382V381.2C370.932 381.173 371.838 381.08 372.452 380.92C373.065 380.733 373.478 380.373 373.692 379.84C373.905 379.307 374.012 378.507 374.012 377.44V354.6H373.132C371.905 354.6 370.838 354.88 369.932 355.44C369.025 355.973 368.252 356.893 367.612 358.2C366.972 359.48 366.412 361.253 365.932 363.52H365.012C365.065 363.147 365.092 362.693 365.092 362.16C365.118 361.627 365.132 361.067 365.132 360.48C365.132 359.813 365.105 358.853 365.052 357.6C365.025 356.347 364.958 355.04 364.852 353.68C366.078 353.707 367.412 353.733 368.852 353.76C370.318 353.787 371.785 353.8 373.252 353.8C374.718 353.8 376.038 353.8 377.212 353.8C378.412 353.8 379.732 353.8 381.172 353.8C382.638 353.8 384.105 353.787 385.572 353.76C387.038 353.733 388.358 353.707 389.532 353.68ZM453.41 353.68V354.48C452.557 354.587 451.904 354.813 451.45 355.16C451.024 355.48 450.744 356 450.61 356.72C450.477 357.44 450.41 358.453 450.41 359.76V370.36C450.41 372.093 450.29 373.68 450.05 375.12C449.81 376.56 449.384 377.8 448.77 378.84C448.077 379.987 447.064 380.893 445.73 381.56C444.397 382.227 442.704 382.56 440.65 382.56C439.424 382.56 438.17 382.413 436.89 382.12C435.61 381.853 434.464 381.333 433.45 380.56C432.597 379.84 431.944 379.027 431.49 378.12C431.037 377.213 430.73 376.147 430.57 374.92C430.41 373.667 430.33 372.187 430.33 370.48V357.92C430.33 356.933 430.25 356.213 430.09 355.76C429.957 355.28 429.677 354.96 429.25 354.8C428.824 354.613 428.184 354.507 427.33 354.48V353.68C427.997 353.707 428.89 353.733 430.01 353.76C431.157 353.787 432.344 353.8 433.57 353.8C434.797 353.8 435.97 353.787 437.09 353.76C438.237 353.733 439.184 353.707 439.93 353.68V354.48C439.024 354.507 438.33 354.613 437.85 354.8C437.397 354.96 437.09 355.28 436.93 355.76C436.77 356.213 436.69 356.933 436.69 357.92V373C436.69 374.333 436.77 375.52 436.93 376.56C437.117 377.573 437.41 378.427 437.81 379.12C438.237 379.787 438.81 380.293 439.53 380.64C440.25 380.987 441.144 381.16 442.21 381.16C444.077 381.16 445.53 380.72 446.57 379.84C447.637 378.96 448.384 377.747 448.81 376.2C449.264 374.627 449.49 372.827 449.49 370.8V360.24C449.49 358.773 449.397 357.653 449.21 356.88C449.024 356.08 448.65 355.507 448.09 355.16C447.557 354.813 446.73 354.587 445.61 354.48V353.68C446.117 353.707 446.784 353.733 447.61 353.76C448.437 353.787 449.21 353.8 449.93 353.8C450.57 353.8 451.197 353.787 451.81 353.76C452.45 353.733 452.984 353.707 453.41 353.68ZM491.508 353.68C492.175 353.707 493.068 353.733 494.188 353.76C495.335 353.787 496.468 353.8 497.588 353.8C498.868 353.8 500.108 353.787 501.308 353.76C502.508 353.733 503.362 353.72 503.868 353.72C506.348 353.72 508.402 354 510.028 354.56C511.682 355.093 512.908 355.88 513.708 356.92C514.535 357.96 514.948 359.213 514.948 360.68C514.948 361.587 514.762 362.507 514.388 363.44C514.015 364.347 513.375 365.2 512.468 366C511.588 366.773 510.375 367.4 508.828 367.88C507.282 368.333 505.335 368.56 502.988 368.56H499.148V367.76H502.588C504.162 367.76 505.348 367.467 506.148 366.88C506.975 366.267 507.535 365.467 507.828 364.48C508.148 363.467 508.308 362.347 508.308 361.12C508.308 359.013 507.935 357.387 507.188 356.24C506.442 355.067 505.162 354.48 503.348 354.48C502.308 354.48 501.628 354.707 501.308 355.16C501.015 355.613 500.868 356.533 500.868 357.92V377.76C500.868 378.72 500.935 379.44 501.068 379.92C501.228 380.4 501.522 380.72 501.948 380.88C502.375 381.04 503.015 381.147 503.868 381.2V382C503.148 381.947 502.242 381.92 501.148 381.92C500.055 381.893 498.948 381.88 497.828 381.88C496.548 381.88 495.335 381.893 494.188 381.92C493.068 381.92 492.175 381.947 491.508 382V381.2C492.362 381.147 493.002 381.04 493.428 380.88C493.855 380.72 494.135 380.4 494.268 379.92C494.428 379.44 494.508 378.72 494.508 377.76V357.92C494.508 356.933 494.428 356.213 494.268 355.76C494.135 355.28 493.842 354.96 493.388 354.8C492.962 354.613 492.335 354.507 491.508 354.48V353.68ZM499.068 367.88C500.215 367.907 501.202 367.96 502.028 368.04C502.882 368.12 503.628 368.2 504.268 368.28C504.908 368.333 505.482 368.373 505.988 368.4C508.415 368.613 510.202 369.133 511.348 369.96C512.522 370.787 513.282 372.027 513.628 373.68L514.548 377.8C514.788 378.867 515.042 379.613 515.308 380.04C515.575 380.467 515.962 380.68 516.468 380.68C516.815 380.653 517.095 380.573 517.308 380.44C517.548 380.28 517.802 380.053 518.068 379.76L518.628 380.24C517.908 381.067 517.135 381.653 516.308 382C515.482 382.373 514.482 382.56 513.308 382.56C511.868 382.56 510.682 382.253 509.748 381.64C508.815 381.027 508.202 379.893 507.908 378.24L507.188 374.24C507.002 373.12 506.775 372.147 506.508 371.32C506.242 370.467 505.868 369.8 505.388 369.32C504.935 368.813 504.295 368.56 503.468 368.56H499.148L499.068 367.88ZM576.604 353.68C576.497 354.853 576.417 355.987 576.364 357.08C576.337 358.173 576.324 359.013 576.324 359.6C576.324 360.133 576.337 360.64 576.364 361.12C576.39 361.6 576.417 362 576.444 362.32H575.524C575.257 360.373 574.844 358.84 574.284 357.72C573.724 356.573 572.99 355.773 572.084 355.32C571.204 354.84 570.164 354.6 568.964 354.6H567.324C566.55 354.6 565.964 354.667 565.564 354.8C565.164 354.933 564.897 355.2 564.764 355.6C564.63 356 564.564 356.613 564.564 357.44V378.24C564.564 379.067 564.63 379.68 564.764 380.08C564.897 380.48 565.164 380.747 565.564 380.88C565.964 381.013 566.55 381.08 567.324 381.08H569.284C570.484 381.08 571.537 380.827 572.444 380.32C573.377 379.787 574.164 378.893 574.804 377.64C575.47 376.387 575.977 374.693 576.324 372.56H577.244C577.164 373.413 577.124 374.533 577.124 375.92C577.124 376.533 577.137 377.4 577.164 378.52C577.19 379.64 577.27 380.8 577.404 382C576.044 381.947 574.51 381.92 572.804 381.92C571.097 381.893 569.577 381.88 568.244 381.88C567.577 381.88 566.724 381.88 565.684 381.88C564.644 381.88 563.524 381.893 562.324 381.92C561.124 381.92 559.91 381.933 558.684 381.96C557.457 381.96 556.297 381.973 555.204 382V381.2C556.057 381.147 556.697 381.04 557.124 380.88C557.55 380.72 557.83 380.4 557.964 379.92C558.124 379.44 558.204 378.72 558.204 377.76V357.92C558.204 356.933 558.124 356.213 557.964 355.76C557.83 355.28 557.537 354.96 557.084 354.8C556.657 354.613 556.03 354.507 555.204 354.48V353.68C556.297 353.707 557.457 353.733 558.684 353.76C559.91 353.76 561.124 353.773 562.324 353.8C563.524 353.8 564.644 353.8 565.684 353.8C566.724 353.8 567.577 353.8 568.244 353.8C569.47 353.8 570.857 353.8 572.404 353.8C573.977 353.773 575.377 353.733 576.604 353.68ZM570.364 367.36C570.364 367.36 570.364 367.493 570.364 367.76C570.364 368.027 570.364 368.16 570.364 368.16H563.364C563.364 368.16 563.364 368.027 563.364 367.76C563.364 367.493 563.364 367.36 563.364 367.36H570.364ZM571.524 362.08C571.417 363.6 571.364 364.76 571.364 365.56C571.39 366.36 571.404 367.093 571.404 367.76C571.404 368.427 571.417 369.16 571.444 369.96C571.47 370.76 571.537 371.92 571.644 373.44H570.724C570.59 372.507 570.337 371.64 569.964 370.84C569.617 370.04 569.11 369.4 568.444 368.92C567.777 368.413 566.91 368.16 565.844 368.16V367.36C566.644 367.36 567.324 367.2 567.884 366.88C568.444 366.533 568.897 366.093 569.244 365.56C569.617 365 569.91 364.413 570.124 363.8C570.337 363.187 570.497 362.613 570.604 362.08H571.524Z" fill="white"/>
<path d="M218.68 433.608C219.149 435.592 219.811 437 220.664 437.832C221.517 438.664 222.627 439.08 223.992 439.08C225.357 439.08 226.349 438.76 226.968 438.12C227.587 437.459 227.896 436.648 227.896 435.688C227.896 434.728 227.512 433.885 226.744 433.16C225.997 432.435 225.08 431.805 223.992 431.272C222.925 430.739 221.848 430.173 220.76 429.576C219.693 428.979 218.776 428.2 218.008 427.24C217.261 426.259 216.888 425.128 216.888 423.848C216.888 421.885 217.635 420.403 219.128 419.4C220.621 418.397 222.509 417.896 224.792 417.896C227.096 417.896 229.24 418.365 231.224 419.304C231.437 419.731 231.544 420.637 231.544 422.024C231.544 423.389 231.491 424.456 231.384 425.224L229.368 425.16C229.219 421.789 227.544 420.104 224.344 420.104C223.491 420.104 222.787 420.36 222.232 420.872C221.677 421.363 221.4 422.003 221.4 422.792C221.4 423.581 221.667 424.275 222.2 424.872C222.755 425.469 223.437 425.981 224.248 426.408C225.08 426.813 225.965 427.293 226.904 427.848C227.864 428.381 228.749 428.925 229.56 429.48C230.392 430.013 231.075 430.728 231.608 431.624C232.163 432.52 232.44 433.512 232.44 434.6C232.44 436.52 231.715 438.131 230.264 439.432C228.835 440.733 226.989 441.384 224.728 441.384C222.467 441.384 219.949 440.883 217.176 439.88C217.069 439.539 216.909 438.707 216.696 437.384C216.504 436.061 216.365 434.952 216.28 434.056L218.68 433.608ZM245.047 427.144V438.568C245.047 438.909 245.164 439.165 245.399 439.336C245.655 439.485 246.167 439.56 246.935 439.56L247.287 441.096C245.047 441.032 243.489 441 242.615 441C241.761 441 240.62 441.032 239.191 441.096L238.871 439.56C239.745 439.539 240.332 439.453 240.631 439.304C240.929 439.133 241.079 438.888 241.079 438.568V430.888C241.079 430.397 240.951 430.024 240.695 429.768C240.439 429.491 239.927 429.352 239.159 429.352H238.743L238.295 428.04C240.215 427.592 242.113 427.048 243.991 426.408C244.439 426.408 244.727 426.461 244.855 426.568C244.983 426.653 245.047 426.845 245.047 427.144ZM242.999 423.368C242.423 423.368 241.921 423.176 241.495 422.792C241.068 422.408 240.855 421.917 240.855 421.32C240.855 420.723 241.079 420.2 241.527 419.752C241.996 419.304 242.519 419.08 243.095 419.08C243.671 419.08 244.172 419.272 244.599 419.656C245.025 420.04 245.239 420.531 245.239 421.128C245.239 421.725 245.004 422.248 244.535 422.696C244.087 423.144 243.575 423.368 242.999 423.368ZM258.274 427.24C258.295 427.389 258.306 427.517 258.306 427.624C258.306 427.731 258.316 427.891 258.338 428.104C258.359 428.317 258.37 428.477 258.37 428.584C259.991 427.731 261.175 427.197 261.922 426.984C262.668 426.771 263.308 426.664 263.842 426.664C265.079 426.664 266.082 427.112 266.85 428.008C267.618 428.904 268.002 430.205 268.002 431.912V438.568C268.002 438.76 268.012 438.92 268.034 439.048C268.076 439.155 268.204 439.272 268.418 439.4C268.631 439.507 268.94 439.56 269.346 439.56L269.698 441.096C267.458 441.032 266.05 441 265.474 441C264.898 441 263.895 441.032 262.466 441.096L262.146 439.56C262.871 439.539 263.362 439.453 263.618 439.304C263.874 439.133 264.012 438.888 264.034 438.568V432.872C264.034 431.741 263.842 430.909 263.458 430.376C263.095 429.821 262.466 429.544 261.57 429.544C260.695 429.544 259.682 429.789 258.53 430.28V438.568C258.53 438.76 258.54 438.92 258.562 439.048C258.604 439.155 258.732 439.272 258.946 439.4C259.159 439.507 259.468 439.56 259.874 439.56L260.226 441.096C257.986 441.032 256.578 441 256.002 441C255.426 441 254.423 441.032 252.994 441.096L252.674 439.56C253.399 439.539 253.89 439.453 254.146 439.304C254.402 439.133 254.54 438.888 254.562 438.568V430.888C254.562 430.376 254.444 430.024 254.21 429.832C253.975 429.619 253.676 429.512 253.314 429.512C252.972 429.512 252.716 429.523 252.546 429.544L252.098 428.232C253.42 427.912 255.212 427.304 257.474 426.408C257.751 426.408 257.922 426.472 257.986 426.6C258.071 426.707 258.135 426.803 258.178 426.888C258.22 426.973 258.252 427.091 258.274 427.24ZM282.467 428.616C281.464 428.616 280.696 429.043 280.163 429.896C279.629 430.749 279.363 431.923 279.363 433.416C279.363 434.888 279.715 436.211 280.419 437.384C281.144 438.536 282.211 439.112 283.619 439.112C285.027 439.112 286.285 438.611 287.395 437.608C287.544 437.459 287.672 437.448 287.779 437.576L288.291 438.28C287.565 439.197 286.669 439.944 285.603 440.52C284.536 441.096 283.437 441.384 282.307 441.384C280.131 441.384 278.403 440.723 277.123 439.4C275.843 438.056 275.203 436.381 275.203 434.376C275.203 431.923 275.907 430.024 277.315 428.68C278.723 427.336 280.429 426.664 282.435 426.664C283.437 426.664 284.515 426.856 285.667 427.24C286.84 427.624 287.629 428.019 288.035 428.424C288.056 428.467 288.067 428.52 288.067 428.584C288.067 428.925 287.683 429.64 286.915 430.728C286.829 430.813 286.712 430.856 286.563 430.856C286.413 430.856 286.136 430.675 285.731 430.312C284.557 429.181 283.469 428.616 282.467 428.616ZM306.594 433.448H297.89C297.89 434.685 298.125 435.848 298.594 436.936C298.871 437.576 299.319 438.099 299.938 438.504C300.578 438.909 301.303 439.112 302.114 439.112C302.925 439.112 303.671 438.952 304.354 438.632C305.058 438.291 305.527 438.003 305.762 437.768C306.018 437.512 306.199 437.448 306.306 437.576L306.818 438.28C306.093 439.176 305.186 439.923 304.098 440.52C303.031 441.096 301.986 441.384 300.962 441.384C298.658 441.384 296.877 440.733 295.618 439.432C294.359 438.109 293.73 436.339 293.73 434.12C293.73 431.88 294.434 430.077 295.842 428.712C297.25 427.347 298.861 426.664 300.674 426.664C302.487 426.664 303.97 427.187 305.122 428.232C306.295 429.277 306.882 430.856 306.882 432.968C306.882 433.288 306.786 433.448 306.594 433.448ZM303.202 431.528C303.202 429.587 302.402 428.616 300.802 428.616C300.013 428.616 299.373 428.915 298.882 429.512C298.391 430.109 298.103 430.781 298.018 431.528H303.202ZM327.709 441L323.069 441.032L322.717 439.368C323.506 439.347 324.093 439.272 324.477 439.144C324.861 438.995 325.074 438.867 325.117 438.76C325.181 438.653 325.213 438.493 325.213 438.28V422.824C325.213 421.907 324.669 421.448 323.581 421.448C323.303 421.448 322.941 421.48 322.493 421.544L321.853 419.976C323.431 419.699 324.701 419.421 325.661 419.144L328.701 418.248C329.085 418.248 329.319 418.301 329.405 418.408C329.49 418.515 329.533 418.824 329.533 419.336L329.565 438.28C329.565 439.005 330.237 439.368 331.581 439.368C331.645 439.368 331.719 439.368 331.805 439.368L332.221 441.096L327.709 441ZM347.799 432.232C346.882 432.616 345.591 432.808 343.927 432.808C342.285 432.808 340.759 432.168 339.351 430.888C337.965 429.587 337.271 427.944 337.271 425.96C337.271 423.955 337.943 422.28 339.287 420.936C340.631 419.571 342.519 418.888 344.951 418.888C347.383 418.888 349.261 419.528 350.583 420.808C351.927 422.088 352.599 423.987 352.599 426.504C352.599 429.021 351.725 431.635 349.975 434.344C348.226 437.053 345.911 439.4 343.031 441.384C342.157 441.128 341.666 440.787 341.559 440.36C342.946 439.357 344.247 438.067 345.463 436.488C346.701 434.888 347.479 433.469 347.799 432.232ZM347.831 428.968C348.215 428.435 348.407 427.411 348.407 425.896C348.407 424.381 348.055 423.165 347.351 422.248C346.669 421.331 345.783 420.872 344.695 420.872C343.607 420.872 342.797 421.309 342.263 422.184C341.73 423.037 341.463 424.115 341.463 425.416C341.463 426.696 341.783 427.795 342.423 428.712C343.063 429.608 343.991 430.056 345.207 430.056C346.423 430.056 347.298 429.693 347.831 428.968ZM366.564 427.976C368.313 427.976 369.871 428.541 371.236 429.672C372.623 430.781 373.316 432.328 373.316 434.312C373.316 436.296 372.644 437.971 371.3 439.336C369.956 440.701 368.068 441.384 365.636 441.384C363.204 441.384 361.316 440.744 359.972 439.464C358.649 438.184 357.988 436.296 357.988 433.8C357.988 431.283 358.991 428.637 360.996 425.864C363.023 423.091 365.54 420.755 368.548 418.856C368.569 418.856 368.644 418.888 368.772 418.952C368.9 418.995 368.985 419.027 369.028 419.048C369.092 419.069 369.177 419.112 369.284 419.176C369.412 419.219 369.508 419.272 369.572 419.336C369.636 419.379 369.7 419.432 369.764 419.496C369.913 419.624 369.988 419.763 369.988 419.912C369.156 420.573 368.153 421.533 366.98 422.792C365.807 424.051 365.06 424.893 364.74 425.32C363.823 426.579 363.161 427.731 362.756 428.776C364.143 428.243 365.412 427.976 366.564 427.976ZM365.572 429.992C365.039 429.992 364.495 430.12 363.94 430.376C363.407 430.611 362.98 430.952 362.66 431.4C362.34 431.827 362.18 432.808 362.18 434.344C362.18 435.859 362.521 437.053 363.204 437.928C363.887 438.781 364.783 439.208 365.892 439.208C367.001 439.208 367.812 438.803 368.324 437.992C368.857 437.181 369.124 436.136 369.124 434.856C369.124 433.555 368.804 432.424 368.164 431.464C367.524 430.483 366.66 429.992 365.572 429.992ZM387.6 441.384C384.912 441.384 382.747 440.392 381.104 438.408C379.483 436.424 378.672 433.8 378.672 430.536C378.672 427.251 379.483 424.488 381.104 422.248C382.726 419.987 384.87 418.856 387.536 418.856C390.224 418.856 392.4 419.891 394.064 421.96C395.728 424.008 396.56 426.664 396.56 429.928C396.56 433.192 395.739 435.923 394.096 438.12C392.475 440.296 390.31 441.384 387.6 441.384ZM388.208 439.208C389.552 439.208 390.576 438.397 391.28 436.776C392.006 435.155 392.368 433.203 392.368 430.92C392.368 428.381 392.016 426.152 391.312 424.232C390.928 423.208 390.384 422.397 389.68 421.8C388.976 421.203 388.144 420.904 387.184 420.904C385.904 420.904 384.859 421.747 384.048 423.432C383.259 425.117 382.864 426.995 382.864 429.064C382.864 431.709 383.206 433.981 383.888 435.88C384.272 436.904 384.827 437.715 385.552 438.312C386.299 438.909 387.184 439.208 388.208 439.208ZM407.772 418.504C407.58 419.251 407.335 420.061 407.036 420.936C406.738 421.789 406.418 422.653 406.076 423.528C405.735 424.381 405.383 425.203 405.02 425.992H401.596C401.746 425.352 401.895 424.691 402.044 424.008C402.194 423.325 402.332 422.643 402.46 421.96C402.61 421.256 402.738 420.584 402.844 419.944C402.972 419.304 403.079 418.707 403.164 418.152H407.548L407.772 418.504ZM418.006 439.4C419.713 439.4 420.566 438.845 420.566 437.736C420.566 437.011 419.691 436.317 417.942 435.656C417.217 435.379 416.491 435.059 415.766 434.696C415.062 434.333 414.454 433.821 413.942 433.16C413.43 432.499 413.174 431.72 413.174 430.824C413.174 429.544 413.697 428.531 414.742 427.784C415.809 427.037 417.025 426.664 418.39 426.664C419.755 426.664 421.238 426.963 422.838 427.56C423.115 427.816 423.254 428.349 423.254 429.16C423.254 429.949 423.169 430.728 422.998 431.496L421.59 431.368C421.462 430.536 421.131 429.864 420.598 429.352C420.065 428.84 419.425 428.584 418.678 428.584C417.953 428.584 417.398 428.744 417.014 429.064C416.651 429.363 416.47 429.715 416.47 430.12C416.47 430.525 416.726 430.888 417.238 431.208C417.75 431.528 418.369 431.827 419.094 432.104C419.841 432.381 420.577 432.701 421.302 433.064C422.049 433.427 422.678 433.939 423.19 434.6C423.702 435.261 423.958 436.04 423.958 436.936C423.958 438.301 423.435 439.379 422.39 440.168C421.345 440.957 420.011 441.352 418.39 441.352C416.79 441.352 415.222 441.107 413.686 440.616C413.558 440.509 413.43 439.933 413.302 438.888C413.174 437.821 413.11 437 413.11 436.424V435.944L414.966 436.04C415.115 437.213 415.467 438.067 416.022 438.6C416.577 439.133 417.238 439.4 418.006 439.4Z" fill="white"/>
<line x1="206.5" y1="432.5" x2="1.5" y2="432.5" stroke="white" stroke-width="3" stroke-linecap="round"/>
<line x1="639.5" y1="432.5" x2="434.5" y2="432.5" stroke="white" stroke-width="3" stroke-linecap="round"/>
<path d="M372.28 119.44C369.72 119.52 367.8 119.84 366.52 120.4C365.24 120.88 364.36 121.84 363.88 123.28C363.48 124.64 363.28 126.8 363.28 129.76V189.28C363.28 192.16 363.48 194.32 363.88 195.76C364.36 197.2 365.24 198.16 366.52 198.64C367.8 199.12 369.72 199.44 372.28 199.6V202C370.04 201.84 367.2 201.76 363.76 201.76C360.4 201.68 356.96 201.64 353.44 201.64C349.6 201.64 346 201.68 342.64 201.76C339.28 201.76 336.559 201.84 334.479 202V199.6C337.199 199.44 339.24 199.12 340.6 198.64C342.04 198.16 342.999 197.2 343.479 195.76C343.959 194.32 344.2 192.16 344.2 189.28V126.555L315.28 202.12H313.36L280.96 124.84V182.32C280.96 186.72 281.2 190.121 281.68 192.521C282.16 194.84 283.2 196.52 284.8 197.56C286.48 198.52 289.08 199.2 292.6 199.6V202C291.08 201.84 289.079 201.76 286.6 201.76C284.12 201.68 281.8 201.64 279.64 201.64C277.8 201.64 275.92 201.68 274 201.76C272.08 201.76 270.48 201.84 269.2 202V199.6C271.76 199.2 273.68 198.52 274.96 197.56C276.24 196.6 277.08 195.04 277.479 192.88C277.959 190.64 278.2 187.6 278.2 183.76V129.76C278.2 126.8 277.959 124.64 277.479 123.28C277.079 121.84 276.2 120.88 274.84 120.4C273.56 119.84 271.68 119.52 269.2 119.44V117.04C270.48 117.12 272.08 117.2 274 117.28C275.92 117.36 277.8 117.4 279.64 117.4C283.08 117.4 286.44 117.36 289.72 117.28C293.08 117.2 296.04 117.12 298.6 117.04L322.785 175.432L344.92 117.4H353.44C356.96 117.4 360.4 117.36 363.76 117.28C367.2 117.2 370.04 117.12 372.28 117.04V119.44ZM347 119V200H350V119H347ZM314 197L315.5 193L286 124H283L314 197Z" fill="white"/>
<path d="M321.5 44.0005C323.433 44.0005 325 45.5675 325 47.5005C325 49.1286 323.888 50.4963 322.382 50.8872C322.436 51.1053 322.501 51.3559 322.576 51.6333C322.861 52.6826 323.296 54.103 323.894 55.5972C325.124 58.6733 326.897 61.6925 329.226 62.8276C331.623 63.9966 334.072 63.4482 336.025 62.4829C336.986 62.0081 337.789 61.4521 338.351 61.0132C338.499 60.897 338.63 60.7889 338.742 60.6938C338.283 60.1952 338 59.5316 338 58.8003C338 57.2541 339.254 56.0006 340.8 56.0005C342.346 56.0005 343.6 57.254 343.6 58.8003C343.599 60.3465 342.346 61.6001 340.8 61.6001C340.589 61.6001 340.385 61.5738 340.188 61.5298C340.555 61.9989 340.555 61.9993 340.555 61.9995L340.554 61.9985L340.553 62.0015L340.533 62.021C340.521 62.0331 340.503 62.0495 340.48 62.0708C340.435 62.1138 340.369 62.1751 340.285 62.2505C340.23 62.3003 340.164 62.3549 340.093 62.4165C340.095 62.4893 340.095 62.5661 340.099 62.646C340.127 63.3489 340.214 64.3037 340.441 65.3159C340.907 67.3862 341.909 69.468 343.934 70.3765C346.014 71.3096 348.516 70.9677 350.631 70.3003C351.671 69.972 352.573 69.5782 353.215 69.2661C353.336 69.2072 353.447 69.1499 353.549 69.0981C353.453 68.8161 353.4 68.5141 353.4 68.1997C353.401 66.6536 354.654 65.4 356.2 65.3999C357.746 65.4002 359 66.6537 359 68.1997C359 69.7459 357.746 70.9992 356.2 70.9995C355.941 70.9995 355.69 70.961 355.452 70.895L343.427 86.8843L343.384 86.8657C341.355 89.448 332.106 91.3999 321 91.3999L319.827 91.3921C309.248 91.2604 300.571 89.3575 298.614 86.8667L298.573 86.8843L286.547 70.895C286.309 70.9609 286.059 70.9995 285.8 70.9995C284.253 70.9994 283 69.746 283 68.1997C283 66.6536 284.254 65.4 285.8 65.3999C287.346 65.3999 288.599 66.6535 288.6 68.1997C288.6 68.5212 288.542 68.8292 288.442 69.1167C288.571 69.1897 288.718 69.2713 288.882 69.3589C289.546 69.7145 290.469 70.1657 291.516 70.5493C293.669 71.3387 296.057 71.7435 297.84 70.855C299.635 69.96 300.652 67.7676 301.188 65.5337C301.448 64.4523 301.578 63.4305 301.644 62.6772C301.676 62.3016 301.693 61.9949 301.701 61.7847C301.705 61.6799 301.707 61.5987 301.708 61.5454C301.708 61.5192 301.709 61.4993 301.709 61.4868V61.4712L302.523 61.5347C302.541 61.512 302.56 61.4893 302.579 61.4653L303.253 60.604L303.262 60.6128C303.27 60.6207 303.284 60.6338 303.302 60.6509C303.338 60.685 303.393 60.7368 303.466 60.8022C303.612 60.9337 303.83 61.1219 304.109 61.3403C304.671 61.7792 305.473 62.3362 306.435 62.811C308.388 63.7762 310.837 64.3246 313.234 63.1558C315.563 62.0207 317.336 59.0014 318.566 55.9253C319.164 54.431 319.599 53.0108 319.884 51.9614C320.021 51.4558 320.122 51.039 320.19 50.7456C318.907 50.2271 318 48.9701 318 47.5005C318 45.5675 319.567 44.0005 321.5 44.0005ZM321 82.1997C314.817 82.1997 309.284 82.8169 305.355 83.7817C303.376 84.268 301.914 84.8162 300.996 85.3491C300.672 85.5373 300.473 85.6908 300.351 85.7993C300.473 85.9078 300.672 86.061 300.996 86.2495C301.914 86.7825 303.375 87.3306 305.355 87.8169C309.284 88.7818 314.816 89.3999 321 89.3999C327.184 89.3999 332.717 88.7819 336.646 87.8169C338.625 87.3306 340.086 86.7824 341.004 86.2495C341.328 86.0614 341.526 85.9078 341.648 85.7993C341.526 85.6909 341.328 85.5371 341.004 85.3491C340.086 84.8162 338.625 84.268 336.646 83.7817C332.717 82.8168 327.184 82.1997 321 82.1997ZM321.28 53.4956C321.004 54.3984 320.656 55.4364 320.225 56.5151C318.964 59.668 316.867 63.5508 313.678 65.106C310.557 66.6271 307.567 65.8433 305.462 64.8032C304.762 64.4573 304.142 64.0729 303.624 63.7144C303.54 64.4136 303.41 65.2403 303.202 66.1069C302.649 68.4124 301.486 71.3036 298.923 72.5815C296.347 73.8654 293.199 73.1842 290.908 72.3442C290.487 72.1897 290.084 72.0259 289.708 71.8618L299.048 84.2817C301.742 81.9267 310.55 80.1997 321 80.1997C331.449 80.1997 340.256 81.9268 342.951 84.2817L352.434 71.6714C352.032 71.8282 351.598 71.9853 351.139 72.1304C348.823 72.8613 345.684 73.3752 342.922 72.1362C340.104 70.8719 338.924 68.1019 338.421 65.8638C338.26 65.1492 338.167 64.4642 338.108 63.8618C337.767 64.0707 337.395 64.2789 336.998 64.4751C334.893 65.5152 331.903 66.3 328.782 64.7788C325.593 63.2237 323.496 59.3409 322.235 56.188C321.855 55.2373 321.539 54.3181 321.28 53.4956ZM356.2 67.3999C355.759 67.4 355.401 67.7581 355.4 68.1997C355.4 68.6415 355.758 68.9994 356.2 68.9995C356.642 68.9992 357 68.6414 357 68.1997C357 67.7582 356.642 67.4002 356.2 67.3999ZM285.8 67.3999C285.358 67.4 285 67.7581 285 68.1997C285 68.6415 285.358 68.9994 285.8 68.9995C286.242 68.9995 286.6 68.6415 286.6 68.1997C286.599 67.7581 286.241 67.3999 285.8 67.3999ZM300.8 56.0005C302.346 56.0005 303.6 57.254 303.6 58.8003C303.599 60.3465 302.346 61.6001 300.8 61.6001C299.254 61.6 298 60.3464 298 58.8003C298 57.2541 299.254 56.0006 300.8 56.0005ZM300.8 58.0005C300.358 58.0006 300 58.3586 300 58.8003C300 59.2418 300.358 59.6 300.8 59.6001C301.241 59.6001 301.599 59.2419 301.6 58.8003C301.6 58.3586 301.242 58.0005 300.8 58.0005ZM340.8 58.0005C340.358 58.0006 340 58.3586 340 58.8003C340 59.2418 340.358 59.6 340.8 59.6001C341.241 59.6001 341.599 59.2419 341.6 58.8003C341.6 58.3586 341.242 58.0005 340.8 58.0005ZM321.5 46.0005C320.672 46.0005 320 46.6721 320 47.5005C320 48.3287 320.672 49.0005 321.5 49.0005C322.328 49.0005 323 48.3287 323 47.5005C323 46.6721 322.328 46.0005 321.5 46.0005Z" fill="white"/>
</svg>
